M48
;DRILL file {KiCad 4.0.7} date 07/31/19 15:42:47
;FORMAT={2:4/ absolute / inch / suppress leading zeros}
FMAT,2
INCH,TZ
T1C0.016
T2C0.031
T3C0.035
T4C0.039
T5C0.043
T6C0.126
%
G90
G05
M72
T1
X39500Y-33250
X42250Y-29000
X42500Y-28000
X42750Y-28750
X43250Y-29250
X44500Y-43750
X44750Y-34000
X44750Y-34500
X45500Y-19750
X45500Y-21000
X45500Y-43750
X45750Y-20750
X45750Y-21500
X46000Y-33750
X46000Y-35250
X46000Y-38250
X46250Y-34000
X46250Y-35000
X46250Y-38000
X47500Y-20750
X47750Y-16500
X47750Y-28000
X47750Y-29250
X47750Y-36250
X48000Y-17000
X48000Y-27750
X48000Y-29000
X48000Y-36500
X48000Y-37000
X48000Y-41000
X48250Y-20500
X48250Y-28000
X48250Y-29250
X48250Y-36250
X48250Y-37250
X48500Y-24250
X48500Y-28250
X48500Y-29000
X48500Y-37000
X48500Y-40250
X48500Y-42250
X50500Y-16500
X50750Y-17000
X52000Y-35000
X53750Y-28000
X54000Y-28250
X54750Y-28000
X55000Y-28250
X55500Y-38750
T2
X44000Y-18250
X44000Y-19250
X44000Y-20250
X44000Y-21250
X44000Y-22250
X44000Y-23250
X44000Y-24250
X44000Y-25250
X44000Y-30750
X44000Y-31750
X44000Y-32750
X44000Y-33750
X44000Y-34750
X44000Y-35750
X44000Y-36750
X44000Y-37750
X44000Y-39250
X44000Y-40250
X45500Y-39250
X45500Y-40250
X47000Y-14781
X47000Y-16750
X47000Y-18250
X47000Y-19250
X47000Y-20250
X47000Y-21250
X47000Y-22250
X47000Y-23250
X47000Y-24250
X47000Y-25250
X47000Y-27281
X47000Y-29250
X47000Y-30750
X47000Y-31750
X47000Y-32750
X47000Y-33750
X47000Y-34750
X47000Y-35750
X47000Y-36750
X47000Y-37750
X47000Y-39250
X47000Y-40250
X49500Y-39250
X49500Y-40250
X49750Y-18250
X49750Y-19250
X49750Y-20250
X49750Y-21250
X49800Y-22900
X49800Y-26900
X51000Y-39250
X51000Y-40250
X51300Y-22900
X51300Y-26900
X52750Y-18250
X52750Y-19250
X52750Y-20250
X52750Y-21250
X52900Y-22900
X52900Y-26900
X54250Y-18250
X54250Y-20219
X54400Y-22900
X54400Y-26900
T3
X44750Y-15250
X44750Y-16250
X44750Y-27750
X44750Y-28750
T4
X40614Y-18427
X40614Y-19518
X40614Y-20608
X40614Y-21699
X40614Y-30711
X40614Y-31801
X40614Y-32892
X40614Y-33982
X41732Y-17882
X41732Y-18972
X41732Y-20063
X41732Y-21154
X41732Y-22244
X41732Y-30165
X41732Y-31256
X41732Y-32346
X41732Y-33437
X41732Y-34528
X43400Y-41787
X43945Y-42906
X44491Y-41787
X45036Y-42906
X45581Y-41787
X46126Y-42906
X46672Y-41787
X47217Y-42906
X47762Y-41787
X49750Y-30750
X49750Y-31750
X49750Y-34250
X49750Y-35250
X49750Y-37750
X50750Y-30750
X50750Y-31750
X50750Y-34250
X50750Y-35250
X50750Y-37750
T5
X52500Y-40250
X52500Y-42022
X52500Y-43500
X52500Y-45272
X55059Y-40250
X55059Y-42022
X55059Y-43500
X55059Y-45272
T6
X40660Y-42346
X41173Y-15142
X41173Y-24984
X41173Y-27425
X41173Y-37268
X50502Y-42346
T0
M30
