G04 #@! TF.FileFunction,Legend,Top*
%FSLAX46Y46*%
G04 Gerber Fmt 4.6, Leading zero omitted, Abs format (unit mm)*
G04 Created by KiCad (PCBNEW 4.0.7) date 09/26/19 16:06:38*
%MOMM*%
%LPD*%
G01*
G04 APERTURE LIST*
%ADD10C,0.100000*%
%ADD11C,0.150000*%
%ADD12C,0.200000*%
%ADD13C,0.120000*%
G04 APERTURE END LIST*
D10*
D11*
X145200714Y-59379762D02*
X146010238Y-59379762D01*
X146105476Y-59427381D01*
X146153095Y-59475000D01*
X146200714Y-59570239D01*
X146200714Y-59713096D01*
X146153095Y-59808334D01*
X145819762Y-59379762D02*
X145867381Y-59475000D01*
X145867381Y-59665477D01*
X145819762Y-59760715D01*
X145772143Y-59808334D01*
X145676905Y-59855953D01*
X145391190Y-59855953D01*
X145295952Y-59808334D01*
X145248333Y-59760715D01*
X145200714Y-59665477D01*
X145200714Y-59475000D01*
X145248333Y-59379762D01*
X145867381Y-58903572D02*
X145200714Y-58903572D01*
X144867381Y-58903572D02*
X144915000Y-58951191D01*
X144962619Y-58903572D01*
X144915000Y-58855953D01*
X144867381Y-58903572D01*
X144962619Y-58903572D01*
X145200714Y-58570239D02*
X145200714Y-58189287D01*
X144867381Y-58427382D02*
X145724524Y-58427382D01*
X145819762Y-58379763D01*
X145867381Y-58284525D01*
X145867381Y-58189287D01*
X145867381Y-57855953D02*
X144867381Y-57855953D01*
X145867381Y-57427381D02*
X145343571Y-57427381D01*
X145248333Y-57475000D01*
X145200714Y-57570238D01*
X145200714Y-57713096D01*
X145248333Y-57808334D01*
X145295952Y-57855953D01*
X145200714Y-56522619D02*
X145867381Y-56522619D01*
X145200714Y-56951191D02*
X145724524Y-56951191D01*
X145819762Y-56903572D01*
X145867381Y-56808334D01*
X145867381Y-56665476D01*
X145819762Y-56570238D01*
X145772143Y-56522619D01*
X145867381Y-56046429D02*
X144867381Y-56046429D01*
X145248333Y-56046429D02*
X145200714Y-55951191D01*
X145200714Y-55760714D01*
X145248333Y-55665476D01*
X145295952Y-55617857D01*
X145391190Y-55570238D01*
X145676905Y-55570238D01*
X145772143Y-55617857D01*
X145819762Y-55665476D01*
X145867381Y-55760714D01*
X145867381Y-55951191D01*
X145819762Y-56046429D01*
X145772143Y-55141667D02*
X145819762Y-55094048D01*
X145867381Y-55141667D01*
X145819762Y-55189286D01*
X145772143Y-55141667D01*
X145867381Y-55141667D01*
X145819762Y-54236905D02*
X145867381Y-54332143D01*
X145867381Y-54522620D01*
X145819762Y-54617858D01*
X145772143Y-54665477D01*
X145676905Y-54713096D01*
X145391190Y-54713096D01*
X145295952Y-54665477D01*
X145248333Y-54617858D01*
X145200714Y-54522620D01*
X145200714Y-54332143D01*
X145248333Y-54236905D01*
X145867381Y-53665477D02*
X145819762Y-53760715D01*
X145772143Y-53808334D01*
X145676905Y-53855953D01*
X145391190Y-53855953D01*
X145295952Y-53808334D01*
X145248333Y-53760715D01*
X145200714Y-53665477D01*
X145200714Y-53522619D01*
X145248333Y-53427381D01*
X145295952Y-53379762D01*
X145391190Y-53332143D01*
X145676905Y-53332143D01*
X145772143Y-53379762D01*
X145819762Y-53427381D01*
X145867381Y-53522619D01*
X145867381Y-53665477D01*
X145867381Y-52903572D02*
X145200714Y-52903572D01*
X145295952Y-52903572D02*
X145248333Y-52855953D01*
X145200714Y-52760715D01*
X145200714Y-52617857D01*
X145248333Y-52522619D01*
X145343571Y-52475000D01*
X145867381Y-52475000D01*
X145343571Y-52475000D02*
X145248333Y-52427381D01*
X145200714Y-52332143D01*
X145200714Y-52189286D01*
X145248333Y-52094048D01*
X145343571Y-52046429D01*
X145867381Y-52046429D01*
X144819762Y-50855953D02*
X146105476Y-51713096D01*
X145200714Y-50665477D02*
X145200714Y-50284525D01*
X144867381Y-50522620D02*
X145724524Y-50522620D01*
X145819762Y-50475001D01*
X145867381Y-50379763D01*
X145867381Y-50284525D01*
X145819762Y-49570238D02*
X145867381Y-49665476D01*
X145867381Y-49855953D01*
X145819762Y-49951191D01*
X145724524Y-49998810D01*
X145343571Y-49998810D01*
X145248333Y-49951191D01*
X145200714Y-49855953D01*
X145200714Y-49665476D01*
X145248333Y-49570238D01*
X145343571Y-49522619D01*
X145438810Y-49522619D01*
X145534048Y-49998810D01*
X145867381Y-49094048D02*
X144867381Y-49094048D01*
X145248333Y-49094048D02*
X145200714Y-48998810D01*
X145200714Y-48808333D01*
X145248333Y-48713095D01*
X145295952Y-48665476D01*
X145391190Y-48617857D01*
X145676905Y-48617857D01*
X145772143Y-48665476D01*
X145819762Y-48713095D01*
X145867381Y-48808333D01*
X145867381Y-48998810D01*
X145819762Y-49094048D01*
X145867381Y-48046429D02*
X145819762Y-48141667D01*
X145724524Y-48189286D01*
X144867381Y-48189286D01*
X145867381Y-43806666D02*
X145391190Y-44140000D01*
X145867381Y-44378095D02*
X144867381Y-44378095D01*
X144867381Y-43997142D01*
X144915000Y-43901904D01*
X144962619Y-43854285D01*
X145057857Y-43806666D01*
X145200714Y-43806666D01*
X145295952Y-43854285D01*
X145343571Y-43901904D01*
X145391190Y-43997142D01*
X145391190Y-44378095D01*
X145819762Y-42997142D02*
X145867381Y-43092380D01*
X145867381Y-43282857D01*
X145819762Y-43378095D01*
X145724524Y-43425714D01*
X145343571Y-43425714D01*
X145248333Y-43378095D01*
X145200714Y-43282857D01*
X145200714Y-43092380D01*
X145248333Y-42997142D01*
X145343571Y-42949523D01*
X145438810Y-42949523D01*
X145534048Y-43425714D01*
X145200714Y-42616190D02*
X145867381Y-42378095D01*
X145200714Y-42139999D01*
X145867381Y-41759047D02*
X145200714Y-41759047D01*
X144867381Y-41759047D02*
X144915000Y-41806666D01*
X144962619Y-41759047D01*
X144915000Y-41711428D01*
X144867381Y-41759047D01*
X144962619Y-41759047D01*
X145819762Y-41330476D02*
X145867381Y-41235238D01*
X145867381Y-41044762D01*
X145819762Y-40949523D01*
X145724524Y-40901904D01*
X145676905Y-40901904D01*
X145581667Y-40949523D01*
X145534048Y-41044762D01*
X145534048Y-41187619D01*
X145486429Y-41282857D01*
X145391190Y-41330476D01*
X145343571Y-41330476D01*
X145248333Y-41282857D01*
X145200714Y-41187619D01*
X145200714Y-41044762D01*
X145248333Y-40949523D01*
X145867381Y-40473333D02*
X145200714Y-40473333D01*
X144867381Y-40473333D02*
X144915000Y-40520952D01*
X144962619Y-40473333D01*
X144915000Y-40425714D01*
X144867381Y-40473333D01*
X144962619Y-40473333D01*
X145867381Y-39854286D02*
X145819762Y-39949524D01*
X145772143Y-39997143D01*
X145676905Y-40044762D01*
X145391190Y-40044762D01*
X145295952Y-39997143D01*
X145248333Y-39949524D01*
X145200714Y-39854286D01*
X145200714Y-39711428D01*
X145248333Y-39616190D01*
X145295952Y-39568571D01*
X145391190Y-39520952D01*
X145676905Y-39520952D01*
X145772143Y-39568571D01*
X145819762Y-39616190D01*
X145867381Y-39711428D01*
X145867381Y-39854286D01*
X145200714Y-39092381D02*
X145867381Y-39092381D01*
X145295952Y-39092381D02*
X145248333Y-39044762D01*
X145200714Y-38949524D01*
X145200714Y-38806666D01*
X145248333Y-38711428D01*
X145343571Y-38663809D01*
X145867381Y-38663809D01*
X145343571Y-37092380D02*
X145391190Y-36949523D01*
X145438810Y-36901904D01*
X145534048Y-36854285D01*
X145676905Y-36854285D01*
X145772143Y-36901904D01*
X145819762Y-36949523D01*
X145867381Y-37044761D01*
X145867381Y-37425714D01*
X144867381Y-37425714D01*
X144867381Y-37092380D01*
X144915000Y-36997142D01*
X144962619Y-36949523D01*
X145057857Y-36901904D01*
X145153095Y-36901904D01*
X145248333Y-36949523D01*
X145295952Y-36997142D01*
X145343571Y-37092380D01*
X145343571Y-37425714D01*
D12*
X136525000Y-97790000D02*
X127000000Y-97790000D01*
X135890000Y-100330000D02*
X127000000Y-100330000D01*
X136525000Y-95250000D02*
X135255000Y-95250000D01*
X127000000Y-95250000D02*
X128905000Y-95250000D01*
X118745000Y-100330000D02*
X120650000Y-100330000D01*
X118745000Y-97790000D02*
X120650000Y-97790000D01*
X118745000Y-95250000D02*
X120650000Y-95250000D01*
X135890000Y-100330000D02*
X136525000Y-100330000D01*
D11*
X141089333Y-107132381D02*
X141089333Y-106132381D01*
X141470286Y-106132381D01*
X141565524Y-106180000D01*
X141613143Y-106227619D01*
X141660762Y-106322857D01*
X141660762Y-106465714D01*
X141613143Y-106560952D01*
X141565524Y-106608571D01*
X141470286Y-106656190D01*
X141089333Y-106656190D01*
X142232190Y-107132381D02*
X142136952Y-107084762D01*
X142089333Y-107037143D01*
X142041714Y-106941905D01*
X142041714Y-106656190D01*
X142089333Y-106560952D01*
X142136952Y-106513333D01*
X142232190Y-106465714D01*
X142375048Y-106465714D01*
X142470286Y-106513333D01*
X142517905Y-106560952D01*
X142565524Y-106656190D01*
X142565524Y-106941905D01*
X142517905Y-107037143D01*
X142470286Y-107084762D01*
X142375048Y-107132381D01*
X142232190Y-107132381D01*
X142994095Y-107132381D02*
X142994095Y-106465714D01*
X142994095Y-106656190D02*
X143041714Y-106560952D01*
X143089333Y-106513333D01*
X143184571Y-106465714D01*
X143279810Y-106465714D01*
X143470286Y-106465714D02*
X143851238Y-106465714D01*
X143613143Y-106132381D02*
X143613143Y-106989524D01*
X143660762Y-107084762D01*
X143756000Y-107132381D01*
X143851238Y-107132381D01*
X144898858Y-106227619D02*
X144946477Y-106180000D01*
X145041715Y-106132381D01*
X145279811Y-106132381D01*
X145375049Y-106180000D01*
X145422668Y-106227619D01*
X145470287Y-106322857D01*
X145470287Y-106418095D01*
X145422668Y-106560952D01*
X144851239Y-107132381D01*
X145470287Y-107132381D01*
D12*
X111760000Y-102235000D02*
X111760000Y-91440000D01*
X144145000Y-102235000D02*
X111760000Y-102235000D01*
X144145000Y-91440000D02*
X144145000Y-102235000D01*
X111760000Y-91440000D02*
X144145000Y-91440000D01*
D11*
X130175238Y-93162381D02*
X130175238Y-92162381D01*
X130413333Y-92162381D01*
X130556191Y-92210000D01*
X130651429Y-92305238D01*
X130699048Y-92400476D01*
X130746667Y-92590952D01*
X130746667Y-92733810D01*
X130699048Y-92924286D01*
X130651429Y-93019524D01*
X130556191Y-93114762D01*
X130413333Y-93162381D01*
X130175238Y-93162381D01*
X131175238Y-92781429D02*
X131937143Y-92781429D01*
X132413333Y-92162381D02*
X132413333Y-92971905D01*
X132460952Y-93067143D01*
X132508571Y-93114762D01*
X132603809Y-93162381D01*
X132794286Y-93162381D01*
X132889524Y-93114762D01*
X132937143Y-93067143D01*
X132984762Y-92971905D01*
X132984762Y-92162381D01*
X133460952Y-93162381D02*
X133460952Y-92162381D01*
X133841905Y-92162381D01*
X133937143Y-92210000D01*
X133984762Y-92257619D01*
X134032381Y-92352857D01*
X134032381Y-92495714D01*
X133984762Y-92590952D01*
X133937143Y-92638571D01*
X133841905Y-92686190D01*
X133460952Y-92686190D01*
X124134524Y-93067143D02*
X124086905Y-93114762D01*
X123944048Y-93162381D01*
X123848810Y-93162381D01*
X123705952Y-93114762D01*
X123610714Y-93019524D01*
X123563095Y-92924286D01*
X123515476Y-92733810D01*
X123515476Y-92590952D01*
X123563095Y-92400476D01*
X123610714Y-92305238D01*
X123705952Y-92210000D01*
X123848810Y-92162381D01*
X123944048Y-92162381D01*
X124086905Y-92210000D01*
X124134524Y-92257619D01*
X115641429Y-92638571D02*
X115784286Y-92686190D01*
X115831905Y-92733810D01*
X115879524Y-92829048D01*
X115879524Y-92971905D01*
X115831905Y-93067143D01*
X115784286Y-93114762D01*
X115689048Y-93162381D01*
X115308095Y-93162381D01*
X115308095Y-92162381D01*
X115641429Y-92162381D01*
X115736667Y-92210000D01*
X115784286Y-92257619D01*
X115831905Y-92352857D01*
X115831905Y-92448095D01*
X115784286Y-92543333D01*
X115736667Y-92590952D01*
X115641429Y-92638571D01*
X115308095Y-92638571D01*
X137350476Y-100496667D02*
X137826667Y-100496667D01*
X137255238Y-100782381D02*
X137588571Y-99782381D01*
X137921905Y-100782381D01*
X138731429Y-100782381D02*
X138255238Y-100782381D01*
X138255238Y-99782381D01*
X138921905Y-99782381D02*
X139493334Y-99782381D01*
X139207619Y-100782381D02*
X139207619Y-99782381D01*
X137398095Y-94702381D02*
X137398095Y-95511905D01*
X137445714Y-95607143D01*
X137493333Y-95654762D01*
X137588571Y-95702381D01*
X137779048Y-95702381D01*
X137874286Y-95654762D01*
X137921905Y-95607143D01*
X137969524Y-95511905D01*
X137969524Y-94702381D01*
X138445714Y-95702381D02*
X138445714Y-94702381D01*
X138826667Y-94702381D01*
X138921905Y-94750000D01*
X138969524Y-94797619D01*
X139017143Y-94892857D01*
X139017143Y-95035714D01*
X138969524Y-95130952D01*
X138921905Y-95178571D01*
X138826667Y-95226190D01*
X138445714Y-95226190D01*
X137731429Y-97718571D02*
X137398095Y-97718571D01*
X137398095Y-98242381D02*
X137398095Y-97242381D01*
X137874286Y-97242381D01*
X138255238Y-98242381D02*
X138255238Y-97242381D01*
X139302857Y-98242381D02*
X138969523Y-97766190D01*
X138731428Y-98242381D02*
X138731428Y-97242381D01*
X139112381Y-97242381D01*
X139207619Y-97290000D01*
X139255238Y-97337619D01*
X139302857Y-97432857D01*
X139302857Y-97575714D01*
X139255238Y-97670952D01*
X139207619Y-97718571D01*
X139112381Y-97766190D01*
X138731428Y-97766190D01*
X139731428Y-97718571D02*
X140064762Y-97718571D01*
X140207619Y-98242381D02*
X139731428Y-98242381D01*
X139731428Y-97242381D01*
X140207619Y-97242381D01*
D12*
X142875000Y-100965000D02*
X142875000Y-100330000D01*
X140970000Y-100965000D02*
X142875000Y-100965000D01*
X140970000Y-100330000D02*
X140970000Y-100965000D01*
X142875000Y-98425000D02*
X142875000Y-97790000D01*
X140970000Y-98425000D02*
X142875000Y-98425000D01*
X140970000Y-97790000D02*
X140970000Y-98425000D01*
X141605000Y-94615000D02*
X142240000Y-94615000D01*
X142240000Y-93980000D02*
X141605000Y-94615000D01*
X142240000Y-94615000D02*
X141605000Y-93980000D01*
X142875000Y-95250000D02*
X142240000Y-95250000D01*
X142875000Y-94615000D02*
X142875000Y-95250000D01*
X142240000Y-94615000D02*
X142875000Y-94615000D01*
X142240000Y-93980000D02*
X142240000Y-94615000D01*
X141605000Y-93980000D02*
X142240000Y-93980000D01*
X141605000Y-94615000D02*
X141605000Y-93980000D01*
X140970000Y-94615000D02*
X141605000Y-94615000D01*
X140970000Y-95250000D02*
X140970000Y-94615000D01*
X141605000Y-95250000D02*
X140970000Y-95250000D01*
X142240000Y-95885000D02*
X142240000Y-95250000D01*
X141605000Y-95885000D02*
X142240000Y-95885000D01*
X141605000Y-95250000D02*
X141605000Y-95885000D01*
X141605000Y-100330000D02*
X140970000Y-100330000D01*
X141605000Y-99695000D02*
X141605000Y-100330000D01*
X142240000Y-99695000D02*
X141605000Y-99695000D01*
X142240000Y-100330000D02*
X142240000Y-99695000D01*
X142875000Y-100330000D02*
X142240000Y-100330000D01*
X141605000Y-97790000D02*
X140970000Y-97790000D01*
X141605000Y-97155000D02*
X141605000Y-97790000D01*
X142240000Y-97155000D02*
X141605000Y-97155000D01*
X142240000Y-97790000D02*
X142240000Y-97155000D01*
X142875000Y-97790000D02*
X142240000Y-97790000D01*
D11*
X121547858Y-86965714D02*
X121476429Y-87037143D01*
X121262143Y-87108571D01*
X121119286Y-87108571D01*
X120905001Y-87037143D01*
X120762143Y-86894286D01*
X120690715Y-86751429D01*
X120619286Y-86465714D01*
X120619286Y-86251429D01*
X120690715Y-85965714D01*
X120762143Y-85822857D01*
X120905001Y-85680000D01*
X121119286Y-85608571D01*
X121262143Y-85608571D01*
X121476429Y-85680000D01*
X121547858Y-85751429D01*
X122405001Y-87108571D02*
X122262143Y-87037143D01*
X122190715Y-86965714D01*
X122119286Y-86822857D01*
X122119286Y-86394286D01*
X122190715Y-86251429D01*
X122262143Y-86180000D01*
X122405001Y-86108571D01*
X122619286Y-86108571D01*
X122762143Y-86180000D01*
X122833572Y-86251429D01*
X122905001Y-86394286D01*
X122905001Y-86822857D01*
X122833572Y-86965714D01*
X122762143Y-87037143D01*
X122619286Y-87108571D01*
X122405001Y-87108571D01*
X123547858Y-87108571D02*
X123547858Y-86108571D01*
X123547858Y-86251429D02*
X123619286Y-86180000D01*
X123762144Y-86108571D01*
X123976429Y-86108571D01*
X124119286Y-86180000D01*
X124190715Y-86322857D01*
X124190715Y-87108571D01*
X124190715Y-86322857D02*
X124262144Y-86180000D01*
X124405001Y-86108571D01*
X124619286Y-86108571D01*
X124762144Y-86180000D01*
X124833572Y-86322857D01*
X124833572Y-87108571D01*
X125547858Y-87108571D02*
X125547858Y-86108571D01*
X125547858Y-86251429D02*
X125619286Y-86180000D01*
X125762144Y-86108571D01*
X125976429Y-86108571D01*
X126119286Y-86180000D01*
X126190715Y-86322857D01*
X126190715Y-87108571D01*
X126190715Y-86322857D02*
X126262144Y-86180000D01*
X126405001Y-86108571D01*
X126619286Y-86108571D01*
X126762144Y-86180000D01*
X126833572Y-86322857D01*
X126833572Y-87108571D01*
X127762144Y-87108571D02*
X127619286Y-87037143D01*
X127547858Y-86965714D01*
X127476429Y-86822857D01*
X127476429Y-86394286D01*
X127547858Y-86251429D01*
X127619286Y-86180000D01*
X127762144Y-86108571D01*
X127976429Y-86108571D01*
X128119286Y-86180000D01*
X128190715Y-86251429D01*
X128262144Y-86394286D01*
X128262144Y-86822857D01*
X128190715Y-86965714D01*
X128119286Y-87037143D01*
X127976429Y-87108571D01*
X127762144Y-87108571D01*
X129547858Y-87108571D02*
X129547858Y-85608571D01*
X129547858Y-87037143D02*
X129405001Y-87108571D01*
X129119287Y-87108571D01*
X128976429Y-87037143D01*
X128905001Y-86965714D01*
X128833572Y-86822857D01*
X128833572Y-86394286D01*
X128905001Y-86251429D01*
X128976429Y-86180000D01*
X129119287Y-86108571D01*
X129405001Y-86108571D01*
X129547858Y-86180000D01*
X130476430Y-87108571D02*
X130333572Y-87037143D01*
X130262144Y-86965714D01*
X130190715Y-86822857D01*
X130190715Y-86394286D01*
X130262144Y-86251429D01*
X130333572Y-86180000D01*
X130476430Y-86108571D01*
X130690715Y-86108571D01*
X130833572Y-86180000D01*
X130905001Y-86251429D01*
X130976430Y-86394286D01*
X130976430Y-86822857D01*
X130905001Y-86965714D01*
X130833572Y-87037143D01*
X130690715Y-87108571D01*
X130476430Y-87108571D01*
X131619287Y-87108571D02*
X131619287Y-86108571D01*
X131619287Y-86394286D02*
X131690715Y-86251429D01*
X131762144Y-86180000D01*
X131905001Y-86108571D01*
X132047858Y-86108571D01*
X133119286Y-87037143D02*
X132976429Y-87108571D01*
X132690715Y-87108571D01*
X132547858Y-87037143D01*
X132476429Y-86894286D01*
X132476429Y-86322857D01*
X132547858Y-86180000D01*
X132690715Y-86108571D01*
X132976429Y-86108571D01*
X133119286Y-86180000D01*
X133190715Y-86322857D01*
X133190715Y-86465714D01*
X132476429Y-86608571D01*
X135619286Y-85608571D02*
X135333572Y-85608571D01*
X135190715Y-85680000D01*
X135119286Y-85751429D01*
X134976429Y-85965714D01*
X134905000Y-86251429D01*
X134905000Y-86822857D01*
X134976429Y-86965714D01*
X135047857Y-87037143D01*
X135190715Y-87108571D01*
X135476429Y-87108571D01*
X135619286Y-87037143D01*
X135690715Y-86965714D01*
X135762143Y-86822857D01*
X135762143Y-86465714D01*
X135690715Y-86322857D01*
X135619286Y-86251429D01*
X135476429Y-86180000D01*
X135190715Y-86180000D01*
X135047857Y-86251429D01*
X134976429Y-86322857D01*
X134905000Y-86465714D01*
X137047857Y-86108571D02*
X137047857Y-87108571D01*
X136690714Y-85537143D02*
X136333571Y-86608571D01*
X137262143Y-86608571D01*
X121047858Y-89508571D02*
X121047858Y-88008571D01*
X121547858Y-89080000D01*
X122047858Y-88008571D01*
X122047858Y-89508571D01*
X122762144Y-88722857D02*
X123262144Y-88722857D01*
X123476430Y-89508571D02*
X122762144Y-89508571D01*
X122762144Y-88008571D01*
X123476430Y-88008571D01*
X124905001Y-88080000D02*
X124762144Y-88008571D01*
X124547858Y-88008571D01*
X124333573Y-88080000D01*
X124190715Y-88222857D01*
X124119287Y-88365714D01*
X124047858Y-88651429D01*
X124047858Y-88865714D01*
X124119287Y-89151429D01*
X124190715Y-89294286D01*
X124333573Y-89437143D01*
X124547858Y-89508571D01*
X124690715Y-89508571D01*
X124905001Y-89437143D01*
X124976430Y-89365714D01*
X124976430Y-88865714D01*
X124690715Y-88865714D01*
X125547858Y-89080000D02*
X126262144Y-89080000D01*
X125405001Y-89508571D02*
X125905001Y-88008571D01*
X126405001Y-89508571D01*
X127976429Y-89437143D02*
X128190715Y-89508571D01*
X128547858Y-89508571D01*
X128690715Y-89437143D01*
X128762144Y-89365714D01*
X128833572Y-89222857D01*
X128833572Y-89080000D01*
X128762144Y-88937143D01*
X128690715Y-88865714D01*
X128547858Y-88794286D01*
X128262144Y-88722857D01*
X128119286Y-88651429D01*
X128047858Y-88580000D01*
X127976429Y-88437143D01*
X127976429Y-88294286D01*
X128047858Y-88151429D01*
X128119286Y-88080000D01*
X128262144Y-88008571D01*
X128619286Y-88008571D01*
X128833572Y-88080000D01*
X129333572Y-88508571D02*
X129619286Y-89508571D01*
X129905000Y-88794286D01*
X130190715Y-89508571D01*
X130476429Y-88508571D01*
X131047858Y-89508571D02*
X131047858Y-88508571D01*
X131047858Y-88008571D02*
X130976429Y-88080000D01*
X131047858Y-88151429D01*
X131119286Y-88080000D01*
X131047858Y-88008571D01*
X131047858Y-88151429D01*
X131547858Y-88508571D02*
X132119287Y-88508571D01*
X131762144Y-88008571D02*
X131762144Y-89294286D01*
X131833572Y-89437143D01*
X131976430Y-89508571D01*
X132119287Y-89508571D01*
X133262144Y-89437143D02*
X133119287Y-89508571D01*
X132833573Y-89508571D01*
X132690715Y-89437143D01*
X132619287Y-89365714D01*
X132547858Y-89222857D01*
X132547858Y-88794286D01*
X132619287Y-88651429D01*
X132690715Y-88580000D01*
X132833573Y-88508571D01*
X133119287Y-88508571D01*
X133262144Y-88580000D01*
X133905001Y-89508571D02*
X133905001Y-88008571D01*
X134547858Y-89508571D02*
X134547858Y-88722857D01*
X134476429Y-88580000D01*
X134333572Y-88508571D01*
X134119287Y-88508571D01*
X133976429Y-88580000D01*
X133905001Y-88651429D01*
X135833572Y-89437143D02*
X135690715Y-89508571D01*
X135405001Y-89508571D01*
X135262144Y-89437143D01*
X135190715Y-89294286D01*
X135190715Y-88722857D01*
X135262144Y-88580000D01*
X135405001Y-88508571D01*
X135690715Y-88508571D01*
X135833572Y-88580000D01*
X135905001Y-88722857D01*
X135905001Y-88865714D01*
X135190715Y-89008571D01*
X136547858Y-89508571D02*
X136547858Y-88508571D01*
X136547858Y-88794286D02*
X136619286Y-88651429D01*
X136690715Y-88580000D01*
X136833572Y-88508571D01*
X136976429Y-88508571D01*
X133469333Y-107132381D02*
X133469333Y-106132381D01*
X133850286Y-106132381D01*
X133945524Y-106180000D01*
X133993143Y-106227619D01*
X134040762Y-106322857D01*
X134040762Y-106465714D01*
X133993143Y-106560952D01*
X133945524Y-106608571D01*
X133850286Y-106656190D01*
X133469333Y-106656190D01*
X134612190Y-107132381D02*
X134516952Y-107084762D01*
X134469333Y-107037143D01*
X134421714Y-106941905D01*
X134421714Y-106656190D01*
X134469333Y-106560952D01*
X134516952Y-106513333D01*
X134612190Y-106465714D01*
X134755048Y-106465714D01*
X134850286Y-106513333D01*
X134897905Y-106560952D01*
X134945524Y-106656190D01*
X134945524Y-106941905D01*
X134897905Y-107037143D01*
X134850286Y-107084762D01*
X134755048Y-107132381D01*
X134612190Y-107132381D01*
X135374095Y-107132381D02*
X135374095Y-106465714D01*
X135374095Y-106656190D02*
X135421714Y-106560952D01*
X135469333Y-106513333D01*
X135564571Y-106465714D01*
X135659810Y-106465714D01*
X135850286Y-106465714D02*
X136231238Y-106465714D01*
X135993143Y-106132381D02*
X135993143Y-106989524D01*
X136040762Y-107084762D01*
X136136000Y-107132381D01*
X136231238Y-107132381D01*
X137850287Y-107132381D02*
X137278858Y-107132381D01*
X137564572Y-107132381D02*
X137564572Y-106132381D01*
X137469334Y-106275238D01*
X137374096Y-106370476D01*
X137278858Y-106418095D01*
D13*
X112395462Y-35745000D02*
G75*
G03X110850170Y-41295000I-462J-2990000D01*
G01*
X112394538Y-35745000D02*
G75*
G02X113939830Y-41295000I462J-2990000D01*
G01*
X114895000Y-38735000D02*
G75*
G03X114895000Y-38735000I-2500000J0D01*
G01*
X110850000Y-41295000D02*
X113940000Y-41295000D01*
X112395462Y-66860000D02*
G75*
G03X110850170Y-72410000I-462J-2990000D01*
G01*
X112394538Y-66860000D02*
G75*
G02X113939830Y-72410000I462J-2990000D01*
G01*
X114895000Y-69850000D02*
G75*
G03X114895000Y-69850000I-2500000J0D01*
G01*
X110850000Y-72410000D02*
X113940000Y-72410000D01*
X95520000Y-66675000D02*
X107860000Y-66675000D01*
X107860000Y-66675000D02*
X107860000Y-97645000D01*
X107860000Y-97645000D02*
X95520000Y-97645000D01*
X95520000Y-35475000D02*
X107860000Y-35475000D01*
X107860000Y-35475000D02*
X107860000Y-66445000D01*
X107860000Y-66445000D02*
X95520000Y-66445000D01*
X100291000Y-116620000D02*
X100291000Y-104280000D01*
X100291000Y-104280000D02*
X131261000Y-104280000D01*
X131261000Y-104280000D02*
X131261000Y-116620000D01*
X134680000Y-96580000D02*
X134680000Y-93920000D01*
X132080000Y-96580000D02*
X134680000Y-96580000D01*
X132080000Y-93920000D02*
X134680000Y-93920000D01*
X132080000Y-96580000D02*
X132080000Y-93920000D01*
X130810000Y-96580000D02*
X129480000Y-96580000D01*
X129480000Y-96580000D02*
X129480000Y-95250000D01*
X135220000Y-77430000D02*
X135220000Y-80050000D01*
X135220000Y-80050000D02*
X141640000Y-80050000D01*
X141640000Y-80050000D02*
X141640000Y-77430000D01*
X141640000Y-77430000D02*
X135220000Y-77430000D01*
X134330000Y-78740000D02*
X135220000Y-78740000D01*
X142530000Y-78740000D02*
X141640000Y-78740000D01*
X135220000Y-81240000D02*
X135220000Y-83860000D01*
X135220000Y-83860000D02*
X141640000Y-83860000D01*
X141640000Y-83860000D02*
X141640000Y-81240000D01*
X141640000Y-81240000D02*
X135220000Y-81240000D01*
X134330000Y-82550000D02*
X135220000Y-82550000D01*
X142530000Y-82550000D02*
X141640000Y-82550000D01*
X120615000Y-77430000D02*
X120615000Y-80050000D01*
X120615000Y-80050000D02*
X127035000Y-80050000D01*
X127035000Y-80050000D02*
X127035000Y-77430000D01*
X127035000Y-77430000D02*
X120615000Y-77430000D01*
X119725000Y-78740000D02*
X120615000Y-78740000D01*
X127925000Y-78740000D02*
X127035000Y-78740000D01*
X120615000Y-81240000D02*
X120615000Y-83860000D01*
X120615000Y-83860000D02*
X127035000Y-83860000D01*
X127035000Y-83860000D02*
X127035000Y-81240000D01*
X127035000Y-81240000D02*
X120615000Y-81240000D01*
X119725000Y-82550000D02*
X120615000Y-82550000D01*
X127925000Y-82550000D02*
X127035000Y-82550000D01*
X138850000Y-114570000D02*
X138850000Y-110070000D01*
X134850000Y-115820000D02*
X136350000Y-115820000D01*
X132350000Y-110070000D02*
X132350000Y-114570000D01*
X136350000Y-108820000D02*
X134850000Y-108820000D01*
X146470000Y-114570000D02*
X146470000Y-110070000D01*
X142470000Y-115820000D02*
X143970000Y-115820000D01*
X139970000Y-110070000D02*
X139970000Y-114570000D01*
X143970000Y-108820000D02*
X142470000Y-108820000D01*
X124825000Y-39945000D02*
G75*
G02X122825000Y-39945000I-1000000J0D01*
G01*
X122825000Y-39945000D02*
X121175000Y-39945000D01*
X121175000Y-39945000D02*
X121175000Y-60385000D01*
X121175000Y-60385000D02*
X126475000Y-60385000D01*
X126475000Y-60385000D02*
X126475000Y-39945000D01*
X126475000Y-39945000D02*
X124825000Y-39945000D01*
X118685000Y-39885000D02*
X118685000Y-60445000D01*
X118685000Y-60445000D02*
X128965000Y-60445000D01*
X128965000Y-60445000D02*
X128965000Y-39885000D01*
X128965000Y-39885000D02*
X118685000Y-39885000D01*
X139430000Y-39945000D02*
G75*
G02X137430000Y-39945000I-1000000J0D01*
G01*
X137430000Y-39945000D02*
X135780000Y-39945000D01*
X135780000Y-39945000D02*
X135780000Y-60385000D01*
X135780000Y-60385000D02*
X141080000Y-60385000D01*
X141080000Y-60385000D02*
X141080000Y-39945000D01*
X141080000Y-39945000D02*
X139430000Y-39945000D01*
X133290000Y-39885000D02*
X133290000Y-60445000D01*
X133290000Y-60445000D02*
X143570000Y-60445000D01*
X143570000Y-60445000D02*
X143570000Y-39885000D01*
X143570000Y-39885000D02*
X133290000Y-39885000D01*
X139430000Y-65980000D02*
G75*
G02X137430000Y-65980000I-1000000J0D01*
G01*
X137430000Y-65980000D02*
X135780000Y-65980000D01*
X135780000Y-65980000D02*
X135780000Y-76260000D01*
X135780000Y-76260000D02*
X141080000Y-76260000D01*
X141080000Y-76260000D02*
X141080000Y-65980000D01*
X141080000Y-65980000D02*
X139430000Y-65980000D01*
X133290000Y-65920000D02*
X133290000Y-76320000D01*
X133290000Y-76320000D02*
X143570000Y-76320000D01*
X143570000Y-76320000D02*
X143570000Y-65920000D01*
X143570000Y-65920000D02*
X133290000Y-65920000D01*
X126275000Y-38775000D02*
X121455000Y-38775000D01*
X126275000Y-36155000D02*
X121455000Y-36155000D01*
X126275000Y-38775000D02*
X126275000Y-38461000D01*
X126275000Y-36469000D02*
X126275000Y-36155000D01*
X121455000Y-38775000D02*
X121455000Y-38461000D01*
X121455000Y-36469000D02*
X121455000Y-36155000D01*
X140880000Y-38775000D02*
X136060000Y-38775000D01*
X140880000Y-36155000D02*
X136060000Y-36155000D01*
X140880000Y-38775000D02*
X140880000Y-38461000D01*
X140880000Y-36469000D02*
X140880000Y-36155000D01*
X136060000Y-38775000D02*
X136060000Y-38461000D01*
X136060000Y-36469000D02*
X136060000Y-36155000D01*
X140880000Y-64810000D02*
X136060000Y-64810000D01*
X140880000Y-62190000D02*
X136060000Y-62190000D01*
X140880000Y-64810000D02*
X140880000Y-64496000D01*
X140880000Y-62504000D02*
X140880000Y-62190000D01*
X136060000Y-64810000D02*
X136060000Y-64496000D01*
X136060000Y-62504000D02*
X136060000Y-62190000D01*
X112398629Y-43815000D02*
X112225000Y-43815000D01*
X112268000Y-42835000D02*
X112268000Y-41946000D01*
X112268000Y-42390500D02*
X111675333Y-42835000D01*
X111675333Y-42835000D02*
X111675333Y-41946000D01*
X111675333Y-41946000D02*
X112268000Y-42390500D01*
X114931371Y-43815000D02*
G75*
G03X114931371Y-43815000I-1266371J0D01*
G01*
X112398629Y-74930000D02*
X112225000Y-74930000D01*
X112268000Y-73950000D02*
X112268000Y-73061000D01*
X112268000Y-73505500D02*
X111675333Y-73950000D01*
X111675333Y-73950000D02*
X111675333Y-73061000D01*
X111675333Y-73061000D02*
X112268000Y-73505500D01*
X114931371Y-74930000D02*
G75*
G03X114931371Y-74930000I-1266371J0D01*
G01*
X112398629Y-46990000D02*
X112225000Y-46990000D01*
X112268000Y-46010000D02*
X112268000Y-45121000D01*
X112268000Y-45565500D02*
X111675333Y-46010000D01*
X111675333Y-46010000D02*
X111675333Y-45121000D01*
X111675333Y-45121000D02*
X112268000Y-45565500D01*
X114931371Y-46990000D02*
G75*
G03X114931371Y-46990000I-1266371J0D01*
G01*
X112398629Y-78105000D02*
X112225000Y-78105000D01*
X112268000Y-77125000D02*
X112268000Y-76236000D01*
X112268000Y-76680500D02*
X111675333Y-77125000D01*
X111675333Y-77125000D02*
X111675333Y-76236000D01*
X111675333Y-76236000D02*
X112268000Y-76680500D01*
X114931371Y-78105000D02*
G75*
G03X114931371Y-78105000I-1266371J0D01*
G01*
X112398629Y-50165000D02*
X112225000Y-50165000D01*
X112268000Y-49185000D02*
X112268000Y-48296000D01*
X112268000Y-48740500D02*
X111675333Y-49185000D01*
X111675333Y-49185000D02*
X111675333Y-48296000D01*
X111675333Y-48296000D02*
X112268000Y-48740500D01*
X114931371Y-50165000D02*
G75*
G03X114931371Y-50165000I-1266371J0D01*
G01*
X112398629Y-81280000D02*
X112225000Y-81280000D01*
X112268000Y-80300000D02*
X112268000Y-79411000D01*
X112268000Y-79855500D02*
X111675333Y-80300000D01*
X111675333Y-80300000D02*
X111675333Y-79411000D01*
X111675333Y-79411000D02*
X112268000Y-79855500D01*
X114931371Y-81280000D02*
G75*
G03X114931371Y-81280000I-1266371J0D01*
G01*
X112398629Y-53340000D02*
X112225000Y-53340000D01*
X112268000Y-52360000D02*
X112268000Y-51471000D01*
X112268000Y-51915500D02*
X111675333Y-52360000D01*
X111675333Y-52360000D02*
X111675333Y-51471000D01*
X111675333Y-51471000D02*
X112268000Y-51915500D01*
X114931371Y-53340000D02*
G75*
G03X114931371Y-53340000I-1266371J0D01*
G01*
X112398629Y-84455000D02*
X112225000Y-84455000D01*
X112268000Y-83475000D02*
X112268000Y-82586000D01*
X112268000Y-83030500D02*
X111675333Y-83475000D01*
X111675333Y-83475000D02*
X111675333Y-82586000D01*
X111675333Y-82586000D02*
X112268000Y-83030500D01*
X114931371Y-84455000D02*
G75*
G03X114931371Y-84455000I-1266371J0D01*
G01*
X112398629Y-56515000D02*
X112225000Y-56515000D01*
X112268000Y-55535000D02*
X112268000Y-54646000D01*
X112268000Y-55090500D02*
X111675333Y-55535000D01*
X111675333Y-55535000D02*
X111675333Y-54646000D01*
X111675333Y-54646000D02*
X112268000Y-55090500D01*
X114931371Y-56515000D02*
G75*
G03X114931371Y-56515000I-1266371J0D01*
G01*
X112398629Y-87630000D02*
X112225000Y-87630000D01*
X112268000Y-86650000D02*
X112268000Y-85761000D01*
X112268000Y-86205500D02*
X111675333Y-86650000D01*
X111675333Y-86650000D02*
X111675333Y-85761000D01*
X111675333Y-85761000D02*
X112268000Y-86205500D01*
X114931371Y-87630000D02*
G75*
G03X114931371Y-87630000I-1266371J0D01*
G01*
X114245000Y-64030000D02*
X114245000Y-60430000D01*
X113517795Y-64554184D02*
G75*
G03X114245000Y-64030000I-1122795J2324184D01*
G01*
X111296193Y-64586400D02*
G75*
G02X109795000Y-62230000I1098807J2356400D01*
G01*
X111296193Y-59873600D02*
G75*
G03X109795000Y-62230000I1098807J-2356400D01*
G01*
X113517795Y-59905816D02*
G75*
G02X114245000Y-60430000I-1122795J-2324184D01*
G01*
X120615000Y-66000000D02*
X120615000Y-68620000D01*
X120615000Y-68620000D02*
X127035000Y-68620000D01*
X127035000Y-68620000D02*
X127035000Y-66000000D01*
X127035000Y-66000000D02*
X120615000Y-66000000D01*
X119725000Y-67310000D02*
X120615000Y-67310000D01*
X127925000Y-67310000D02*
X127035000Y-67310000D01*
X120615000Y-69810000D02*
X120615000Y-72430000D01*
X120615000Y-72430000D02*
X127035000Y-72430000D01*
X127035000Y-72430000D02*
X127035000Y-69810000D01*
X127035000Y-69810000D02*
X120615000Y-69810000D01*
X119725000Y-71120000D02*
X120615000Y-71120000D01*
X127925000Y-71120000D02*
X127035000Y-71120000D01*
X120615000Y-73620000D02*
X120615000Y-76240000D01*
X120615000Y-76240000D02*
X127035000Y-76240000D01*
X127035000Y-76240000D02*
X127035000Y-73620000D01*
X127035000Y-73620000D02*
X120615000Y-73620000D01*
X119725000Y-74930000D02*
X120615000Y-74930000D01*
X127925000Y-74930000D02*
X127035000Y-74930000D01*
X121225000Y-101660000D02*
X126425000Y-101660000D01*
X121225000Y-96520000D02*
X121225000Y-101660000D01*
X126425000Y-93920000D02*
X126425000Y-101660000D01*
X121225000Y-96520000D02*
X123825000Y-96520000D01*
X123825000Y-96520000D02*
X123825000Y-93920000D01*
X123825000Y-93920000D02*
X126425000Y-93920000D01*
X121225000Y-95250000D02*
X121225000Y-93920000D01*
X121225000Y-93920000D02*
X122555000Y-93920000D01*
X112970000Y-101660000D02*
X118170000Y-101660000D01*
X112970000Y-96520000D02*
X112970000Y-101660000D01*
X118170000Y-93920000D02*
X118170000Y-101660000D01*
X112970000Y-96520000D02*
X115570000Y-96520000D01*
X115570000Y-96520000D02*
X115570000Y-93920000D01*
X115570000Y-93920000D02*
X118170000Y-93920000D01*
X112970000Y-95250000D02*
X112970000Y-93920000D01*
X112970000Y-93920000D02*
X114300000Y-93920000D01*
D11*
X100147381Y-89796667D02*
X99147381Y-89796667D01*
X99147381Y-89415714D01*
X99195000Y-89320476D01*
X99242619Y-89272857D01*
X99337857Y-89225238D01*
X99480714Y-89225238D01*
X99575952Y-89272857D01*
X99623571Y-89320476D01*
X99671190Y-89415714D01*
X99671190Y-89796667D01*
X100147381Y-88653810D02*
X100099762Y-88749048D01*
X100052143Y-88796667D01*
X99956905Y-88844286D01*
X99671190Y-88844286D01*
X99575952Y-88796667D01*
X99528333Y-88749048D01*
X99480714Y-88653810D01*
X99480714Y-88510952D01*
X99528333Y-88415714D01*
X99575952Y-88368095D01*
X99671190Y-88320476D01*
X99956905Y-88320476D01*
X100052143Y-88368095D01*
X100099762Y-88415714D01*
X100147381Y-88510952D01*
X100147381Y-88653810D01*
X100147381Y-87891905D02*
X99480714Y-87891905D01*
X99671190Y-87891905D02*
X99575952Y-87844286D01*
X99528333Y-87796667D01*
X99480714Y-87701429D01*
X99480714Y-87606190D01*
X99480714Y-87415714D02*
X99480714Y-87034762D01*
X99147381Y-87272857D02*
X100004524Y-87272857D01*
X100099762Y-87225238D01*
X100147381Y-87130000D01*
X100147381Y-87034762D01*
X100147381Y-85415713D02*
X100147381Y-85987142D01*
X100147381Y-85701428D02*
X99147381Y-85701428D01*
X99290238Y-85796666D01*
X99385476Y-85891904D01*
X99433095Y-85987142D01*
X100147381Y-58681667D02*
X99147381Y-58681667D01*
X99147381Y-58300714D01*
X99195000Y-58205476D01*
X99242619Y-58157857D01*
X99337857Y-58110238D01*
X99480714Y-58110238D01*
X99575952Y-58157857D01*
X99623571Y-58205476D01*
X99671190Y-58300714D01*
X99671190Y-58681667D01*
X100147381Y-57538810D02*
X100099762Y-57634048D01*
X100052143Y-57681667D01*
X99956905Y-57729286D01*
X99671190Y-57729286D01*
X99575952Y-57681667D01*
X99528333Y-57634048D01*
X99480714Y-57538810D01*
X99480714Y-57395952D01*
X99528333Y-57300714D01*
X99575952Y-57253095D01*
X99671190Y-57205476D01*
X99956905Y-57205476D01*
X100052143Y-57253095D01*
X100099762Y-57300714D01*
X100147381Y-57395952D01*
X100147381Y-57538810D01*
X100147381Y-56776905D02*
X99480714Y-56776905D01*
X99671190Y-56776905D02*
X99575952Y-56729286D01*
X99528333Y-56681667D01*
X99480714Y-56586429D01*
X99480714Y-56491190D01*
X99480714Y-56300714D02*
X99480714Y-55919762D01*
X99147381Y-56157857D02*
X100004524Y-56157857D01*
X100099762Y-56110238D01*
X100147381Y-56015000D01*
X100147381Y-55919762D01*
X99242619Y-54872142D02*
X99195000Y-54824523D01*
X99147381Y-54729285D01*
X99147381Y-54491189D01*
X99195000Y-54395951D01*
X99242619Y-54348332D01*
X99337857Y-54300713D01*
X99433095Y-54300713D01*
X99575952Y-54348332D01*
X100147381Y-54919761D01*
X100147381Y-54300713D01*
X137104381Y-78652666D02*
X136628190Y-78986000D01*
X137104381Y-79224095D02*
X136104381Y-79224095D01*
X136104381Y-78843142D01*
X136152000Y-78747904D01*
X136199619Y-78700285D01*
X136294857Y-78652666D01*
X136437714Y-78652666D01*
X136532952Y-78700285D01*
X136580571Y-78747904D01*
X136628190Y-78843142D01*
X136628190Y-79224095D01*
X137104381Y-77700285D02*
X137104381Y-78271714D01*
X137104381Y-77986000D02*
X136104381Y-77986000D01*
X136247238Y-78081238D01*
X136342476Y-78176476D01*
X136390095Y-78271714D01*
X139104762Y-79192381D02*
X138533333Y-79192381D01*
X138819047Y-79192381D02*
X138819047Y-78192381D01*
X138723809Y-78335238D01*
X138628571Y-78430476D01*
X138533333Y-78478095D01*
X139723809Y-78192381D02*
X139819048Y-78192381D01*
X139914286Y-78240000D01*
X139961905Y-78287619D01*
X140009524Y-78382857D01*
X140057143Y-78573333D01*
X140057143Y-78811429D01*
X140009524Y-79001905D01*
X139961905Y-79097143D01*
X139914286Y-79144762D01*
X139819048Y-79192381D01*
X139723809Y-79192381D01*
X139628571Y-79144762D01*
X139580952Y-79097143D01*
X139533333Y-79001905D01*
X139485714Y-78811429D01*
X139485714Y-78573333D01*
X139533333Y-78382857D01*
X139580952Y-78287619D01*
X139628571Y-78240000D01*
X139723809Y-78192381D01*
X140485714Y-79192381D02*
X140485714Y-78192381D01*
X140580952Y-78811429D02*
X140866667Y-79192381D01*
X140866667Y-78525714D02*
X140485714Y-78906667D01*
X137104381Y-82716666D02*
X136628190Y-83050000D01*
X137104381Y-83288095D02*
X136104381Y-83288095D01*
X136104381Y-82907142D01*
X136152000Y-82811904D01*
X136199619Y-82764285D01*
X136294857Y-82716666D01*
X136437714Y-82716666D01*
X136532952Y-82764285D01*
X136580571Y-82811904D01*
X136628190Y-82907142D01*
X136628190Y-83288095D01*
X136199619Y-82335714D02*
X136152000Y-82288095D01*
X136104381Y-82192857D01*
X136104381Y-81954761D01*
X136152000Y-81859523D01*
X136199619Y-81811904D01*
X136294857Y-81764285D01*
X136390095Y-81764285D01*
X136532952Y-81811904D01*
X137104381Y-82383333D01*
X137104381Y-81764285D01*
X139104762Y-83002381D02*
X138533333Y-83002381D01*
X138819047Y-83002381D02*
X138819047Y-82002381D01*
X138723809Y-82145238D01*
X138628571Y-82240476D01*
X138533333Y-82288095D01*
X139723809Y-82002381D02*
X139819048Y-82002381D01*
X139914286Y-82050000D01*
X139961905Y-82097619D01*
X140009524Y-82192857D01*
X140057143Y-82383333D01*
X140057143Y-82621429D01*
X140009524Y-82811905D01*
X139961905Y-82907143D01*
X139914286Y-82954762D01*
X139819048Y-83002381D01*
X139723809Y-83002381D01*
X139628571Y-82954762D01*
X139580952Y-82907143D01*
X139533333Y-82811905D01*
X139485714Y-82621429D01*
X139485714Y-82383333D01*
X139533333Y-82192857D01*
X139580952Y-82097619D01*
X139628571Y-82050000D01*
X139723809Y-82002381D01*
X140485714Y-83002381D02*
X140485714Y-82002381D01*
X140580952Y-82621429D02*
X140866667Y-83002381D01*
X140866667Y-82335714D02*
X140485714Y-82716667D01*
X122245381Y-78906666D02*
X121769190Y-79240000D01*
X122245381Y-79478095D02*
X121245381Y-79478095D01*
X121245381Y-79097142D01*
X121293000Y-79001904D01*
X121340619Y-78954285D01*
X121435857Y-78906666D01*
X121578714Y-78906666D01*
X121673952Y-78954285D01*
X121721571Y-79001904D01*
X121769190Y-79097142D01*
X121769190Y-79478095D01*
X121245381Y-78573333D02*
X121245381Y-77954285D01*
X121626333Y-78287619D01*
X121626333Y-78144761D01*
X121673952Y-78049523D01*
X121721571Y-78001904D01*
X121816810Y-77954285D01*
X122054905Y-77954285D01*
X122150143Y-78001904D01*
X122197762Y-78049523D01*
X122245381Y-78144761D01*
X122245381Y-78430476D01*
X122197762Y-78525714D01*
X122150143Y-78573333D01*
X123856905Y-78287619D02*
X123904524Y-78240000D01*
X123999762Y-78192381D01*
X124237858Y-78192381D01*
X124333096Y-78240000D01*
X124380715Y-78287619D01*
X124428334Y-78382857D01*
X124428334Y-78478095D01*
X124380715Y-78620952D01*
X123809286Y-79192381D01*
X124428334Y-79192381D01*
X124809286Y-78287619D02*
X124856905Y-78240000D01*
X124952143Y-78192381D01*
X125190239Y-78192381D01*
X125285477Y-78240000D01*
X125333096Y-78287619D01*
X125380715Y-78382857D01*
X125380715Y-78478095D01*
X125333096Y-78620952D01*
X124761667Y-79192381D01*
X125380715Y-79192381D01*
X125999762Y-78192381D02*
X126095001Y-78192381D01*
X126190239Y-78240000D01*
X126237858Y-78287619D01*
X126285477Y-78382857D01*
X126333096Y-78573333D01*
X126333096Y-78811429D01*
X126285477Y-79001905D01*
X126237858Y-79097143D01*
X126190239Y-79144762D01*
X126095001Y-79192381D01*
X125999762Y-79192381D01*
X125904524Y-79144762D01*
X125856905Y-79097143D01*
X125809286Y-79001905D01*
X125761667Y-78811429D01*
X125761667Y-78573333D01*
X125809286Y-78382857D01*
X125856905Y-78287619D01*
X125904524Y-78240000D01*
X125999762Y-78192381D01*
X122245381Y-82716666D02*
X121769190Y-83050000D01*
X122245381Y-83288095D02*
X121245381Y-83288095D01*
X121245381Y-82907142D01*
X121293000Y-82811904D01*
X121340619Y-82764285D01*
X121435857Y-82716666D01*
X121578714Y-82716666D01*
X121673952Y-82764285D01*
X121721571Y-82811904D01*
X121769190Y-82907142D01*
X121769190Y-83288095D01*
X121578714Y-81859523D02*
X122245381Y-81859523D01*
X121197762Y-82097619D02*
X121912048Y-82335714D01*
X121912048Y-81716666D01*
X123856905Y-82097619D02*
X123904524Y-82050000D01*
X123999762Y-82002381D01*
X124237858Y-82002381D01*
X124333096Y-82050000D01*
X124380715Y-82097619D01*
X124428334Y-82192857D01*
X124428334Y-82288095D01*
X124380715Y-82430952D01*
X123809286Y-83002381D01*
X124428334Y-83002381D01*
X124809286Y-82097619D02*
X124856905Y-82050000D01*
X124952143Y-82002381D01*
X125190239Y-82002381D01*
X125285477Y-82050000D01*
X125333096Y-82097619D01*
X125380715Y-82192857D01*
X125380715Y-82288095D01*
X125333096Y-82430952D01*
X124761667Y-83002381D01*
X125380715Y-83002381D01*
X125999762Y-82002381D02*
X126095001Y-82002381D01*
X126190239Y-82050000D01*
X126237858Y-82097619D01*
X126285477Y-82192857D01*
X126333096Y-82383333D01*
X126333096Y-82621429D01*
X126285477Y-82811905D01*
X126237858Y-82907143D01*
X126190239Y-82954762D01*
X126095001Y-83002381D01*
X125999762Y-83002381D01*
X125904524Y-82954762D01*
X125856905Y-82907143D01*
X125809286Y-82811905D01*
X125761667Y-82621429D01*
X125761667Y-82383333D01*
X125809286Y-82192857D01*
X125856905Y-82097619D01*
X125904524Y-82050000D01*
X125999762Y-82002381D01*
X123063095Y-43267381D02*
X123063095Y-44076905D01*
X123110714Y-44172143D01*
X123158333Y-44219762D01*
X123253571Y-44267381D01*
X123444048Y-44267381D01*
X123539286Y-44219762D01*
X123586905Y-44172143D01*
X123634524Y-44076905D01*
X123634524Y-43267381D01*
X124634524Y-44267381D02*
X124063095Y-44267381D01*
X124348809Y-44267381D02*
X124348809Y-43267381D01*
X124253571Y-43410238D01*
X124158333Y-43505476D01*
X124063095Y-43553095D01*
X123277381Y-54284048D02*
X123277381Y-53617381D01*
X124277381Y-54045953D01*
X123610714Y-52807857D02*
X124277381Y-52807857D01*
X123229762Y-53045953D02*
X123944048Y-53284048D01*
X123944048Y-52665000D01*
X124277381Y-52284048D02*
X123277381Y-52284048D01*
X123753571Y-52284048D02*
X123753571Y-51712619D01*
X124277381Y-51712619D02*
X123277381Y-51712619D01*
X124182143Y-50665000D02*
X124229762Y-50712619D01*
X124277381Y-50855476D01*
X124277381Y-50950714D01*
X124229762Y-51093572D01*
X124134524Y-51188810D01*
X124039286Y-51236429D01*
X123848810Y-51284048D01*
X123705952Y-51284048D01*
X123515476Y-51236429D01*
X123420238Y-51188810D01*
X123325000Y-51093572D01*
X123277381Y-50950714D01*
X123277381Y-50855476D01*
X123325000Y-50712619D01*
X123372619Y-50665000D01*
X123277381Y-50379286D02*
X123277381Y-49807857D01*
X124277381Y-50093572D02*
X123277381Y-50093572D01*
X123610714Y-49045952D02*
X124277381Y-49045952D01*
X123229762Y-49284048D02*
X123944048Y-49522143D01*
X123944048Y-48903095D01*
X123277381Y-48331667D02*
X123277381Y-48236428D01*
X123325000Y-48141190D01*
X123372619Y-48093571D01*
X123467857Y-48045952D01*
X123658333Y-47998333D01*
X123896429Y-47998333D01*
X124086905Y-48045952D01*
X124182143Y-48093571D01*
X124229762Y-48141190D01*
X124277381Y-48236428D01*
X124277381Y-48331667D01*
X124229762Y-48426905D01*
X124182143Y-48474524D01*
X124086905Y-48522143D01*
X123896429Y-48569762D01*
X123658333Y-48569762D01*
X123467857Y-48522143D01*
X123372619Y-48474524D01*
X123325000Y-48426905D01*
X123277381Y-48331667D01*
X123277381Y-47093571D02*
X123277381Y-47569762D01*
X123753571Y-47617381D01*
X123705952Y-47569762D01*
X123658333Y-47474524D01*
X123658333Y-47236428D01*
X123705952Y-47141190D01*
X123753571Y-47093571D01*
X123848810Y-47045952D01*
X124086905Y-47045952D01*
X124182143Y-47093571D01*
X124229762Y-47141190D01*
X124277381Y-47236428D01*
X124277381Y-47474524D01*
X124229762Y-47569762D01*
X124182143Y-47617381D01*
X123277381Y-46712619D02*
X123277381Y-46093571D01*
X123658333Y-46426905D01*
X123658333Y-46284047D01*
X123705952Y-46188809D01*
X123753571Y-46141190D01*
X123848810Y-46093571D01*
X124086905Y-46093571D01*
X124182143Y-46141190D01*
X124229762Y-46188809D01*
X124277381Y-46284047D01*
X124277381Y-46569762D01*
X124229762Y-46665000D01*
X124182143Y-46712619D01*
X137668095Y-43267381D02*
X137668095Y-44076905D01*
X137715714Y-44172143D01*
X137763333Y-44219762D01*
X137858571Y-44267381D01*
X138049048Y-44267381D01*
X138144286Y-44219762D01*
X138191905Y-44172143D01*
X138239524Y-44076905D01*
X138239524Y-43267381D01*
X138668095Y-43362619D02*
X138715714Y-43315000D01*
X138810952Y-43267381D01*
X139049048Y-43267381D01*
X139144286Y-43315000D01*
X139191905Y-43362619D01*
X139239524Y-43457857D01*
X139239524Y-43553095D01*
X139191905Y-43695952D01*
X138620476Y-44267381D01*
X139239524Y-44267381D01*
X137882381Y-54284048D02*
X137882381Y-53617381D01*
X138882381Y-54045953D01*
X138215714Y-52807857D02*
X138882381Y-52807857D01*
X137834762Y-53045953D02*
X138549048Y-53284048D01*
X138549048Y-52665000D01*
X138882381Y-52284048D02*
X137882381Y-52284048D01*
X138358571Y-52284048D02*
X138358571Y-51712619D01*
X138882381Y-51712619D02*
X137882381Y-51712619D01*
X138787143Y-50665000D02*
X138834762Y-50712619D01*
X138882381Y-50855476D01*
X138882381Y-50950714D01*
X138834762Y-51093572D01*
X138739524Y-51188810D01*
X138644286Y-51236429D01*
X138453810Y-51284048D01*
X138310952Y-51284048D01*
X138120476Y-51236429D01*
X138025238Y-51188810D01*
X137930000Y-51093572D01*
X137882381Y-50950714D01*
X137882381Y-50855476D01*
X137930000Y-50712619D01*
X137977619Y-50665000D01*
X137882381Y-50379286D02*
X137882381Y-49807857D01*
X138882381Y-50093572D02*
X137882381Y-50093572D01*
X138215714Y-49045952D02*
X138882381Y-49045952D01*
X137834762Y-49284048D02*
X138549048Y-49522143D01*
X138549048Y-48903095D01*
X137882381Y-48331667D02*
X137882381Y-48236428D01*
X137930000Y-48141190D01*
X137977619Y-48093571D01*
X138072857Y-48045952D01*
X138263333Y-47998333D01*
X138501429Y-47998333D01*
X138691905Y-48045952D01*
X138787143Y-48093571D01*
X138834762Y-48141190D01*
X138882381Y-48236428D01*
X138882381Y-48331667D01*
X138834762Y-48426905D01*
X138787143Y-48474524D01*
X138691905Y-48522143D01*
X138501429Y-48569762D01*
X138263333Y-48569762D01*
X138072857Y-48522143D01*
X137977619Y-48474524D01*
X137930000Y-48426905D01*
X137882381Y-48331667D01*
X137882381Y-47093571D02*
X137882381Y-47569762D01*
X138358571Y-47617381D01*
X138310952Y-47569762D01*
X138263333Y-47474524D01*
X138263333Y-47236428D01*
X138310952Y-47141190D01*
X138358571Y-47093571D01*
X138453810Y-47045952D01*
X138691905Y-47045952D01*
X138787143Y-47093571D01*
X138834762Y-47141190D01*
X138882381Y-47236428D01*
X138882381Y-47474524D01*
X138834762Y-47569762D01*
X138787143Y-47617381D01*
X137882381Y-46712619D02*
X137882381Y-46093571D01*
X138263333Y-46426905D01*
X138263333Y-46284047D01*
X138310952Y-46188809D01*
X138358571Y-46141190D01*
X138453810Y-46093571D01*
X138691905Y-46093571D01*
X138787143Y-46141190D01*
X138834762Y-46188809D01*
X138882381Y-46284047D01*
X138882381Y-46569762D01*
X138834762Y-46665000D01*
X138787143Y-46712619D01*
X137668095Y-69302381D02*
X137668095Y-70111905D01*
X137715714Y-70207143D01*
X137763333Y-70254762D01*
X137858571Y-70302381D01*
X138049048Y-70302381D01*
X138144286Y-70254762D01*
X138191905Y-70207143D01*
X138239524Y-70111905D01*
X138239524Y-69302381D01*
X138620476Y-69302381D02*
X139239524Y-69302381D01*
X138906190Y-69683333D01*
X139049048Y-69683333D01*
X139144286Y-69730952D01*
X139191905Y-69778571D01*
X139239524Y-69873810D01*
X139239524Y-70111905D01*
X139191905Y-70207143D01*
X139144286Y-70254762D01*
X139049048Y-70302381D01*
X138763333Y-70302381D01*
X138668095Y-70254762D01*
X138620476Y-70207143D01*
X136263333Y-72842381D02*
X136263333Y-71842381D01*
X136834762Y-72842381D01*
X136834762Y-71842381D01*
X137310952Y-72318571D02*
X137644286Y-72318571D01*
X137787143Y-72842381D02*
X137310952Y-72842381D01*
X137310952Y-71842381D01*
X137787143Y-71842381D01*
X138691905Y-71842381D02*
X138215714Y-71842381D01*
X138168095Y-72318571D01*
X138215714Y-72270952D01*
X138310952Y-72223333D01*
X138549048Y-72223333D01*
X138644286Y-72270952D01*
X138691905Y-72318571D01*
X138739524Y-72413810D01*
X138739524Y-72651905D01*
X138691905Y-72747143D01*
X138644286Y-72794762D01*
X138549048Y-72842381D01*
X138310952Y-72842381D01*
X138215714Y-72794762D01*
X138168095Y-72747143D01*
X139644286Y-71842381D02*
X139168095Y-71842381D01*
X139120476Y-72318571D01*
X139168095Y-72270952D01*
X139263333Y-72223333D01*
X139501429Y-72223333D01*
X139596667Y-72270952D01*
X139644286Y-72318571D01*
X139691905Y-72413810D01*
X139691905Y-72651905D01*
X139644286Y-72747143D01*
X139596667Y-72794762D01*
X139501429Y-72842381D01*
X139263333Y-72842381D01*
X139168095Y-72794762D01*
X139120476Y-72747143D01*
X140596667Y-71842381D02*
X140120476Y-71842381D01*
X140072857Y-72318571D01*
X140120476Y-72270952D01*
X140215714Y-72223333D01*
X140453810Y-72223333D01*
X140549048Y-72270952D01*
X140596667Y-72318571D01*
X140644286Y-72413810D01*
X140644286Y-72651905D01*
X140596667Y-72747143D01*
X140549048Y-72794762D01*
X140453810Y-72842381D01*
X140215714Y-72842381D01*
X140120476Y-72794762D01*
X140072857Y-72747143D01*
X123658334Y-37822143D02*
X123610715Y-37869762D01*
X123467858Y-37917381D01*
X123372620Y-37917381D01*
X123229762Y-37869762D01*
X123134524Y-37774524D01*
X123086905Y-37679286D01*
X123039286Y-37488810D01*
X123039286Y-37345952D01*
X123086905Y-37155476D01*
X123134524Y-37060238D01*
X123229762Y-36965000D01*
X123372620Y-36917381D01*
X123467858Y-36917381D01*
X123610715Y-36965000D01*
X123658334Y-37012619D01*
X124610715Y-37917381D02*
X124039286Y-37917381D01*
X124325000Y-37917381D02*
X124325000Y-36917381D01*
X124229762Y-37060238D01*
X124134524Y-37155476D01*
X124039286Y-37203095D01*
X138263334Y-37822143D02*
X138215715Y-37869762D01*
X138072858Y-37917381D01*
X137977620Y-37917381D01*
X137834762Y-37869762D01*
X137739524Y-37774524D01*
X137691905Y-37679286D01*
X137644286Y-37488810D01*
X137644286Y-37345952D01*
X137691905Y-37155476D01*
X137739524Y-37060238D01*
X137834762Y-36965000D01*
X137977620Y-36917381D01*
X138072858Y-36917381D01*
X138215715Y-36965000D01*
X138263334Y-37012619D01*
X138644286Y-37012619D02*
X138691905Y-36965000D01*
X138787143Y-36917381D01*
X139025239Y-36917381D01*
X139120477Y-36965000D01*
X139168096Y-37012619D01*
X139215715Y-37107857D01*
X139215715Y-37203095D01*
X139168096Y-37345952D01*
X138596667Y-37917381D01*
X139215715Y-37917381D01*
X138263334Y-63857143D02*
X138215715Y-63904762D01*
X138072858Y-63952381D01*
X137977620Y-63952381D01*
X137834762Y-63904762D01*
X137739524Y-63809524D01*
X137691905Y-63714286D01*
X137644286Y-63523810D01*
X137644286Y-63380952D01*
X137691905Y-63190476D01*
X137739524Y-63095238D01*
X137834762Y-63000000D01*
X137977620Y-62952381D01*
X138072858Y-62952381D01*
X138215715Y-63000000D01*
X138263334Y-63047619D01*
X138596667Y-62952381D02*
X139215715Y-62952381D01*
X138882381Y-63333333D01*
X139025239Y-63333333D01*
X139120477Y-63380952D01*
X139168096Y-63428571D01*
X139215715Y-63523810D01*
X139215715Y-63761905D01*
X139168096Y-63857143D01*
X139120477Y-63904762D01*
X139025239Y-63952381D01*
X138739524Y-63952381D01*
X138644286Y-63904762D01*
X138596667Y-63857143D01*
X122372381Y-67476666D02*
X121896190Y-67810000D01*
X122372381Y-68048095D02*
X121372381Y-68048095D01*
X121372381Y-67667142D01*
X121420000Y-67571904D01*
X121467619Y-67524285D01*
X121562857Y-67476666D01*
X121705714Y-67476666D01*
X121800952Y-67524285D01*
X121848571Y-67571904D01*
X121896190Y-67667142D01*
X121896190Y-68048095D01*
X121372381Y-66571904D02*
X121372381Y-67048095D01*
X121848571Y-67095714D01*
X121800952Y-67048095D01*
X121753333Y-66952857D01*
X121753333Y-66714761D01*
X121800952Y-66619523D01*
X121848571Y-66571904D01*
X121943810Y-66524285D01*
X122181905Y-66524285D01*
X122277143Y-66571904D01*
X122324762Y-66619523D01*
X122372381Y-66714761D01*
X122372381Y-66952857D01*
X122324762Y-67048095D01*
X122277143Y-67095714D01*
X123928333Y-66857619D02*
X123975952Y-66810000D01*
X124071190Y-66762381D01*
X124309286Y-66762381D01*
X124404524Y-66810000D01*
X124452143Y-66857619D01*
X124499762Y-66952857D01*
X124499762Y-67048095D01*
X124452143Y-67190952D01*
X123880714Y-67762381D01*
X124499762Y-67762381D01*
X124928333Y-67762381D02*
X124928333Y-66762381D01*
X125023571Y-67381429D02*
X125309286Y-67762381D01*
X125309286Y-67095714D02*
X124928333Y-67476667D01*
X125690238Y-66857619D02*
X125737857Y-66810000D01*
X125833095Y-66762381D01*
X126071191Y-66762381D01*
X126166429Y-66810000D01*
X126214048Y-66857619D01*
X126261667Y-66952857D01*
X126261667Y-67048095D01*
X126214048Y-67190952D01*
X125642619Y-67762381D01*
X126261667Y-67762381D01*
X122372381Y-71286666D02*
X121896190Y-71620000D01*
X122372381Y-71858095D02*
X121372381Y-71858095D01*
X121372381Y-71477142D01*
X121420000Y-71381904D01*
X121467619Y-71334285D01*
X121562857Y-71286666D01*
X121705714Y-71286666D01*
X121800952Y-71334285D01*
X121848571Y-71381904D01*
X121896190Y-71477142D01*
X121896190Y-71858095D01*
X121372381Y-70429523D02*
X121372381Y-70620000D01*
X121420000Y-70715238D01*
X121467619Y-70762857D01*
X121610476Y-70858095D01*
X121800952Y-70905714D01*
X122181905Y-70905714D01*
X122277143Y-70858095D01*
X122324762Y-70810476D01*
X122372381Y-70715238D01*
X122372381Y-70524761D01*
X122324762Y-70429523D01*
X122277143Y-70381904D01*
X122181905Y-70334285D01*
X121943810Y-70334285D01*
X121848571Y-70381904D01*
X121800952Y-70429523D01*
X121753333Y-70524761D01*
X121753333Y-70715238D01*
X121800952Y-70810476D01*
X121848571Y-70858095D01*
X121943810Y-70905714D01*
X124023572Y-71572381D02*
X123452143Y-71572381D01*
X123737857Y-71572381D02*
X123737857Y-70572381D01*
X123642619Y-70715238D01*
X123547381Y-70810476D01*
X123452143Y-70858095D01*
X124642619Y-70572381D02*
X124737858Y-70572381D01*
X124833096Y-70620000D01*
X124880715Y-70667619D01*
X124928334Y-70762857D01*
X124975953Y-70953333D01*
X124975953Y-71191429D01*
X124928334Y-71381905D01*
X124880715Y-71477143D01*
X124833096Y-71524762D01*
X124737858Y-71572381D01*
X124642619Y-71572381D01*
X124547381Y-71524762D01*
X124499762Y-71477143D01*
X124452143Y-71381905D01*
X124404524Y-71191429D01*
X124404524Y-70953333D01*
X124452143Y-70762857D01*
X124499762Y-70667619D01*
X124547381Y-70620000D01*
X124642619Y-70572381D01*
X125595000Y-70572381D02*
X125690239Y-70572381D01*
X125785477Y-70620000D01*
X125833096Y-70667619D01*
X125880715Y-70762857D01*
X125928334Y-70953333D01*
X125928334Y-71191429D01*
X125880715Y-71381905D01*
X125833096Y-71477143D01*
X125785477Y-71524762D01*
X125690239Y-71572381D01*
X125595000Y-71572381D01*
X125499762Y-71524762D01*
X125452143Y-71477143D01*
X125404524Y-71381905D01*
X125356905Y-71191429D01*
X125356905Y-70953333D01*
X125404524Y-70762857D01*
X125452143Y-70667619D01*
X125499762Y-70620000D01*
X125595000Y-70572381D01*
X126356905Y-71572381D02*
X126356905Y-70572381D01*
X126452143Y-71191429D02*
X126737858Y-71572381D01*
X126737858Y-70905714D02*
X126356905Y-71286667D01*
X122372381Y-75096666D02*
X121896190Y-75430000D01*
X122372381Y-75668095D02*
X121372381Y-75668095D01*
X121372381Y-75287142D01*
X121420000Y-75191904D01*
X121467619Y-75144285D01*
X121562857Y-75096666D01*
X121705714Y-75096666D01*
X121800952Y-75144285D01*
X121848571Y-75191904D01*
X121896190Y-75287142D01*
X121896190Y-75668095D01*
X121372381Y-74763333D02*
X121372381Y-74096666D01*
X122372381Y-74525238D01*
X123928333Y-74477619D02*
X123975952Y-74430000D01*
X124071190Y-74382381D01*
X124309286Y-74382381D01*
X124404524Y-74430000D01*
X124452143Y-74477619D01*
X124499762Y-74572857D01*
X124499762Y-74668095D01*
X124452143Y-74810952D01*
X123880714Y-75382381D01*
X124499762Y-75382381D01*
X124928333Y-75382381D02*
X124928333Y-74382381D01*
X125023571Y-75001429D02*
X125309286Y-75382381D01*
X125309286Y-74715714D02*
X124928333Y-75096667D01*
X125690238Y-74477619D02*
X125737857Y-74430000D01*
X125833095Y-74382381D01*
X126071191Y-74382381D01*
X126166429Y-74430000D01*
X126214048Y-74477619D01*
X126261667Y-74572857D01*
X126261667Y-74668095D01*
X126214048Y-74810952D01*
X125642619Y-75382381D01*
X126261667Y-75382381D01*
M02*
