G04 #@! TF.FileFunction,Legend,Bot*
%FSLAX46Y46*%
G04 Gerber Fmt 4.6, Leading zero omitted, Abs format (unit mm)*
G04 Created by KiCad (PCBNEW 4.0.7) date 07/30/19 23:57:16*
%MOMM*%
%LPD*%
G01*
G04 APERTURE LIST*
%ADD10C,0.100000*%
%ADD11C,0.150000*%
%ADD12C,0.200000*%
G04 APERTURE END LIST*
D10*
D11*
X137674999Y-37718571D02*
X138389285Y-37718571D01*
X138389285Y-36218571D01*
X137174999Y-37718571D02*
X137174999Y-36718571D01*
X137174999Y-36218571D02*
X137246428Y-36290000D01*
X137174999Y-36361429D01*
X137103571Y-36290000D01*
X137174999Y-36218571D01*
X137174999Y-36361429D01*
X135817856Y-37647143D02*
X135960713Y-37718571D01*
X136246427Y-37718571D01*
X136389285Y-37647143D01*
X136460713Y-37575714D01*
X136532142Y-37432857D01*
X136532142Y-37004286D01*
X136460713Y-36861429D01*
X136389285Y-36790000D01*
X136246427Y-36718571D01*
X135960713Y-36718571D01*
X135817856Y-36790000D01*
X134603571Y-37647143D02*
X134746428Y-37718571D01*
X135032142Y-37718571D01*
X135174999Y-37647143D01*
X135246428Y-37504286D01*
X135246428Y-36932857D01*
X135174999Y-36790000D01*
X135032142Y-36718571D01*
X134746428Y-36718571D01*
X134603571Y-36790000D01*
X134532142Y-36932857D01*
X134532142Y-37075714D01*
X135246428Y-37218571D01*
X133889285Y-36718571D02*
X133889285Y-37718571D01*
X133889285Y-36861429D02*
X133817857Y-36790000D01*
X133674999Y-36718571D01*
X133460714Y-36718571D01*
X133317857Y-36790000D01*
X133246428Y-36932857D01*
X133246428Y-37718571D01*
X132603571Y-37647143D02*
X132460714Y-37718571D01*
X132174999Y-37718571D01*
X132032142Y-37647143D01*
X131960714Y-37504286D01*
X131960714Y-37432857D01*
X132032142Y-37290000D01*
X132174999Y-37218571D01*
X132389285Y-37218571D01*
X132532142Y-37147143D01*
X132603571Y-37004286D01*
X132603571Y-36932857D01*
X132532142Y-36790000D01*
X132389285Y-36718571D01*
X132174999Y-36718571D01*
X132032142Y-36790000D01*
X130746428Y-37647143D02*
X130889285Y-37718571D01*
X131174999Y-37718571D01*
X131317856Y-37647143D01*
X131389285Y-37504286D01*
X131389285Y-36932857D01*
X131317856Y-36790000D01*
X131174999Y-36718571D01*
X130889285Y-36718571D01*
X130746428Y-36790000D01*
X130674999Y-36932857D01*
X130674999Y-37075714D01*
X131389285Y-37218571D01*
X129389285Y-37718571D02*
X129389285Y-36218571D01*
X129389285Y-37647143D02*
X129532142Y-37718571D01*
X129817856Y-37718571D01*
X129960714Y-37647143D01*
X130032142Y-37575714D01*
X130103571Y-37432857D01*
X130103571Y-37004286D01*
X130032142Y-36861429D01*
X129960714Y-36790000D01*
X129817856Y-36718571D01*
X129532142Y-36718571D01*
X129389285Y-36790000D01*
X126889285Y-36718571D02*
X126889285Y-37718571D01*
X127532142Y-36718571D02*
X127532142Y-37504286D01*
X127460714Y-37647143D01*
X127317856Y-37718571D01*
X127103571Y-37718571D01*
X126960714Y-37647143D01*
X126889285Y-37575714D01*
X126174999Y-36718571D02*
X126174999Y-37718571D01*
X126174999Y-36861429D02*
X126103571Y-36790000D01*
X125960713Y-36718571D01*
X125746428Y-36718571D01*
X125603571Y-36790000D01*
X125532142Y-36932857D01*
X125532142Y-37718571D01*
X124174999Y-37718571D02*
X124174999Y-36218571D01*
X124174999Y-37647143D02*
X124317856Y-37718571D01*
X124603570Y-37718571D01*
X124746428Y-37647143D01*
X124817856Y-37575714D01*
X124889285Y-37432857D01*
X124889285Y-37004286D01*
X124817856Y-36861429D01*
X124746428Y-36790000D01*
X124603570Y-36718571D01*
X124317856Y-36718571D01*
X124174999Y-36790000D01*
X122889285Y-37647143D02*
X123032142Y-37718571D01*
X123317856Y-37718571D01*
X123460713Y-37647143D01*
X123532142Y-37504286D01*
X123532142Y-36932857D01*
X123460713Y-36790000D01*
X123317856Y-36718571D01*
X123032142Y-36718571D01*
X122889285Y-36790000D01*
X122817856Y-36932857D01*
X122817856Y-37075714D01*
X123532142Y-37218571D01*
X122174999Y-37718571D02*
X122174999Y-36718571D01*
X122174999Y-37004286D02*
X122103571Y-36861429D01*
X122032142Y-36790000D01*
X121889285Y-36718571D01*
X121746428Y-36718571D01*
X137960714Y-39975714D02*
X138032143Y-40047143D01*
X138246429Y-40118571D01*
X138389286Y-40118571D01*
X138603571Y-40047143D01*
X138746429Y-39904286D01*
X138817857Y-39761429D01*
X138889286Y-39475714D01*
X138889286Y-39261429D01*
X138817857Y-38975714D01*
X138746429Y-38832857D01*
X138603571Y-38690000D01*
X138389286Y-38618571D01*
X138246429Y-38618571D01*
X138032143Y-38690000D01*
X137960714Y-38761429D01*
X137317857Y-39332857D02*
X136817857Y-39332857D01*
X136603571Y-40118571D02*
X137317857Y-40118571D01*
X137317857Y-38618571D01*
X136603571Y-38618571D01*
X135103571Y-40118571D02*
X135603571Y-39404286D01*
X135960714Y-40118571D02*
X135960714Y-38618571D01*
X135389286Y-38618571D01*
X135246428Y-38690000D01*
X135175000Y-38761429D01*
X135103571Y-38904286D01*
X135103571Y-39118571D01*
X135175000Y-39261429D01*
X135246428Y-39332857D01*
X135389286Y-39404286D01*
X135960714Y-39404286D01*
X134460714Y-40118571D02*
X134460714Y-38618571D01*
X133603571Y-40118571D01*
X133603571Y-38618571D01*
X131460714Y-38618571D02*
X131175000Y-38618571D01*
X131032142Y-38690000D01*
X130889285Y-38832857D01*
X130817857Y-39118571D01*
X130817857Y-39618571D01*
X130889285Y-39904286D01*
X131032142Y-40047143D01*
X131175000Y-40118571D01*
X131460714Y-40118571D01*
X131603571Y-40047143D01*
X131746428Y-39904286D01*
X131817857Y-39618571D01*
X131817857Y-39118571D01*
X131746428Y-38832857D01*
X131603571Y-38690000D01*
X131460714Y-38618571D01*
X130174999Y-40118571D02*
X130174999Y-38618571D01*
X130174999Y-39332857D02*
X129317856Y-39332857D01*
X129317856Y-40118571D02*
X129317856Y-38618571D01*
X127889284Y-40118571D02*
X128603570Y-40118571D01*
X128603570Y-38618571D01*
X126389284Y-39118571D02*
X126032141Y-40118571D01*
X125674999Y-39118571D01*
X125103570Y-39975714D02*
X125032142Y-40047143D01*
X125103570Y-40118571D01*
X125174999Y-40047143D01*
X125103570Y-39975714D01*
X125103570Y-40118571D01*
X123603570Y-40118571D02*
X124460713Y-40118571D01*
X124032141Y-40118571D02*
X124032141Y-38618571D01*
X124174998Y-38832857D01*
X124317856Y-38975714D01*
X124460713Y-39047143D01*
X122960713Y-39975714D02*
X122889285Y-40047143D01*
X122960713Y-40118571D01*
X123032142Y-40047143D01*
X122960713Y-39975714D01*
X122960713Y-40118571D01*
X122317856Y-38761429D02*
X122246427Y-38690000D01*
X122103570Y-38618571D01*
X121746427Y-38618571D01*
X121603570Y-38690000D01*
X121532141Y-38761429D01*
X121460713Y-38904286D01*
X121460713Y-39047143D01*
X121532141Y-39261429D01*
X122389284Y-40118571D01*
X121460713Y-40118571D01*
X138282143Y-43918571D02*
X138282143Y-45132857D01*
X138353572Y-45275714D01*
X138425000Y-45347143D01*
X138567857Y-45418571D01*
X138782143Y-45418571D01*
X138925000Y-45347143D01*
X138282143Y-44847143D02*
X138425000Y-44918571D01*
X138710714Y-44918571D01*
X138853572Y-44847143D01*
X138925000Y-44775714D01*
X138996429Y-44632857D01*
X138996429Y-44204286D01*
X138925000Y-44061429D01*
X138853572Y-43990000D01*
X138710714Y-43918571D01*
X138425000Y-43918571D01*
X138282143Y-43990000D01*
X137567857Y-44918571D02*
X137567857Y-43918571D01*
X137567857Y-43418571D02*
X137639286Y-43490000D01*
X137567857Y-43561429D01*
X137496429Y-43490000D01*
X137567857Y-43418571D01*
X137567857Y-43561429D01*
X137067857Y-43918571D02*
X136496428Y-43918571D01*
X136853571Y-43418571D02*
X136853571Y-44704286D01*
X136782143Y-44847143D01*
X136639285Y-44918571D01*
X136496428Y-44918571D01*
X135996428Y-44918571D02*
X135996428Y-43418571D01*
X135353571Y-44918571D02*
X135353571Y-44132857D01*
X135425000Y-43990000D01*
X135567857Y-43918571D01*
X135782142Y-43918571D01*
X135925000Y-43990000D01*
X135996428Y-44061429D01*
X133996428Y-43918571D02*
X133996428Y-44918571D01*
X134639285Y-43918571D02*
X134639285Y-44704286D01*
X134567857Y-44847143D01*
X134424999Y-44918571D01*
X134210714Y-44918571D01*
X134067857Y-44847143D01*
X133996428Y-44775714D01*
X133282142Y-44918571D02*
X133282142Y-43418571D01*
X133282142Y-43990000D02*
X133139285Y-43918571D01*
X132853571Y-43918571D01*
X132710714Y-43990000D01*
X132639285Y-44061429D01*
X132567856Y-44204286D01*
X132567856Y-44632857D01*
X132639285Y-44775714D01*
X132710714Y-44847143D01*
X132853571Y-44918571D01*
X133139285Y-44918571D01*
X133282142Y-44847143D01*
X131924999Y-44775714D02*
X131853571Y-44847143D01*
X131924999Y-44918571D01*
X131996428Y-44847143D01*
X131924999Y-44775714D01*
X131924999Y-44918571D01*
X130567856Y-44847143D02*
X130710713Y-44918571D01*
X130996427Y-44918571D01*
X131139285Y-44847143D01*
X131210713Y-44775714D01*
X131282142Y-44632857D01*
X131282142Y-44204286D01*
X131210713Y-44061429D01*
X131139285Y-43990000D01*
X130996427Y-43918571D01*
X130710713Y-43918571D01*
X130567856Y-43990000D01*
X129710713Y-44918571D02*
X129853571Y-44847143D01*
X129924999Y-44775714D01*
X129996428Y-44632857D01*
X129996428Y-44204286D01*
X129924999Y-44061429D01*
X129853571Y-43990000D01*
X129710713Y-43918571D01*
X129496428Y-43918571D01*
X129353571Y-43990000D01*
X129282142Y-44061429D01*
X129210713Y-44204286D01*
X129210713Y-44632857D01*
X129282142Y-44775714D01*
X129353571Y-44847143D01*
X129496428Y-44918571D01*
X129710713Y-44918571D01*
X128567856Y-44918571D02*
X128567856Y-43918571D01*
X128567856Y-44061429D02*
X128496428Y-43990000D01*
X128353570Y-43918571D01*
X128139285Y-43918571D01*
X127996428Y-43990000D01*
X127924999Y-44132857D01*
X127924999Y-44918571D01*
X127924999Y-44132857D02*
X127853570Y-43990000D01*
X127710713Y-43918571D01*
X127496428Y-43918571D01*
X127353570Y-43990000D01*
X127282142Y-44132857D01*
X127282142Y-44918571D01*
X125496428Y-43347143D02*
X126782142Y-45275714D01*
X125210713Y-43918571D02*
X124639284Y-43918571D01*
X124996427Y-43418571D02*
X124996427Y-44704286D01*
X124924999Y-44847143D01*
X124782141Y-44918571D01*
X124639284Y-44918571D01*
X123567856Y-44847143D02*
X123710713Y-44918571D01*
X123996427Y-44918571D01*
X124139284Y-44847143D01*
X124210713Y-44704286D01*
X124210713Y-44132857D01*
X124139284Y-43990000D01*
X123996427Y-43918571D01*
X123710713Y-43918571D01*
X123567856Y-43990000D01*
X123496427Y-44132857D01*
X123496427Y-44275714D01*
X124210713Y-44418571D01*
X122853570Y-44918571D02*
X122853570Y-43418571D01*
X122853570Y-43990000D02*
X122710713Y-43918571D01*
X122424999Y-43918571D01*
X122282142Y-43990000D01*
X122210713Y-44061429D01*
X122139284Y-44204286D01*
X122139284Y-44632857D01*
X122210713Y-44775714D01*
X122282142Y-44847143D01*
X122424999Y-44918571D01*
X122710713Y-44918571D01*
X122853570Y-44847143D01*
X121282141Y-44918571D02*
X121424999Y-44847143D01*
X121496427Y-44704286D01*
X121496427Y-43418571D01*
D12*
X135255000Y-113665000D02*
X137160000Y-113665000D01*
X137160000Y-113665000D02*
X137795000Y-113665000D01*
X137160000Y-113030000D02*
X137160000Y-113665000D01*
X135890000Y-113030000D02*
X137160000Y-113030000D01*
X135890000Y-113665000D02*
X135890000Y-113030000D01*
X135255000Y-105410000D02*
X137795000Y-105410000D01*
X137160000Y-104775000D02*
X137160000Y-105410000D01*
X135890000Y-104775000D02*
X137160000Y-104775000D01*
X135890000Y-105410000D02*
X135890000Y-104775000D01*
D11*
X138691667Y-103957381D02*
X138691667Y-102957381D01*
X138310714Y-102957381D01*
X138215476Y-103005000D01*
X138167857Y-103052619D01*
X138120238Y-103147857D01*
X138120238Y-103290714D01*
X138167857Y-103385952D01*
X138215476Y-103433571D01*
X138310714Y-103481190D01*
X138691667Y-103481190D01*
X137548810Y-103957381D02*
X137644048Y-103909762D01*
X137691667Y-103862143D01*
X137739286Y-103766905D01*
X137739286Y-103481190D01*
X137691667Y-103385952D01*
X137644048Y-103338333D01*
X137548810Y-103290714D01*
X137405952Y-103290714D01*
X137310714Y-103338333D01*
X137263095Y-103385952D01*
X137215476Y-103481190D01*
X137215476Y-103766905D01*
X137263095Y-103862143D01*
X137310714Y-103909762D01*
X137405952Y-103957381D01*
X137548810Y-103957381D01*
X136786905Y-103957381D02*
X136786905Y-103290714D01*
X136786905Y-103481190D02*
X136739286Y-103385952D01*
X136691667Y-103338333D01*
X136596429Y-103290714D01*
X136501190Y-103290714D01*
X136310714Y-103290714D02*
X135929762Y-103290714D01*
X136167857Y-102957381D02*
X136167857Y-103814524D01*
X136120238Y-103909762D01*
X136025000Y-103957381D01*
X135929762Y-103957381D01*
X134882142Y-103052619D02*
X134834523Y-103005000D01*
X134739285Y-102957381D01*
X134501189Y-102957381D01*
X134405951Y-103005000D01*
X134358332Y-103052619D01*
X134310713Y-103147857D01*
X134310713Y-103243095D01*
X134358332Y-103385952D01*
X134929761Y-103957381D01*
X134310713Y-103957381D01*
X138691667Y-112212381D02*
X138691667Y-111212381D01*
X138310714Y-111212381D01*
X138215476Y-111260000D01*
X138167857Y-111307619D01*
X138120238Y-111402857D01*
X138120238Y-111545714D01*
X138167857Y-111640952D01*
X138215476Y-111688571D01*
X138310714Y-111736190D01*
X138691667Y-111736190D01*
X137548810Y-112212381D02*
X137644048Y-112164762D01*
X137691667Y-112117143D01*
X137739286Y-112021905D01*
X137739286Y-111736190D01*
X137691667Y-111640952D01*
X137644048Y-111593333D01*
X137548810Y-111545714D01*
X137405952Y-111545714D01*
X137310714Y-111593333D01*
X137263095Y-111640952D01*
X137215476Y-111736190D01*
X137215476Y-112021905D01*
X137263095Y-112117143D01*
X137310714Y-112164762D01*
X137405952Y-112212381D01*
X137548810Y-112212381D01*
X136786905Y-112212381D02*
X136786905Y-111545714D01*
X136786905Y-111736190D02*
X136739286Y-111640952D01*
X136691667Y-111593333D01*
X136596429Y-111545714D01*
X136501190Y-111545714D01*
X136310714Y-111545714D02*
X135929762Y-111545714D01*
X136167857Y-111212381D02*
X136167857Y-112069524D01*
X136120238Y-112164762D01*
X136025000Y-112212381D01*
X135929762Y-112212381D01*
X134310713Y-112212381D02*
X134882142Y-112212381D01*
X134596428Y-112212381D02*
X134596428Y-111212381D01*
X134691666Y-111355238D01*
X134786904Y-111450476D01*
X134882142Y-111498095D01*
M02*
