G04 #@! TF.FileFunction,Legend,Bot*
%FSLAX46Y46*%
G04 Gerber Fmt 4.6, Leading zero omitted, Abs format (unit mm)*
G04 Created by KiCad (PCBNEW 4.0.7) date 07/31/19 13:11:44*
%MOMM*%
%LPD*%
G01*
G04 APERTURE LIST*
%ADD10C,0.100000*%
%ADD11C,0.200000*%
%ADD12C,0.150000*%
G04 APERTURE END LIST*
D10*
D11*
X128905000Y-82550000D02*
X128905000Y-81915000D01*
X126365000Y-82550000D02*
X128905000Y-82550000D01*
X126365000Y-81915000D02*
X126365000Y-82550000D01*
X128905000Y-93980000D02*
X128905000Y-94615000D01*
X126365000Y-93980000D02*
X128905000Y-93980000D01*
X126365000Y-94615000D02*
X126365000Y-93980000D01*
X126365000Y-80645000D02*
X128905000Y-80645000D01*
X126365000Y-95885000D02*
X128905000Y-95885000D01*
X125095000Y-97155000D02*
X125095000Y-76835000D01*
X137160000Y-97155000D02*
X125095000Y-97155000D01*
X137160000Y-76835000D02*
X137160000Y-97155000D01*
X125095000Y-76835000D02*
X137160000Y-76835000D01*
D12*
X131327381Y-79820475D02*
X130327381Y-79820475D01*
X130327381Y-80058570D01*
X130375000Y-80201428D01*
X130470238Y-80296666D01*
X130565476Y-80344285D01*
X130755952Y-80391904D01*
X130898810Y-80391904D01*
X131089286Y-80344285D01*
X131184524Y-80296666D01*
X131279762Y-80201428D01*
X131327381Y-80058570D01*
X131327381Y-79820475D01*
X131327381Y-80963332D02*
X131279762Y-80868094D01*
X131232143Y-80820475D01*
X131136905Y-80772856D01*
X130851190Y-80772856D01*
X130755952Y-80820475D01*
X130708333Y-80868094D01*
X130660714Y-80963332D01*
X130660714Y-81106190D01*
X130708333Y-81201428D01*
X130755952Y-81249047D01*
X130851190Y-81296666D01*
X131136905Y-81296666D01*
X131232143Y-81249047D01*
X131279762Y-81201428D01*
X131327381Y-81106190D01*
X131327381Y-80963332D01*
X131327381Y-82487142D02*
X130327381Y-82487142D01*
X131327381Y-83058571D01*
X130327381Y-83058571D01*
X130327381Y-83725237D02*
X130327381Y-83915714D01*
X130375000Y-84010952D01*
X130470238Y-84106190D01*
X130660714Y-84153809D01*
X130994048Y-84153809D01*
X131184524Y-84106190D01*
X131279762Y-84010952D01*
X131327381Y-83915714D01*
X131327381Y-83725237D01*
X131279762Y-83629999D01*
X131184524Y-83534761D01*
X130994048Y-83487142D01*
X130660714Y-83487142D01*
X130470238Y-83534761D01*
X130375000Y-83629999D01*
X130327381Y-83725237D01*
X130327381Y-84439523D02*
X130327381Y-85010952D01*
X131327381Y-84725237D02*
X130327381Y-84725237D01*
X131279762Y-86534762D02*
X131327381Y-86439524D01*
X131327381Y-86249047D01*
X131279762Y-86153809D01*
X131232143Y-86106190D01*
X131136905Y-86058571D01*
X130851190Y-86058571D01*
X130755952Y-86106190D01*
X130708333Y-86153809D01*
X130660714Y-86249047D01*
X130660714Y-86439524D01*
X130708333Y-86534762D01*
X131327381Y-86963333D02*
X130327381Y-86963333D01*
X131327381Y-87391905D02*
X130803571Y-87391905D01*
X130708333Y-87344286D01*
X130660714Y-87249048D01*
X130660714Y-87106190D01*
X130708333Y-87010952D01*
X130755952Y-86963333D01*
X131327381Y-88296667D02*
X130803571Y-88296667D01*
X130708333Y-88249048D01*
X130660714Y-88153810D01*
X130660714Y-87963333D01*
X130708333Y-87868095D01*
X131279762Y-88296667D02*
X131327381Y-88201429D01*
X131327381Y-87963333D01*
X131279762Y-87868095D01*
X131184524Y-87820476D01*
X131089286Y-87820476D01*
X130994048Y-87868095D01*
X130946429Y-87963333D01*
X130946429Y-88201429D01*
X130898810Y-88296667D01*
X130660714Y-88772857D02*
X131327381Y-88772857D01*
X130755952Y-88772857D02*
X130708333Y-88820476D01*
X130660714Y-88915714D01*
X130660714Y-89058572D01*
X130708333Y-89153810D01*
X130803571Y-89201429D01*
X131327381Y-89201429D01*
X130660714Y-90106191D02*
X131470238Y-90106191D01*
X131565476Y-90058572D01*
X131613095Y-90010953D01*
X131660714Y-89915714D01*
X131660714Y-89772857D01*
X131613095Y-89677619D01*
X131279762Y-90106191D02*
X131327381Y-90010953D01*
X131327381Y-89820476D01*
X131279762Y-89725238D01*
X131232143Y-89677619D01*
X131136905Y-89630000D01*
X130851190Y-89630000D01*
X130755952Y-89677619D01*
X130708333Y-89725238D01*
X130660714Y-89820476D01*
X130660714Y-90010953D01*
X130708333Y-90106191D01*
X131279762Y-90963334D02*
X131327381Y-90868096D01*
X131327381Y-90677619D01*
X131279762Y-90582381D01*
X131184524Y-90534762D01*
X130803571Y-90534762D01*
X130708333Y-90582381D01*
X130660714Y-90677619D01*
X130660714Y-90868096D01*
X130708333Y-90963334D01*
X130803571Y-91010953D01*
X130898810Y-91010953D01*
X130994048Y-90534762D01*
X130660714Y-92106191D02*
X131327381Y-92296667D01*
X130851190Y-92487144D01*
X131327381Y-92677620D01*
X130660714Y-92868096D01*
X131327381Y-93249048D02*
X130327381Y-93249048D01*
X131327381Y-93677620D02*
X130803571Y-93677620D01*
X130708333Y-93630001D01*
X130660714Y-93534763D01*
X130660714Y-93391905D01*
X130708333Y-93296667D01*
X130755952Y-93249048D01*
X131279762Y-94534763D02*
X131327381Y-94439525D01*
X131327381Y-94249048D01*
X131279762Y-94153810D01*
X131184524Y-94106191D01*
X130803571Y-94106191D01*
X130708333Y-94153810D01*
X130660714Y-94249048D01*
X130660714Y-94439525D01*
X130708333Y-94534763D01*
X130803571Y-94582382D01*
X130898810Y-94582382D01*
X130994048Y-94106191D01*
X130660714Y-95010953D02*
X131327381Y-95010953D01*
X130755952Y-95010953D02*
X130708333Y-95058572D01*
X130660714Y-95153810D01*
X130660714Y-95296668D01*
X130708333Y-95391906D01*
X130803571Y-95439525D01*
X131327381Y-95439525D01*
X132310714Y-78796666D02*
X133310714Y-78796666D01*
X132358333Y-78796666D02*
X132310714Y-78891904D01*
X132310714Y-79082381D01*
X132358333Y-79177619D01*
X132405952Y-79225238D01*
X132501190Y-79272857D01*
X132786905Y-79272857D01*
X132882143Y-79225238D01*
X132929762Y-79177619D01*
X132977381Y-79082381D01*
X132977381Y-78891904D01*
X132929762Y-78796666D01*
X132977381Y-79844285D02*
X132929762Y-79749047D01*
X132882143Y-79701428D01*
X132786905Y-79653809D01*
X132501190Y-79653809D01*
X132405952Y-79701428D01*
X132358333Y-79749047D01*
X132310714Y-79844285D01*
X132310714Y-79987143D01*
X132358333Y-80082381D01*
X132405952Y-80130000D01*
X132501190Y-80177619D01*
X132786905Y-80177619D01*
X132882143Y-80130000D01*
X132929762Y-80082381D01*
X132977381Y-79987143D01*
X132977381Y-79844285D01*
X132310714Y-80510952D02*
X132977381Y-80701428D01*
X132501190Y-80891905D01*
X132977381Y-81082381D01*
X132310714Y-81272857D01*
X132929762Y-82034762D02*
X132977381Y-81939524D01*
X132977381Y-81749047D01*
X132929762Y-81653809D01*
X132834524Y-81606190D01*
X132453571Y-81606190D01*
X132358333Y-81653809D01*
X132310714Y-81749047D01*
X132310714Y-81939524D01*
X132358333Y-82034762D01*
X132453571Y-82082381D01*
X132548810Y-82082381D01*
X132644048Y-81606190D01*
X132977381Y-82510952D02*
X132310714Y-82510952D01*
X132501190Y-82510952D02*
X132405952Y-82558571D01*
X132358333Y-82606190D01*
X132310714Y-82701428D01*
X132310714Y-82796667D01*
X132929762Y-83510953D02*
X132977381Y-83415715D01*
X132977381Y-83225238D01*
X132929762Y-83130000D01*
X132834524Y-83082381D01*
X132453571Y-83082381D01*
X132358333Y-83130000D01*
X132310714Y-83225238D01*
X132310714Y-83415715D01*
X132358333Y-83510953D01*
X132453571Y-83558572D01*
X132548810Y-83558572D01*
X132644048Y-83082381D01*
X132977381Y-84415715D02*
X131977381Y-84415715D01*
X132929762Y-84415715D02*
X132977381Y-84320477D01*
X132977381Y-84130000D01*
X132929762Y-84034762D01*
X132882143Y-83987143D01*
X132786905Y-83939524D01*
X132501190Y-83939524D01*
X132405952Y-83987143D01*
X132358333Y-84034762D01*
X132310714Y-84130000D01*
X132310714Y-84320477D01*
X132358333Y-84415715D01*
X132929762Y-84939524D02*
X132977381Y-84939524D01*
X133072619Y-84891905D01*
X133120238Y-84844286D01*
X132977381Y-86558572D02*
X131977381Y-86558572D01*
X132929762Y-86558572D02*
X132977381Y-86463334D01*
X132977381Y-86272857D01*
X132929762Y-86177619D01*
X132882143Y-86130000D01*
X132786905Y-86082381D01*
X132501190Y-86082381D01*
X132405952Y-86130000D01*
X132358333Y-86177619D01*
X132310714Y-86272857D01*
X132310714Y-86463334D01*
X132358333Y-86558572D01*
X132977381Y-87177619D02*
X132929762Y-87082381D01*
X132882143Y-87034762D01*
X132786905Y-86987143D01*
X132501190Y-86987143D01*
X132405952Y-87034762D01*
X132358333Y-87082381D01*
X132310714Y-87177619D01*
X132310714Y-87320477D01*
X132358333Y-87415715D01*
X132405952Y-87463334D01*
X132501190Y-87510953D01*
X132786905Y-87510953D01*
X132882143Y-87463334D01*
X132929762Y-87415715D01*
X132977381Y-87320477D01*
X132977381Y-87177619D01*
X132310714Y-88701429D02*
X132977381Y-88701429D01*
X132405952Y-88701429D02*
X132358333Y-88749048D01*
X132310714Y-88844286D01*
X132310714Y-88987144D01*
X132358333Y-89082382D01*
X132453571Y-89130001D01*
X132977381Y-89130001D01*
X132977381Y-89749048D02*
X132929762Y-89653810D01*
X132882143Y-89606191D01*
X132786905Y-89558572D01*
X132501190Y-89558572D01*
X132405952Y-89606191D01*
X132358333Y-89653810D01*
X132310714Y-89749048D01*
X132310714Y-89891906D01*
X132358333Y-89987144D01*
X132405952Y-90034763D01*
X132501190Y-90082382D01*
X132786905Y-90082382D01*
X132882143Y-90034763D01*
X132929762Y-89987144D01*
X132977381Y-89891906D01*
X132977381Y-89749048D01*
X132310714Y-90368096D02*
X132310714Y-90749048D01*
X131977381Y-90510953D02*
X132834524Y-90510953D01*
X132929762Y-90558572D01*
X132977381Y-90653810D01*
X132977381Y-90749048D01*
X132310714Y-91844287D02*
X133167857Y-91844287D01*
X133263095Y-91796668D01*
X133310714Y-91701430D01*
X133310714Y-91653811D01*
X131977381Y-91844287D02*
X132025000Y-91796668D01*
X132072619Y-91844287D01*
X132025000Y-91891906D01*
X131977381Y-91844287D01*
X132072619Y-91844287D01*
X132310714Y-92749049D02*
X132977381Y-92749049D01*
X132310714Y-92320477D02*
X132834524Y-92320477D01*
X132929762Y-92368096D01*
X132977381Y-92463334D01*
X132977381Y-92606192D01*
X132929762Y-92701430D01*
X132882143Y-92749049D01*
X132977381Y-93225239D02*
X132310714Y-93225239D01*
X132405952Y-93225239D02*
X132358333Y-93272858D01*
X132310714Y-93368096D01*
X132310714Y-93510954D01*
X132358333Y-93606192D01*
X132453571Y-93653811D01*
X132977381Y-93653811D01*
X132453571Y-93653811D02*
X132358333Y-93701430D01*
X132310714Y-93796668D01*
X132310714Y-93939525D01*
X132358333Y-94034763D01*
X132453571Y-94082382D01*
X132977381Y-94082382D01*
X132310714Y-94558572D02*
X133310714Y-94558572D01*
X132358333Y-94558572D02*
X132310714Y-94653810D01*
X132310714Y-94844287D01*
X132358333Y-94939525D01*
X132405952Y-94987144D01*
X132501190Y-95034763D01*
X132786905Y-95034763D01*
X132882143Y-94987144D01*
X132929762Y-94939525D01*
X132977381Y-94844287D01*
X132977381Y-94653810D01*
X132929762Y-94558572D01*
X132929762Y-95844287D02*
X132977381Y-95749049D01*
X132977381Y-95558572D01*
X132929762Y-95463334D01*
X132834524Y-95415715D01*
X132453571Y-95415715D01*
X132358333Y-95463334D01*
X132310714Y-95558572D01*
X132310714Y-95749049D01*
X132358333Y-95844287D01*
X132453571Y-95891906D01*
X132548810Y-95891906D01*
X132644048Y-95415715D01*
X132977381Y-96320477D02*
X132310714Y-96320477D01*
X132501190Y-96320477D02*
X132405952Y-96368096D01*
X132358333Y-96415715D01*
X132310714Y-96510953D01*
X132310714Y-96606192D01*
X134627381Y-81153809D02*
X134103571Y-81153809D01*
X134008333Y-81106190D01*
X133960714Y-81010952D01*
X133960714Y-80820475D01*
X134008333Y-80725237D01*
X134579762Y-81153809D02*
X134627381Y-81058571D01*
X134627381Y-80820475D01*
X134579762Y-80725237D01*
X134484524Y-80677618D01*
X134389286Y-80677618D01*
X134294048Y-80725237D01*
X134246429Y-80820475D01*
X134246429Y-81058571D01*
X134198810Y-81153809D01*
X133960714Y-81629999D02*
X134627381Y-81629999D01*
X134055952Y-81629999D02*
X134008333Y-81677618D01*
X133960714Y-81772856D01*
X133960714Y-81915714D01*
X134008333Y-82010952D01*
X134103571Y-82058571D01*
X134627381Y-82058571D01*
X133960714Y-82439523D02*
X134627381Y-82677618D01*
X133960714Y-82915714D02*
X134627381Y-82677618D01*
X134865476Y-82582380D01*
X134913095Y-82534761D01*
X134960714Y-82439523D01*
X133960714Y-83915714D02*
X133960714Y-84296666D01*
X134627381Y-84058571D02*
X133770238Y-84058571D01*
X133675000Y-84106190D01*
X133627381Y-84201428D01*
X133627381Y-84296666D01*
X133960714Y-85058572D02*
X134627381Y-85058572D01*
X133960714Y-84630000D02*
X134484524Y-84630000D01*
X134579762Y-84677619D01*
X134627381Y-84772857D01*
X134627381Y-84915715D01*
X134579762Y-85010953D01*
X134532143Y-85058572D01*
X133960714Y-85534762D02*
X134627381Y-85534762D01*
X134055952Y-85534762D02*
X134008333Y-85582381D01*
X133960714Y-85677619D01*
X133960714Y-85820477D01*
X134008333Y-85915715D01*
X134103571Y-85963334D01*
X134627381Y-85963334D01*
X134579762Y-86868096D02*
X134627381Y-86772858D01*
X134627381Y-86582381D01*
X134579762Y-86487143D01*
X134532143Y-86439524D01*
X134436905Y-86391905D01*
X134151190Y-86391905D01*
X134055952Y-86439524D01*
X134008333Y-86487143D01*
X133960714Y-86582381D01*
X133960714Y-86772858D01*
X134008333Y-86868096D01*
X133960714Y-87153810D02*
X133960714Y-87534762D01*
X133627381Y-87296667D02*
X134484524Y-87296667D01*
X134579762Y-87344286D01*
X134627381Y-87439524D01*
X134627381Y-87534762D01*
X134627381Y-87868096D02*
X133960714Y-87868096D01*
X133627381Y-87868096D02*
X133675000Y-87820477D01*
X133722619Y-87868096D01*
X133675000Y-87915715D01*
X133627381Y-87868096D01*
X133722619Y-87868096D01*
X134627381Y-88487143D02*
X134579762Y-88391905D01*
X134532143Y-88344286D01*
X134436905Y-88296667D01*
X134151190Y-88296667D01*
X134055952Y-88344286D01*
X134008333Y-88391905D01*
X133960714Y-88487143D01*
X133960714Y-88630001D01*
X134008333Y-88725239D01*
X134055952Y-88772858D01*
X134151190Y-88820477D01*
X134436905Y-88820477D01*
X134532143Y-88772858D01*
X134579762Y-88725239D01*
X134627381Y-88630001D01*
X134627381Y-88487143D01*
X133960714Y-89249048D02*
X134627381Y-89249048D01*
X134055952Y-89249048D02*
X134008333Y-89296667D01*
X133960714Y-89391905D01*
X133960714Y-89534763D01*
X134008333Y-89630001D01*
X134103571Y-89677620D01*
X134627381Y-89677620D01*
X134627381Y-90915715D02*
X133627381Y-90915715D01*
X134341667Y-91249049D01*
X133627381Y-91582382D01*
X134627381Y-91582382D01*
X133627381Y-92249048D02*
X133627381Y-92439525D01*
X133675000Y-92534763D01*
X133770238Y-92630001D01*
X133960714Y-92677620D01*
X134294048Y-92677620D01*
X134484524Y-92630001D01*
X134579762Y-92534763D01*
X134627381Y-92439525D01*
X134627381Y-92249048D01*
X134579762Y-92153810D01*
X134484524Y-92058572D01*
X134294048Y-92010953D01*
X133960714Y-92010953D01*
X133770238Y-92058572D01*
X133675000Y-92153810D01*
X133627381Y-92249048D01*
X134627381Y-93677620D02*
X134151190Y-93344286D01*
X134627381Y-93106191D02*
X133627381Y-93106191D01*
X133627381Y-93487144D01*
X133675000Y-93582382D01*
X133722619Y-93630001D01*
X133817857Y-93677620D01*
X133960714Y-93677620D01*
X134055952Y-93630001D01*
X134103571Y-93582382D01*
X134151190Y-93487144D01*
X134151190Y-93106191D01*
X134103571Y-94106191D02*
X134103571Y-94439525D01*
X134627381Y-94582382D02*
X134627381Y-94106191D01*
X133627381Y-94106191D01*
X133627381Y-94582382D01*
X135610714Y-83463333D02*
X135610714Y-83844285D01*
X135277381Y-83606190D02*
X136134524Y-83606190D01*
X136229762Y-83653809D01*
X136277381Y-83749047D01*
X136277381Y-83844285D01*
X136277381Y-84177619D02*
X135277381Y-84177619D01*
X136277381Y-84606191D02*
X135753571Y-84606191D01*
X135658333Y-84558572D01*
X135610714Y-84463334D01*
X135610714Y-84320476D01*
X135658333Y-84225238D01*
X135705952Y-84177619D01*
X136277381Y-85510953D02*
X135753571Y-85510953D01*
X135658333Y-85463334D01*
X135610714Y-85368096D01*
X135610714Y-85177619D01*
X135658333Y-85082381D01*
X136229762Y-85510953D02*
X136277381Y-85415715D01*
X136277381Y-85177619D01*
X136229762Y-85082381D01*
X136134524Y-85034762D01*
X136039286Y-85034762D01*
X135944048Y-85082381D01*
X135896429Y-85177619D01*
X135896429Y-85415715D01*
X135848810Y-85510953D01*
X135610714Y-85987143D02*
X136277381Y-85987143D01*
X135705952Y-85987143D02*
X135658333Y-86034762D01*
X135610714Y-86130000D01*
X135610714Y-86272858D01*
X135658333Y-86368096D01*
X135753571Y-86415715D01*
X136277381Y-86415715D01*
X135277381Y-87844286D02*
X135277381Y-88034763D01*
X135325000Y-88130001D01*
X135420238Y-88225239D01*
X135610714Y-88272858D01*
X135944048Y-88272858D01*
X136134524Y-88225239D01*
X136229762Y-88130001D01*
X136277381Y-88034763D01*
X136277381Y-87844286D01*
X136229762Y-87749048D01*
X136134524Y-87653810D01*
X135944048Y-87606191D01*
X135610714Y-87606191D01*
X135420238Y-87653810D01*
X135325000Y-87749048D01*
X135277381Y-87844286D01*
X136277381Y-88701429D02*
X135277381Y-88701429D01*
X136277381Y-89272858D01*
X135277381Y-89272858D01*
X136182143Y-90320477D02*
X136229762Y-90272858D01*
X136277381Y-90130001D01*
X136277381Y-90034763D01*
X136229762Y-89891905D01*
X136134524Y-89796667D01*
X136039286Y-89749048D01*
X135848810Y-89701429D01*
X135705952Y-89701429D01*
X135515476Y-89749048D01*
X135420238Y-89796667D01*
X135325000Y-89891905D01*
X135277381Y-90034763D01*
X135277381Y-90130001D01*
X135325000Y-90272858D01*
X135372619Y-90320477D01*
X135753571Y-90749048D02*
X135753571Y-91082382D01*
X136277381Y-91225239D02*
X136277381Y-90749048D01*
X135277381Y-90749048D01*
X135277381Y-91225239D01*
X136182143Y-91653810D02*
X136229762Y-91701429D01*
X136277381Y-91653810D01*
X136229762Y-91606191D01*
X136182143Y-91653810D01*
X136277381Y-91653810D01*
X135896429Y-91653810D02*
X135325000Y-91606191D01*
X135277381Y-91653810D01*
X135325000Y-91701429D01*
X135896429Y-91653810D01*
X135277381Y-91653810D01*
X137674999Y-37718571D02*
X138389285Y-37718571D01*
X138389285Y-36218571D01*
X137174999Y-37718571D02*
X137174999Y-36718571D01*
X137174999Y-36218571D02*
X137246428Y-36290000D01*
X137174999Y-36361429D01*
X137103571Y-36290000D01*
X137174999Y-36218571D01*
X137174999Y-36361429D01*
X135817856Y-37647143D02*
X135960713Y-37718571D01*
X136246427Y-37718571D01*
X136389285Y-37647143D01*
X136460713Y-37575714D01*
X136532142Y-37432857D01*
X136532142Y-37004286D01*
X136460713Y-36861429D01*
X136389285Y-36790000D01*
X136246427Y-36718571D01*
X135960713Y-36718571D01*
X135817856Y-36790000D01*
X134603571Y-37647143D02*
X134746428Y-37718571D01*
X135032142Y-37718571D01*
X135174999Y-37647143D01*
X135246428Y-37504286D01*
X135246428Y-36932857D01*
X135174999Y-36790000D01*
X135032142Y-36718571D01*
X134746428Y-36718571D01*
X134603571Y-36790000D01*
X134532142Y-36932857D01*
X134532142Y-37075714D01*
X135246428Y-37218571D01*
X133889285Y-36718571D02*
X133889285Y-37718571D01*
X133889285Y-36861429D02*
X133817857Y-36790000D01*
X133674999Y-36718571D01*
X133460714Y-36718571D01*
X133317857Y-36790000D01*
X133246428Y-36932857D01*
X133246428Y-37718571D01*
X132603571Y-37647143D02*
X132460714Y-37718571D01*
X132174999Y-37718571D01*
X132032142Y-37647143D01*
X131960714Y-37504286D01*
X131960714Y-37432857D01*
X132032142Y-37290000D01*
X132174999Y-37218571D01*
X132389285Y-37218571D01*
X132532142Y-37147143D01*
X132603571Y-37004286D01*
X132603571Y-36932857D01*
X132532142Y-36790000D01*
X132389285Y-36718571D01*
X132174999Y-36718571D01*
X132032142Y-36790000D01*
X130746428Y-37647143D02*
X130889285Y-37718571D01*
X131174999Y-37718571D01*
X131317856Y-37647143D01*
X131389285Y-37504286D01*
X131389285Y-36932857D01*
X131317856Y-36790000D01*
X131174999Y-36718571D01*
X130889285Y-36718571D01*
X130746428Y-36790000D01*
X130674999Y-36932857D01*
X130674999Y-37075714D01*
X131389285Y-37218571D01*
X129389285Y-37718571D02*
X129389285Y-36218571D01*
X129389285Y-37647143D02*
X129532142Y-37718571D01*
X129817856Y-37718571D01*
X129960714Y-37647143D01*
X130032142Y-37575714D01*
X130103571Y-37432857D01*
X130103571Y-37004286D01*
X130032142Y-36861429D01*
X129960714Y-36790000D01*
X129817856Y-36718571D01*
X129532142Y-36718571D01*
X129389285Y-36790000D01*
X126889285Y-36718571D02*
X126889285Y-37718571D01*
X127532142Y-36718571D02*
X127532142Y-37504286D01*
X127460714Y-37647143D01*
X127317856Y-37718571D01*
X127103571Y-37718571D01*
X126960714Y-37647143D01*
X126889285Y-37575714D01*
X126174999Y-36718571D02*
X126174999Y-37718571D01*
X126174999Y-36861429D02*
X126103571Y-36790000D01*
X125960713Y-36718571D01*
X125746428Y-36718571D01*
X125603571Y-36790000D01*
X125532142Y-36932857D01*
X125532142Y-37718571D01*
X124174999Y-37718571D02*
X124174999Y-36218571D01*
X124174999Y-37647143D02*
X124317856Y-37718571D01*
X124603570Y-37718571D01*
X124746428Y-37647143D01*
X124817856Y-37575714D01*
X124889285Y-37432857D01*
X124889285Y-37004286D01*
X124817856Y-36861429D01*
X124746428Y-36790000D01*
X124603570Y-36718571D01*
X124317856Y-36718571D01*
X124174999Y-36790000D01*
X122889285Y-37647143D02*
X123032142Y-37718571D01*
X123317856Y-37718571D01*
X123460713Y-37647143D01*
X123532142Y-37504286D01*
X123532142Y-36932857D01*
X123460713Y-36790000D01*
X123317856Y-36718571D01*
X123032142Y-36718571D01*
X122889285Y-36790000D01*
X122817856Y-36932857D01*
X122817856Y-37075714D01*
X123532142Y-37218571D01*
X122174999Y-37718571D02*
X122174999Y-36718571D01*
X122174999Y-37004286D02*
X122103571Y-36861429D01*
X122032142Y-36790000D01*
X121889285Y-36718571D01*
X121746428Y-36718571D01*
X137960714Y-39975714D02*
X138032143Y-40047143D01*
X138246429Y-40118571D01*
X138389286Y-40118571D01*
X138603571Y-40047143D01*
X138746429Y-39904286D01*
X138817857Y-39761429D01*
X138889286Y-39475714D01*
X138889286Y-39261429D01*
X138817857Y-38975714D01*
X138746429Y-38832857D01*
X138603571Y-38690000D01*
X138389286Y-38618571D01*
X138246429Y-38618571D01*
X138032143Y-38690000D01*
X137960714Y-38761429D01*
X137317857Y-39332857D02*
X136817857Y-39332857D01*
X136603571Y-40118571D02*
X137317857Y-40118571D01*
X137317857Y-38618571D01*
X136603571Y-38618571D01*
X135103571Y-40118571D02*
X135603571Y-39404286D01*
X135960714Y-40118571D02*
X135960714Y-38618571D01*
X135389286Y-38618571D01*
X135246428Y-38690000D01*
X135175000Y-38761429D01*
X135103571Y-38904286D01*
X135103571Y-39118571D01*
X135175000Y-39261429D01*
X135246428Y-39332857D01*
X135389286Y-39404286D01*
X135960714Y-39404286D01*
X134460714Y-40118571D02*
X134460714Y-38618571D01*
X133603571Y-40118571D01*
X133603571Y-38618571D01*
X131460714Y-38618571D02*
X131175000Y-38618571D01*
X131032142Y-38690000D01*
X130889285Y-38832857D01*
X130817857Y-39118571D01*
X130817857Y-39618571D01*
X130889285Y-39904286D01*
X131032142Y-40047143D01*
X131175000Y-40118571D01*
X131460714Y-40118571D01*
X131603571Y-40047143D01*
X131746428Y-39904286D01*
X131817857Y-39618571D01*
X131817857Y-39118571D01*
X131746428Y-38832857D01*
X131603571Y-38690000D01*
X131460714Y-38618571D01*
X130174999Y-40118571D02*
X130174999Y-38618571D01*
X130174999Y-39332857D02*
X129317856Y-39332857D01*
X129317856Y-40118571D02*
X129317856Y-38618571D01*
X127889284Y-40118571D02*
X128603570Y-40118571D01*
X128603570Y-38618571D01*
X126389284Y-39118571D02*
X126032141Y-40118571D01*
X125674999Y-39118571D01*
X125103570Y-39975714D02*
X125032142Y-40047143D01*
X125103570Y-40118571D01*
X125174999Y-40047143D01*
X125103570Y-39975714D01*
X125103570Y-40118571D01*
X123603570Y-40118571D02*
X124460713Y-40118571D01*
X124032141Y-40118571D02*
X124032141Y-38618571D01*
X124174998Y-38832857D01*
X124317856Y-38975714D01*
X124460713Y-39047143D01*
X122960713Y-39975714D02*
X122889285Y-40047143D01*
X122960713Y-40118571D01*
X123032142Y-40047143D01*
X122960713Y-39975714D01*
X122960713Y-40118571D01*
X122317856Y-38761429D02*
X122246427Y-38690000D01*
X122103570Y-38618571D01*
X121746427Y-38618571D01*
X121603570Y-38690000D01*
X121532141Y-38761429D01*
X121460713Y-38904286D01*
X121460713Y-39047143D01*
X121532141Y-39261429D01*
X122389284Y-40118571D01*
X121460713Y-40118571D01*
X138282143Y-43918571D02*
X138282143Y-45132857D01*
X138353572Y-45275714D01*
X138425000Y-45347143D01*
X138567857Y-45418571D01*
X138782143Y-45418571D01*
X138925000Y-45347143D01*
X138282143Y-44847143D02*
X138425000Y-44918571D01*
X138710714Y-44918571D01*
X138853572Y-44847143D01*
X138925000Y-44775714D01*
X138996429Y-44632857D01*
X138996429Y-44204286D01*
X138925000Y-44061429D01*
X138853572Y-43990000D01*
X138710714Y-43918571D01*
X138425000Y-43918571D01*
X138282143Y-43990000D01*
X137567857Y-44918571D02*
X137567857Y-43918571D01*
X137567857Y-43418571D02*
X137639286Y-43490000D01*
X137567857Y-43561429D01*
X137496429Y-43490000D01*
X137567857Y-43418571D01*
X137567857Y-43561429D01*
X137067857Y-43918571D02*
X136496428Y-43918571D01*
X136853571Y-43418571D02*
X136853571Y-44704286D01*
X136782143Y-44847143D01*
X136639285Y-44918571D01*
X136496428Y-44918571D01*
X135996428Y-44918571D02*
X135996428Y-43418571D01*
X135353571Y-44918571D02*
X135353571Y-44132857D01*
X135425000Y-43990000D01*
X135567857Y-43918571D01*
X135782142Y-43918571D01*
X135925000Y-43990000D01*
X135996428Y-44061429D01*
X133996428Y-43918571D02*
X133996428Y-44918571D01*
X134639285Y-43918571D02*
X134639285Y-44704286D01*
X134567857Y-44847143D01*
X134424999Y-44918571D01*
X134210714Y-44918571D01*
X134067857Y-44847143D01*
X133996428Y-44775714D01*
X133282142Y-44918571D02*
X133282142Y-43418571D01*
X133282142Y-43990000D02*
X133139285Y-43918571D01*
X132853571Y-43918571D01*
X132710714Y-43990000D01*
X132639285Y-44061429D01*
X132567856Y-44204286D01*
X132567856Y-44632857D01*
X132639285Y-44775714D01*
X132710714Y-44847143D01*
X132853571Y-44918571D01*
X133139285Y-44918571D01*
X133282142Y-44847143D01*
X131924999Y-44775714D02*
X131853571Y-44847143D01*
X131924999Y-44918571D01*
X131996428Y-44847143D01*
X131924999Y-44775714D01*
X131924999Y-44918571D01*
X130567856Y-44847143D02*
X130710713Y-44918571D01*
X130996427Y-44918571D01*
X131139285Y-44847143D01*
X131210713Y-44775714D01*
X131282142Y-44632857D01*
X131282142Y-44204286D01*
X131210713Y-44061429D01*
X131139285Y-43990000D01*
X130996427Y-43918571D01*
X130710713Y-43918571D01*
X130567856Y-43990000D01*
X129710713Y-44918571D02*
X129853571Y-44847143D01*
X129924999Y-44775714D01*
X129996428Y-44632857D01*
X129996428Y-44204286D01*
X129924999Y-44061429D01*
X129853571Y-43990000D01*
X129710713Y-43918571D01*
X129496428Y-43918571D01*
X129353571Y-43990000D01*
X129282142Y-44061429D01*
X129210713Y-44204286D01*
X129210713Y-44632857D01*
X129282142Y-44775714D01*
X129353571Y-44847143D01*
X129496428Y-44918571D01*
X129710713Y-44918571D01*
X128567856Y-44918571D02*
X128567856Y-43918571D01*
X128567856Y-44061429D02*
X128496428Y-43990000D01*
X128353570Y-43918571D01*
X128139285Y-43918571D01*
X127996428Y-43990000D01*
X127924999Y-44132857D01*
X127924999Y-44918571D01*
X127924999Y-44132857D02*
X127853570Y-43990000D01*
X127710713Y-43918571D01*
X127496428Y-43918571D01*
X127353570Y-43990000D01*
X127282142Y-44132857D01*
X127282142Y-44918571D01*
X125496428Y-43347143D02*
X126782142Y-45275714D01*
X125210713Y-43918571D02*
X124639284Y-43918571D01*
X124996427Y-43418571D02*
X124996427Y-44704286D01*
X124924999Y-44847143D01*
X124782141Y-44918571D01*
X124639284Y-44918571D01*
X123567856Y-44847143D02*
X123710713Y-44918571D01*
X123996427Y-44918571D01*
X124139284Y-44847143D01*
X124210713Y-44704286D01*
X124210713Y-44132857D01*
X124139284Y-43990000D01*
X123996427Y-43918571D01*
X123710713Y-43918571D01*
X123567856Y-43990000D01*
X123496427Y-44132857D01*
X123496427Y-44275714D01*
X124210713Y-44418571D01*
X122853570Y-44918571D02*
X122853570Y-43418571D01*
X122853570Y-43990000D02*
X122710713Y-43918571D01*
X122424999Y-43918571D01*
X122282142Y-43990000D01*
X122210713Y-44061429D01*
X122139284Y-44204286D01*
X122139284Y-44632857D01*
X122210713Y-44775714D01*
X122282142Y-44847143D01*
X122424999Y-44918571D01*
X122710713Y-44918571D01*
X122853570Y-44847143D01*
X121282141Y-44918571D02*
X121424999Y-44847143D01*
X121496427Y-44704286D01*
X121496427Y-43418571D01*
D11*
X135255000Y-113665000D02*
X137160000Y-113665000D01*
X137160000Y-113665000D02*
X137795000Y-113665000D01*
X137160000Y-113030000D02*
X137160000Y-113665000D01*
X135890000Y-113030000D02*
X137160000Y-113030000D01*
X135890000Y-113665000D02*
X135890000Y-113030000D01*
X135255000Y-105410000D02*
X137795000Y-105410000D01*
X137160000Y-104775000D02*
X137160000Y-105410000D01*
X135890000Y-104775000D02*
X137160000Y-104775000D01*
X135890000Y-105410000D02*
X135890000Y-104775000D01*
D12*
X138691667Y-103957381D02*
X138691667Y-102957381D01*
X138310714Y-102957381D01*
X138215476Y-103005000D01*
X138167857Y-103052619D01*
X138120238Y-103147857D01*
X138120238Y-103290714D01*
X138167857Y-103385952D01*
X138215476Y-103433571D01*
X138310714Y-103481190D01*
X138691667Y-103481190D01*
X137548810Y-103957381D02*
X137644048Y-103909762D01*
X137691667Y-103862143D01*
X137739286Y-103766905D01*
X137739286Y-103481190D01*
X137691667Y-103385952D01*
X137644048Y-103338333D01*
X137548810Y-103290714D01*
X137405952Y-103290714D01*
X137310714Y-103338333D01*
X137263095Y-103385952D01*
X137215476Y-103481190D01*
X137215476Y-103766905D01*
X137263095Y-103862143D01*
X137310714Y-103909762D01*
X137405952Y-103957381D01*
X137548810Y-103957381D01*
X136786905Y-103957381D02*
X136786905Y-103290714D01*
X136786905Y-103481190D02*
X136739286Y-103385952D01*
X136691667Y-103338333D01*
X136596429Y-103290714D01*
X136501190Y-103290714D01*
X136310714Y-103290714D02*
X135929762Y-103290714D01*
X136167857Y-102957381D02*
X136167857Y-103814524D01*
X136120238Y-103909762D01*
X136025000Y-103957381D01*
X135929762Y-103957381D01*
X134882142Y-103052619D02*
X134834523Y-103005000D01*
X134739285Y-102957381D01*
X134501189Y-102957381D01*
X134405951Y-103005000D01*
X134358332Y-103052619D01*
X134310713Y-103147857D01*
X134310713Y-103243095D01*
X134358332Y-103385952D01*
X134929761Y-103957381D01*
X134310713Y-103957381D01*
X138691667Y-112212381D02*
X138691667Y-111212381D01*
X138310714Y-111212381D01*
X138215476Y-111260000D01*
X138167857Y-111307619D01*
X138120238Y-111402857D01*
X138120238Y-111545714D01*
X138167857Y-111640952D01*
X138215476Y-111688571D01*
X138310714Y-111736190D01*
X138691667Y-111736190D01*
X137548810Y-112212381D02*
X137644048Y-112164762D01*
X137691667Y-112117143D01*
X137739286Y-112021905D01*
X137739286Y-111736190D01*
X137691667Y-111640952D01*
X137644048Y-111593333D01*
X137548810Y-111545714D01*
X137405952Y-111545714D01*
X137310714Y-111593333D01*
X137263095Y-111640952D01*
X137215476Y-111736190D01*
X137215476Y-112021905D01*
X137263095Y-112117143D01*
X137310714Y-112164762D01*
X137405952Y-112212381D01*
X137548810Y-112212381D01*
X136786905Y-112212381D02*
X136786905Y-111545714D01*
X136786905Y-111736190D02*
X136739286Y-111640952D01*
X136691667Y-111593333D01*
X136596429Y-111545714D01*
X136501190Y-111545714D01*
X136310714Y-111545714D02*
X135929762Y-111545714D01*
X136167857Y-111212381D02*
X136167857Y-112069524D01*
X136120238Y-112164762D01*
X136025000Y-112212381D01*
X135929762Y-112212381D01*
X134310713Y-112212381D02*
X134882142Y-112212381D01*
X134596428Y-112212381D02*
X134596428Y-111212381D01*
X134691666Y-111355238D01*
X134786904Y-111450476D01*
X134882142Y-111498095D01*
M02*
