G04 #@! TF.FileFunction,Legend,Bot*
%FSLAX46Y46*%
G04 Gerber Fmt 4.6, Leading zero omitted, Abs format (unit mm)*
G04 Created by KiCad (PCBNEW 4.0.7) date 09/26/19 16:06:38*
%MOMM*%
%LPD*%
G01*
G04 APERTURE LIST*
%ADD10C,0.100000*%
%ADD11C,0.200000*%
%ADD12C,0.150000*%
G04 APERTURE END LIST*
D10*
D11*
X118110000Y-100330000D02*
X120650000Y-100330000D01*
X118745000Y-97790000D02*
X120650000Y-97790000D01*
X118745000Y-95250000D02*
X120650000Y-95250000D01*
X127000000Y-95250000D02*
X128905000Y-95250000D01*
X133350000Y-93980000D02*
X133350000Y-94615000D01*
X130810000Y-93980000D02*
X133350000Y-93980000D01*
X130810000Y-94615000D02*
X130810000Y-93980000D01*
X116840000Y-101600000D02*
X116840000Y-100965000D01*
X114300000Y-101600000D02*
X116840000Y-101600000D01*
X114300000Y-100965000D02*
X114300000Y-101600000D01*
X125095000Y-99060000D02*
X125095000Y-98425000D01*
X122555000Y-99060000D02*
X125095000Y-99060000D01*
X122555000Y-98425000D02*
X122555000Y-99060000D01*
X111125000Y-103505000D02*
X146685000Y-103505000D01*
X111125000Y-90805000D02*
X111125000Y-103505000D01*
X146685000Y-90805000D02*
X111125000Y-90805000D01*
X146685000Y-103505000D02*
X146685000Y-90805000D01*
D12*
X144334525Y-99132381D02*
X144334525Y-98132381D01*
X144096430Y-98132381D01*
X143953572Y-98180000D01*
X143858334Y-98275238D01*
X143810715Y-98370476D01*
X143763096Y-98560952D01*
X143763096Y-98703810D01*
X143810715Y-98894286D01*
X143858334Y-98989524D01*
X143953572Y-99084762D01*
X144096430Y-99132381D01*
X144334525Y-99132381D01*
X143191668Y-99132381D02*
X143286906Y-99084762D01*
X143334525Y-99037143D01*
X143382144Y-98941905D01*
X143382144Y-98656190D01*
X143334525Y-98560952D01*
X143286906Y-98513333D01*
X143191668Y-98465714D01*
X143048810Y-98465714D01*
X142953572Y-98513333D01*
X142905953Y-98560952D01*
X142858334Y-98656190D01*
X142858334Y-98941905D01*
X142905953Y-99037143D01*
X142953572Y-99084762D01*
X143048810Y-99132381D01*
X143191668Y-99132381D01*
X141667858Y-99132381D02*
X141667858Y-98132381D01*
X141096429Y-99132381D01*
X141096429Y-98132381D01*
X140429763Y-98132381D02*
X140239286Y-98132381D01*
X140144048Y-98180000D01*
X140048810Y-98275238D01*
X140001191Y-98465714D01*
X140001191Y-98799048D01*
X140048810Y-98989524D01*
X140144048Y-99084762D01*
X140239286Y-99132381D01*
X140429763Y-99132381D01*
X140525001Y-99084762D01*
X140620239Y-98989524D01*
X140667858Y-98799048D01*
X140667858Y-98465714D01*
X140620239Y-98275238D01*
X140525001Y-98180000D01*
X140429763Y-98132381D01*
X139715477Y-98132381D02*
X139144048Y-98132381D01*
X139429763Y-99132381D02*
X139429763Y-98132381D01*
X137620238Y-99084762D02*
X137715476Y-99132381D01*
X137905953Y-99132381D01*
X138001191Y-99084762D01*
X138048810Y-99037143D01*
X138096429Y-98941905D01*
X138096429Y-98656190D01*
X138048810Y-98560952D01*
X138001191Y-98513333D01*
X137905953Y-98465714D01*
X137715476Y-98465714D01*
X137620238Y-98513333D01*
X137191667Y-99132381D02*
X137191667Y-98132381D01*
X136763095Y-99132381D02*
X136763095Y-98608571D01*
X136810714Y-98513333D01*
X136905952Y-98465714D01*
X137048810Y-98465714D01*
X137144048Y-98513333D01*
X137191667Y-98560952D01*
X135858333Y-99132381D02*
X135858333Y-98608571D01*
X135905952Y-98513333D01*
X136001190Y-98465714D01*
X136191667Y-98465714D01*
X136286905Y-98513333D01*
X135858333Y-99084762D02*
X135953571Y-99132381D01*
X136191667Y-99132381D01*
X136286905Y-99084762D01*
X136334524Y-98989524D01*
X136334524Y-98894286D01*
X136286905Y-98799048D01*
X136191667Y-98751429D01*
X135953571Y-98751429D01*
X135858333Y-98703810D01*
X135382143Y-98465714D02*
X135382143Y-99132381D01*
X135382143Y-98560952D02*
X135334524Y-98513333D01*
X135239286Y-98465714D01*
X135096428Y-98465714D01*
X135001190Y-98513333D01*
X134953571Y-98608571D01*
X134953571Y-99132381D01*
X134048809Y-98465714D02*
X134048809Y-99275238D01*
X134096428Y-99370476D01*
X134144047Y-99418095D01*
X134239286Y-99465714D01*
X134382143Y-99465714D01*
X134477381Y-99418095D01*
X134048809Y-99084762D02*
X134144047Y-99132381D01*
X134334524Y-99132381D01*
X134429762Y-99084762D01*
X134477381Y-99037143D01*
X134525000Y-98941905D01*
X134525000Y-98656190D01*
X134477381Y-98560952D01*
X134429762Y-98513333D01*
X134334524Y-98465714D01*
X134144047Y-98465714D01*
X134048809Y-98513333D01*
X133191666Y-99084762D02*
X133286904Y-99132381D01*
X133477381Y-99132381D01*
X133572619Y-99084762D01*
X133620238Y-98989524D01*
X133620238Y-98608571D01*
X133572619Y-98513333D01*
X133477381Y-98465714D01*
X133286904Y-98465714D01*
X133191666Y-98513333D01*
X133144047Y-98608571D01*
X133144047Y-98703810D01*
X133620238Y-98799048D01*
X132048809Y-98465714D02*
X131858333Y-99132381D01*
X131667856Y-98656190D01*
X131477380Y-99132381D01*
X131286904Y-98465714D01*
X130905952Y-99132381D02*
X130905952Y-98132381D01*
X130477380Y-99132381D02*
X130477380Y-98608571D01*
X130524999Y-98513333D01*
X130620237Y-98465714D01*
X130763095Y-98465714D01*
X130858333Y-98513333D01*
X130905952Y-98560952D01*
X129620237Y-99084762D02*
X129715475Y-99132381D01*
X129905952Y-99132381D01*
X130001190Y-99084762D01*
X130048809Y-98989524D01*
X130048809Y-98608571D01*
X130001190Y-98513333D01*
X129905952Y-98465714D01*
X129715475Y-98465714D01*
X129620237Y-98513333D01*
X129572618Y-98608571D01*
X129572618Y-98703810D01*
X130048809Y-98799048D01*
X129144047Y-98465714D02*
X129144047Y-99132381D01*
X129144047Y-98560952D02*
X129096428Y-98513333D01*
X129001190Y-98465714D01*
X128858332Y-98465714D01*
X128763094Y-98513333D01*
X128715475Y-98608571D01*
X128715475Y-99132381D01*
X145358334Y-100115714D02*
X145358334Y-101115714D01*
X145358334Y-100163333D02*
X145263096Y-100115714D01*
X145072619Y-100115714D01*
X144977381Y-100163333D01*
X144929762Y-100210952D01*
X144882143Y-100306190D01*
X144882143Y-100591905D01*
X144929762Y-100687143D01*
X144977381Y-100734762D01*
X145072619Y-100782381D01*
X145263096Y-100782381D01*
X145358334Y-100734762D01*
X144310715Y-100782381D02*
X144405953Y-100734762D01*
X144453572Y-100687143D01*
X144501191Y-100591905D01*
X144501191Y-100306190D01*
X144453572Y-100210952D01*
X144405953Y-100163333D01*
X144310715Y-100115714D01*
X144167857Y-100115714D01*
X144072619Y-100163333D01*
X144025000Y-100210952D01*
X143977381Y-100306190D01*
X143977381Y-100591905D01*
X144025000Y-100687143D01*
X144072619Y-100734762D01*
X144167857Y-100782381D01*
X144310715Y-100782381D01*
X143644048Y-100115714D02*
X143453572Y-100782381D01*
X143263095Y-100306190D01*
X143072619Y-100782381D01*
X142882143Y-100115714D01*
X142120238Y-100734762D02*
X142215476Y-100782381D01*
X142405953Y-100782381D01*
X142501191Y-100734762D01*
X142548810Y-100639524D01*
X142548810Y-100258571D01*
X142501191Y-100163333D01*
X142405953Y-100115714D01*
X142215476Y-100115714D01*
X142120238Y-100163333D01*
X142072619Y-100258571D01*
X142072619Y-100353810D01*
X142548810Y-100449048D01*
X141644048Y-100782381D02*
X141644048Y-100115714D01*
X141644048Y-100306190D02*
X141596429Y-100210952D01*
X141548810Y-100163333D01*
X141453572Y-100115714D01*
X141358333Y-100115714D01*
X140644047Y-100734762D02*
X140739285Y-100782381D01*
X140929762Y-100782381D01*
X141025000Y-100734762D01*
X141072619Y-100639524D01*
X141072619Y-100258571D01*
X141025000Y-100163333D01*
X140929762Y-100115714D01*
X140739285Y-100115714D01*
X140644047Y-100163333D01*
X140596428Y-100258571D01*
X140596428Y-100353810D01*
X141072619Y-100449048D01*
X139739285Y-100782381D02*
X139739285Y-99782381D01*
X139739285Y-100734762D02*
X139834523Y-100782381D01*
X140025000Y-100782381D01*
X140120238Y-100734762D01*
X140167857Y-100687143D01*
X140215476Y-100591905D01*
X140215476Y-100306190D01*
X140167857Y-100210952D01*
X140120238Y-100163333D01*
X140025000Y-100115714D01*
X139834523Y-100115714D01*
X139739285Y-100163333D01*
X139215476Y-100734762D02*
X139215476Y-100782381D01*
X139263095Y-100877619D01*
X139310714Y-100925238D01*
X137596428Y-100782381D02*
X137596428Y-99782381D01*
X137596428Y-100734762D02*
X137691666Y-100782381D01*
X137882143Y-100782381D01*
X137977381Y-100734762D01*
X138025000Y-100687143D01*
X138072619Y-100591905D01*
X138072619Y-100306190D01*
X138025000Y-100210952D01*
X137977381Y-100163333D01*
X137882143Y-100115714D01*
X137691666Y-100115714D01*
X137596428Y-100163333D01*
X136977381Y-100782381D02*
X137072619Y-100734762D01*
X137120238Y-100687143D01*
X137167857Y-100591905D01*
X137167857Y-100306190D01*
X137120238Y-100210952D01*
X137072619Y-100163333D01*
X136977381Y-100115714D01*
X136834523Y-100115714D01*
X136739285Y-100163333D01*
X136691666Y-100210952D01*
X136644047Y-100306190D01*
X136644047Y-100591905D01*
X136691666Y-100687143D01*
X136739285Y-100734762D01*
X136834523Y-100782381D01*
X136977381Y-100782381D01*
X135453571Y-100115714D02*
X135453571Y-100782381D01*
X135453571Y-100210952D02*
X135405952Y-100163333D01*
X135310714Y-100115714D01*
X135167856Y-100115714D01*
X135072618Y-100163333D01*
X135024999Y-100258571D01*
X135024999Y-100782381D01*
X134405952Y-100782381D02*
X134501190Y-100734762D01*
X134548809Y-100687143D01*
X134596428Y-100591905D01*
X134596428Y-100306190D01*
X134548809Y-100210952D01*
X134501190Y-100163333D01*
X134405952Y-100115714D01*
X134263094Y-100115714D01*
X134167856Y-100163333D01*
X134120237Y-100210952D01*
X134072618Y-100306190D01*
X134072618Y-100591905D01*
X134120237Y-100687143D01*
X134167856Y-100734762D01*
X134263094Y-100782381D01*
X134405952Y-100782381D01*
X133786904Y-100115714D02*
X133405952Y-100115714D01*
X133644047Y-99782381D02*
X133644047Y-100639524D01*
X133596428Y-100734762D01*
X133501190Y-100782381D01*
X133405952Y-100782381D01*
X132310713Y-100115714D02*
X132310713Y-100972857D01*
X132358332Y-101068095D01*
X132453570Y-101115714D01*
X132501189Y-101115714D01*
X132310713Y-99782381D02*
X132358332Y-99830000D01*
X132310713Y-99877619D01*
X132263094Y-99830000D01*
X132310713Y-99782381D01*
X132310713Y-99877619D01*
X131405951Y-100115714D02*
X131405951Y-100782381D01*
X131834523Y-100115714D02*
X131834523Y-100639524D01*
X131786904Y-100734762D01*
X131691666Y-100782381D01*
X131548808Y-100782381D01*
X131453570Y-100734762D01*
X131405951Y-100687143D01*
X130929761Y-100782381D02*
X130929761Y-100115714D01*
X130929761Y-100210952D02*
X130882142Y-100163333D01*
X130786904Y-100115714D01*
X130644046Y-100115714D01*
X130548808Y-100163333D01*
X130501189Y-100258571D01*
X130501189Y-100782381D01*
X130501189Y-100258571D02*
X130453570Y-100163333D01*
X130358332Y-100115714D01*
X130215475Y-100115714D01*
X130120237Y-100163333D01*
X130072618Y-100258571D01*
X130072618Y-100782381D01*
X129596428Y-100115714D02*
X129596428Y-101115714D01*
X129596428Y-100163333D02*
X129501190Y-100115714D01*
X129310713Y-100115714D01*
X129215475Y-100163333D01*
X129167856Y-100210952D01*
X129120237Y-100306190D01*
X129120237Y-100591905D01*
X129167856Y-100687143D01*
X129215475Y-100734762D01*
X129310713Y-100782381D01*
X129501190Y-100782381D01*
X129596428Y-100734762D01*
X128310713Y-100734762D02*
X128405951Y-100782381D01*
X128596428Y-100782381D01*
X128691666Y-100734762D01*
X128739285Y-100639524D01*
X128739285Y-100258571D01*
X128691666Y-100163333D01*
X128596428Y-100115714D01*
X128405951Y-100115714D01*
X128310713Y-100163333D01*
X128263094Y-100258571D01*
X128263094Y-100353810D01*
X128739285Y-100449048D01*
X127834523Y-100782381D02*
X127834523Y-100115714D01*
X127834523Y-100306190D02*
X127786904Y-100210952D01*
X127739285Y-100163333D01*
X127644047Y-100115714D01*
X127548808Y-100115714D01*
X145882144Y-102432381D02*
X145882144Y-101765714D01*
X145882144Y-101860952D02*
X145834525Y-101813333D01*
X145739287Y-101765714D01*
X145596429Y-101765714D01*
X145501191Y-101813333D01*
X145453572Y-101908571D01*
X145453572Y-102432381D01*
X145453572Y-101908571D02*
X145405953Y-101813333D01*
X145310715Y-101765714D01*
X145167858Y-101765714D01*
X145072620Y-101813333D01*
X145025001Y-101908571D01*
X145025001Y-102432381D01*
X144405954Y-102432381D02*
X144501192Y-102384762D01*
X144548811Y-102337143D01*
X144596430Y-102241905D01*
X144596430Y-101956190D01*
X144548811Y-101860952D01*
X144501192Y-101813333D01*
X144405954Y-101765714D01*
X144263096Y-101765714D01*
X144167858Y-101813333D01*
X144120239Y-101860952D01*
X144072620Y-101956190D01*
X144072620Y-102241905D01*
X144120239Y-102337143D01*
X144167858Y-102384762D01*
X144263096Y-102432381D01*
X144405954Y-102432381D01*
X143644049Y-102432381D02*
X143644049Y-101765714D01*
X143644049Y-101956190D02*
X143596430Y-101860952D01*
X143548811Y-101813333D01*
X143453573Y-101765714D01*
X143358334Y-101765714D01*
X142644048Y-102384762D02*
X142739286Y-102432381D01*
X142929763Y-102432381D01*
X143025001Y-102384762D01*
X143072620Y-102289524D01*
X143072620Y-101908571D01*
X143025001Y-101813333D01*
X142929763Y-101765714D01*
X142739286Y-101765714D01*
X142644048Y-101813333D01*
X142596429Y-101908571D01*
X142596429Y-102003810D01*
X143072620Y-102099048D01*
X141548810Y-101765714D02*
X141167858Y-101765714D01*
X141405953Y-101432381D02*
X141405953Y-102289524D01*
X141358334Y-102384762D01*
X141263096Y-102432381D01*
X141167858Y-102432381D01*
X140834524Y-102432381D02*
X140834524Y-101432381D01*
X140405952Y-102432381D02*
X140405952Y-101908571D01*
X140453571Y-101813333D01*
X140548809Y-101765714D01*
X140691667Y-101765714D01*
X140786905Y-101813333D01*
X140834524Y-101860952D01*
X139501190Y-102432381D02*
X139501190Y-101908571D01*
X139548809Y-101813333D01*
X139644047Y-101765714D01*
X139834524Y-101765714D01*
X139929762Y-101813333D01*
X139501190Y-102384762D02*
X139596428Y-102432381D01*
X139834524Y-102432381D01*
X139929762Y-102384762D01*
X139977381Y-102289524D01*
X139977381Y-102194286D01*
X139929762Y-102099048D01*
X139834524Y-102051429D01*
X139596428Y-102051429D01*
X139501190Y-102003810D01*
X139025000Y-101765714D02*
X139025000Y-102432381D01*
X139025000Y-101860952D02*
X138977381Y-101813333D01*
X138882143Y-101765714D01*
X138739285Y-101765714D01*
X138644047Y-101813333D01*
X138596428Y-101908571D01*
X138596428Y-102432381D01*
X137215476Y-102432381D02*
X137310714Y-102384762D01*
X137358333Y-102337143D01*
X137405952Y-102241905D01*
X137405952Y-101956190D01*
X137358333Y-101860952D01*
X137310714Y-101813333D01*
X137215476Y-101765714D01*
X137072618Y-101765714D01*
X136977380Y-101813333D01*
X136929761Y-101860952D01*
X136882142Y-101956190D01*
X136882142Y-102241905D01*
X136929761Y-102337143D01*
X136977380Y-102384762D01*
X137072618Y-102432381D01*
X137215476Y-102432381D01*
X136453571Y-101765714D02*
X136453571Y-102432381D01*
X136453571Y-101860952D02*
X136405952Y-101813333D01*
X136310714Y-101765714D01*
X136167856Y-101765714D01*
X136072618Y-101813333D01*
X136024999Y-101908571D01*
X136024999Y-102432381D01*
X135120237Y-102384762D02*
X135215475Y-102432381D01*
X135405952Y-102432381D01*
X135501190Y-102384762D01*
X135548809Y-102337143D01*
X135596428Y-102241905D01*
X135596428Y-101956190D01*
X135548809Y-101860952D01*
X135501190Y-101813333D01*
X135405952Y-101765714D01*
X135215475Y-101765714D01*
X135120237Y-101813333D01*
X134310713Y-102384762D02*
X134405951Y-102432381D01*
X134596428Y-102432381D01*
X134691666Y-102384762D01*
X134739285Y-102289524D01*
X134739285Y-101908571D01*
X134691666Y-101813333D01*
X134596428Y-101765714D01*
X134405951Y-101765714D01*
X134310713Y-101813333D01*
X134263094Y-101908571D01*
X134263094Y-102003810D01*
X134739285Y-102099048D01*
X133072618Y-101765714D02*
X133072618Y-102765714D01*
X133072618Y-101813333D02*
X132977380Y-101765714D01*
X132786903Y-101765714D01*
X132691665Y-101813333D01*
X132644046Y-101860952D01*
X132596427Y-101956190D01*
X132596427Y-102241905D01*
X132644046Y-102337143D01*
X132691665Y-102384762D01*
X132786903Y-102432381D01*
X132977380Y-102432381D01*
X133072618Y-102384762D01*
X131786903Y-102384762D02*
X131882141Y-102432381D01*
X132072618Y-102432381D01*
X132167856Y-102384762D01*
X132215475Y-102289524D01*
X132215475Y-101908571D01*
X132167856Y-101813333D01*
X132072618Y-101765714D01*
X131882141Y-101765714D01*
X131786903Y-101813333D01*
X131739284Y-101908571D01*
X131739284Y-102003810D01*
X132215475Y-102099048D01*
X131310713Y-102432381D02*
X131310713Y-101765714D01*
X131310713Y-101956190D02*
X131263094Y-101860952D01*
X131215475Y-101813333D01*
X131120237Y-101765714D01*
X131024998Y-101765714D01*
X129786903Y-102432381D02*
X129882141Y-102384762D01*
X129929760Y-102289524D01*
X129929760Y-101432381D01*
X129405950Y-102432381D02*
X129405950Y-101765714D01*
X129405950Y-101432381D02*
X129453569Y-101480000D01*
X129405950Y-101527619D01*
X129358331Y-101480000D01*
X129405950Y-101432381D01*
X129405950Y-101527619D01*
X128929760Y-101765714D02*
X128929760Y-102432381D01*
X128929760Y-101860952D02*
X128882141Y-101813333D01*
X128786903Y-101765714D01*
X128644045Y-101765714D01*
X128548807Y-101813333D01*
X128501188Y-101908571D01*
X128501188Y-102432381D01*
X127644045Y-102384762D02*
X127739283Y-102432381D01*
X127929760Y-102432381D01*
X128024998Y-102384762D01*
X128072617Y-102289524D01*
X128072617Y-101908571D01*
X128024998Y-101813333D01*
X127929760Y-101765714D01*
X127739283Y-101765714D01*
X127644045Y-101813333D01*
X127596426Y-101908571D01*
X127596426Y-102003810D01*
X128072617Y-102099048D01*
X127167855Y-102337143D02*
X127120236Y-102384762D01*
X127167855Y-102432381D01*
X127215474Y-102384762D01*
X127167855Y-102337143D01*
X127167855Y-102432381D01*
X127167855Y-102051429D02*
X127215474Y-101480000D01*
X127167855Y-101432381D01*
X127120236Y-101480000D01*
X127167855Y-102051429D01*
X127167855Y-101432381D01*
X136404999Y-87108571D02*
X137119285Y-87108571D01*
X137119285Y-85608571D01*
X135904999Y-87108571D02*
X135904999Y-86108571D01*
X135904999Y-85608571D02*
X135976428Y-85680000D01*
X135904999Y-85751429D01*
X135833571Y-85680000D01*
X135904999Y-85608571D01*
X135904999Y-85751429D01*
X134547856Y-87037143D02*
X134690713Y-87108571D01*
X134976427Y-87108571D01*
X135119285Y-87037143D01*
X135190713Y-86965714D01*
X135262142Y-86822857D01*
X135262142Y-86394286D01*
X135190713Y-86251429D01*
X135119285Y-86180000D01*
X134976427Y-86108571D01*
X134690713Y-86108571D01*
X134547856Y-86180000D01*
X133333571Y-87037143D02*
X133476428Y-87108571D01*
X133762142Y-87108571D01*
X133904999Y-87037143D01*
X133976428Y-86894286D01*
X133976428Y-86322857D01*
X133904999Y-86180000D01*
X133762142Y-86108571D01*
X133476428Y-86108571D01*
X133333571Y-86180000D01*
X133262142Y-86322857D01*
X133262142Y-86465714D01*
X133976428Y-86608571D01*
X132619285Y-86108571D02*
X132619285Y-87108571D01*
X132619285Y-86251429D02*
X132547857Y-86180000D01*
X132404999Y-86108571D01*
X132190714Y-86108571D01*
X132047857Y-86180000D01*
X131976428Y-86322857D01*
X131976428Y-87108571D01*
X131333571Y-87037143D02*
X131190714Y-87108571D01*
X130904999Y-87108571D01*
X130762142Y-87037143D01*
X130690714Y-86894286D01*
X130690714Y-86822857D01*
X130762142Y-86680000D01*
X130904999Y-86608571D01*
X131119285Y-86608571D01*
X131262142Y-86537143D01*
X131333571Y-86394286D01*
X131333571Y-86322857D01*
X131262142Y-86180000D01*
X131119285Y-86108571D01*
X130904999Y-86108571D01*
X130762142Y-86180000D01*
X129476428Y-87037143D02*
X129619285Y-87108571D01*
X129904999Y-87108571D01*
X130047856Y-87037143D01*
X130119285Y-86894286D01*
X130119285Y-86322857D01*
X130047856Y-86180000D01*
X129904999Y-86108571D01*
X129619285Y-86108571D01*
X129476428Y-86180000D01*
X129404999Y-86322857D01*
X129404999Y-86465714D01*
X130119285Y-86608571D01*
X128119285Y-87108571D02*
X128119285Y-85608571D01*
X128119285Y-87037143D02*
X128262142Y-87108571D01*
X128547856Y-87108571D01*
X128690714Y-87037143D01*
X128762142Y-86965714D01*
X128833571Y-86822857D01*
X128833571Y-86394286D01*
X128762142Y-86251429D01*
X128690714Y-86180000D01*
X128547856Y-86108571D01*
X128262142Y-86108571D01*
X128119285Y-86180000D01*
X125619285Y-86108571D02*
X125619285Y-87108571D01*
X126262142Y-86108571D02*
X126262142Y-86894286D01*
X126190714Y-87037143D01*
X126047856Y-87108571D01*
X125833571Y-87108571D01*
X125690714Y-87037143D01*
X125619285Y-86965714D01*
X124904999Y-86108571D02*
X124904999Y-87108571D01*
X124904999Y-86251429D02*
X124833571Y-86180000D01*
X124690713Y-86108571D01*
X124476428Y-86108571D01*
X124333571Y-86180000D01*
X124262142Y-86322857D01*
X124262142Y-87108571D01*
X122904999Y-87108571D02*
X122904999Y-85608571D01*
X122904999Y-87037143D02*
X123047856Y-87108571D01*
X123333570Y-87108571D01*
X123476428Y-87037143D01*
X123547856Y-86965714D01*
X123619285Y-86822857D01*
X123619285Y-86394286D01*
X123547856Y-86251429D01*
X123476428Y-86180000D01*
X123333570Y-86108571D01*
X123047856Y-86108571D01*
X122904999Y-86180000D01*
X121619285Y-87037143D02*
X121762142Y-87108571D01*
X122047856Y-87108571D01*
X122190713Y-87037143D01*
X122262142Y-86894286D01*
X122262142Y-86322857D01*
X122190713Y-86180000D01*
X122047856Y-86108571D01*
X121762142Y-86108571D01*
X121619285Y-86180000D01*
X121547856Y-86322857D01*
X121547856Y-86465714D01*
X122262142Y-86608571D01*
X120904999Y-87108571D02*
X120904999Y-86108571D01*
X120904999Y-86394286D02*
X120833571Y-86251429D01*
X120762142Y-86180000D01*
X120619285Y-86108571D01*
X120476428Y-86108571D01*
X136690714Y-89365714D02*
X136762143Y-89437143D01*
X136976429Y-89508571D01*
X137119286Y-89508571D01*
X137333571Y-89437143D01*
X137476429Y-89294286D01*
X137547857Y-89151429D01*
X137619286Y-88865714D01*
X137619286Y-88651429D01*
X137547857Y-88365714D01*
X137476429Y-88222857D01*
X137333571Y-88080000D01*
X137119286Y-88008571D01*
X136976429Y-88008571D01*
X136762143Y-88080000D01*
X136690714Y-88151429D01*
X136047857Y-88722857D02*
X135547857Y-88722857D01*
X135333571Y-89508571D02*
X136047857Y-89508571D01*
X136047857Y-88008571D01*
X135333571Y-88008571D01*
X133833571Y-89508571D02*
X134333571Y-88794286D01*
X134690714Y-89508571D02*
X134690714Y-88008571D01*
X134119286Y-88008571D01*
X133976428Y-88080000D01*
X133905000Y-88151429D01*
X133833571Y-88294286D01*
X133833571Y-88508571D01*
X133905000Y-88651429D01*
X133976428Y-88722857D01*
X134119286Y-88794286D01*
X134690714Y-88794286D01*
X133190714Y-89508571D02*
X133190714Y-88008571D01*
X132333571Y-89508571D01*
X132333571Y-88008571D01*
X130190714Y-88008571D02*
X129905000Y-88008571D01*
X129762142Y-88080000D01*
X129619285Y-88222857D01*
X129547857Y-88508571D01*
X129547857Y-89008571D01*
X129619285Y-89294286D01*
X129762142Y-89437143D01*
X129905000Y-89508571D01*
X130190714Y-89508571D01*
X130333571Y-89437143D01*
X130476428Y-89294286D01*
X130547857Y-89008571D01*
X130547857Y-88508571D01*
X130476428Y-88222857D01*
X130333571Y-88080000D01*
X130190714Y-88008571D01*
X128904999Y-89508571D02*
X128904999Y-88008571D01*
X128904999Y-88722857D02*
X128047856Y-88722857D01*
X128047856Y-89508571D02*
X128047856Y-88008571D01*
X126619284Y-89508571D02*
X127333570Y-89508571D01*
X127333570Y-88008571D01*
X125119284Y-88508571D02*
X124762141Y-89508571D01*
X124404999Y-88508571D01*
X123833570Y-89365714D02*
X123762142Y-89437143D01*
X123833570Y-89508571D01*
X123904999Y-89437143D01*
X123833570Y-89365714D01*
X123833570Y-89508571D01*
X122333570Y-89508571D02*
X123190713Y-89508571D01*
X122762141Y-89508571D02*
X122762141Y-88008571D01*
X122904998Y-88222857D01*
X123047856Y-88365714D01*
X123190713Y-88437143D01*
X121690713Y-89365714D02*
X121619285Y-89437143D01*
X121690713Y-89508571D01*
X121762142Y-89437143D01*
X121690713Y-89365714D01*
X121690713Y-89508571D01*
X121047856Y-88151429D02*
X120976427Y-88080000D01*
X120833570Y-88008571D01*
X120476427Y-88008571D01*
X120333570Y-88080000D01*
X120262141Y-88151429D01*
X120190713Y-88294286D01*
X120190713Y-88437143D01*
X120262141Y-88651429D01*
X121119284Y-89508571D01*
X120190713Y-89508571D01*
X110418571Y-60372858D02*
X110466190Y-60515715D01*
X110513810Y-60563334D01*
X110609048Y-60610953D01*
X110751905Y-60610953D01*
X110847143Y-60563334D01*
X110894762Y-60515715D01*
X110942381Y-60420477D01*
X110942381Y-60039524D01*
X109942381Y-60039524D01*
X109942381Y-60372858D01*
X109990000Y-60468096D01*
X110037619Y-60515715D01*
X110132857Y-60563334D01*
X110228095Y-60563334D01*
X110323333Y-60515715D01*
X110370952Y-60468096D01*
X110418571Y-60372858D01*
X110418571Y-60039524D01*
X110847143Y-61610953D02*
X110894762Y-61563334D01*
X110942381Y-61420477D01*
X110942381Y-61325239D01*
X110894762Y-61182381D01*
X110799524Y-61087143D01*
X110704286Y-61039524D01*
X110513810Y-60991905D01*
X110370952Y-60991905D01*
X110180476Y-61039524D01*
X110085238Y-61087143D01*
X109990000Y-61182381D01*
X109942381Y-61325239D01*
X109942381Y-61420477D01*
X109990000Y-61563334D01*
X110037619Y-61610953D01*
X109942381Y-62515715D02*
X109942381Y-62039524D01*
X110418571Y-61991905D01*
X110370952Y-62039524D01*
X110323333Y-62134762D01*
X110323333Y-62372858D01*
X110370952Y-62468096D01*
X110418571Y-62515715D01*
X110513810Y-62563334D01*
X110751905Y-62563334D01*
X110847143Y-62515715D01*
X110894762Y-62468096D01*
X110942381Y-62372858D01*
X110942381Y-62134762D01*
X110894762Y-62039524D01*
X110847143Y-61991905D01*
X110275714Y-63420477D02*
X110942381Y-63420477D01*
X109894762Y-63182381D02*
X110609048Y-62944286D01*
X110609048Y-63563334D01*
X109942381Y-63849048D02*
X109942381Y-64515715D01*
X110942381Y-64087143D01*
M02*
