G04 #@! TF.FileFunction,Legend,Top*
%FSLAX46Y46*%
G04 Gerber Fmt 4.6, Leading zero omitted, Abs format (unit mm)*
G04 Created by KiCad (PCBNEW 4.0.7) date 06/26/19 20:01:54*
%MOMM*%
%LPD*%
G01*
G04 APERTURE LIST*
%ADD10C,0.100000*%
%ADD11C,0.200000*%
%ADD12C,0.150000*%
%ADD13C,0.120000*%
G04 APERTURE END LIST*
D10*
D11*
X137160000Y-85090000D02*
X137160000Y-84455000D01*
X135255000Y-85090000D02*
X137160000Y-85090000D01*
X135255000Y-84455000D02*
X135255000Y-85090000D01*
X137160000Y-76200000D02*
X137160000Y-75565000D01*
X135255000Y-76200000D02*
X137160000Y-76200000D01*
X135255000Y-75565000D02*
X135255000Y-76200000D01*
X135890000Y-92710000D02*
X136525000Y-92710000D01*
X136525000Y-92075000D02*
X135890000Y-92710000D01*
X136525000Y-92710000D02*
X135890000Y-92075000D01*
X137160000Y-93345000D02*
X136525000Y-93345000D01*
X137160000Y-92710000D02*
X137160000Y-93345000D01*
X136525000Y-92710000D02*
X137160000Y-92710000D01*
X136525000Y-92075000D02*
X136525000Y-92710000D01*
X135890000Y-92075000D02*
X136525000Y-92075000D01*
X135890000Y-92710000D02*
X135890000Y-92075000D01*
X135255000Y-92710000D02*
X135890000Y-92710000D01*
X135255000Y-93345000D02*
X135255000Y-92710000D01*
X135890000Y-93345000D02*
X135255000Y-93345000D01*
X136525000Y-93980000D02*
X136525000Y-93345000D01*
X135890000Y-93980000D02*
X136525000Y-93980000D01*
X135890000Y-93345000D02*
X135890000Y-93980000D01*
X135890000Y-84455000D02*
X135255000Y-84455000D01*
X135890000Y-83820000D02*
X135890000Y-84455000D01*
X136525000Y-83820000D02*
X135890000Y-83820000D01*
X136525000Y-84455000D02*
X136525000Y-83820000D01*
X137160000Y-84455000D02*
X136525000Y-84455000D01*
X135890000Y-75565000D02*
X135255000Y-75565000D01*
X135890000Y-74930000D02*
X135890000Y-75565000D01*
X136525000Y-74930000D02*
X135890000Y-74930000D01*
X136525000Y-75565000D02*
X136525000Y-74930000D01*
X137160000Y-75565000D02*
X136525000Y-75565000D01*
D12*
X126301429Y-75493571D02*
X126444286Y-75541190D01*
X126491905Y-75588810D01*
X126539524Y-75684048D01*
X126539524Y-75826905D01*
X126491905Y-75922143D01*
X126444286Y-75969762D01*
X126349048Y-76017381D01*
X125968095Y-76017381D01*
X125968095Y-75017381D01*
X126301429Y-75017381D01*
X126396667Y-75065000D01*
X126444286Y-75112619D01*
X126491905Y-75207857D01*
X126491905Y-75303095D01*
X126444286Y-75398333D01*
X126396667Y-75445952D01*
X126301429Y-75493571D01*
X125968095Y-75493571D01*
X127682381Y-75969762D02*
X127825238Y-76017381D01*
X128063334Y-76017381D01*
X128158572Y-75969762D01*
X128206191Y-75922143D01*
X128253810Y-75826905D01*
X128253810Y-75731667D01*
X128206191Y-75636429D01*
X128158572Y-75588810D01*
X128063334Y-75541190D01*
X127872857Y-75493571D01*
X127777619Y-75445952D01*
X127730000Y-75398333D01*
X127682381Y-75303095D01*
X127682381Y-75207857D01*
X127730000Y-75112619D01*
X127777619Y-75065000D01*
X127872857Y-75017381D01*
X128110953Y-75017381D01*
X128253810Y-75065000D01*
X128682381Y-75493571D02*
X129015715Y-75493571D01*
X129158572Y-76017381D02*
X128682381Y-76017381D01*
X128682381Y-75017381D01*
X129158572Y-75017381D01*
X130063334Y-76017381D02*
X129587143Y-76017381D01*
X129587143Y-75017381D01*
X130396667Y-75493571D02*
X130730001Y-75493571D01*
X130872858Y-76017381D02*
X130396667Y-76017381D01*
X130396667Y-75017381D01*
X130872858Y-75017381D01*
X131872858Y-75922143D02*
X131825239Y-75969762D01*
X131682382Y-76017381D01*
X131587144Y-76017381D01*
X131444286Y-75969762D01*
X131349048Y-75874524D01*
X131301429Y-75779286D01*
X131253810Y-75588810D01*
X131253810Y-75445952D01*
X131301429Y-75255476D01*
X131349048Y-75160238D01*
X131444286Y-75065000D01*
X131587144Y-75017381D01*
X131682382Y-75017381D01*
X131825239Y-75065000D01*
X131872858Y-75112619D01*
X132158572Y-75017381D02*
X132730001Y-75017381D01*
X132444286Y-76017381D02*
X132444286Y-75017381D01*
X126539524Y-84812143D02*
X126491905Y-84859762D01*
X126349048Y-84907381D01*
X126253810Y-84907381D01*
X126110952Y-84859762D01*
X126015714Y-84764524D01*
X125968095Y-84669286D01*
X125920476Y-84478810D01*
X125920476Y-84335952D01*
X125968095Y-84145476D01*
X126015714Y-84050238D01*
X126110952Y-83955000D01*
X126253810Y-83907381D01*
X126349048Y-83907381D01*
X126491905Y-83955000D01*
X126539524Y-84002619D01*
X127682381Y-84859762D02*
X127825238Y-84907381D01*
X128063334Y-84907381D01*
X128158572Y-84859762D01*
X128206191Y-84812143D01*
X128253810Y-84716905D01*
X128253810Y-84621667D01*
X128206191Y-84526429D01*
X128158572Y-84478810D01*
X128063334Y-84431190D01*
X127872857Y-84383571D01*
X127777619Y-84335952D01*
X127730000Y-84288333D01*
X127682381Y-84193095D01*
X127682381Y-84097857D01*
X127730000Y-84002619D01*
X127777619Y-83955000D01*
X127872857Y-83907381D01*
X128110953Y-83907381D01*
X128253810Y-83955000D01*
X128682381Y-84383571D02*
X129015715Y-84383571D01*
X129158572Y-84907381D02*
X128682381Y-84907381D01*
X128682381Y-83907381D01*
X129158572Y-83907381D01*
X130063334Y-84907381D02*
X129587143Y-84907381D01*
X129587143Y-83907381D01*
X130396667Y-84383571D02*
X130730001Y-84383571D01*
X130872858Y-84907381D02*
X130396667Y-84907381D01*
X130396667Y-83907381D01*
X130872858Y-83907381D01*
X131872858Y-84812143D02*
X131825239Y-84859762D01*
X131682382Y-84907381D01*
X131587144Y-84907381D01*
X131444286Y-84859762D01*
X131349048Y-84764524D01*
X131301429Y-84669286D01*
X131253810Y-84478810D01*
X131253810Y-84335952D01*
X131301429Y-84145476D01*
X131349048Y-84050238D01*
X131444286Y-83955000D01*
X131587144Y-83907381D01*
X131682382Y-83907381D01*
X131825239Y-83955000D01*
X131872858Y-84002619D01*
X132158572Y-83907381D02*
X132730001Y-83907381D01*
X132444286Y-84907381D02*
X132444286Y-83907381D01*
D11*
X137160000Y-81915000D02*
X137160000Y-79375000D01*
X125095000Y-81915000D02*
X137160000Y-81915000D01*
X125095000Y-76835000D02*
X125095000Y-81915000D01*
X137160000Y-79375000D02*
X125095000Y-79375000D01*
X137160000Y-76835000D02*
X137160000Y-79375000D01*
X125095000Y-76835000D02*
X137160000Y-76835000D01*
X125095000Y-88265000D02*
X137160000Y-88265000D01*
X137160000Y-85725000D02*
X125095000Y-85725000D01*
X137160000Y-90805000D02*
X137160000Y-85725000D01*
X125095000Y-90805000D02*
X137160000Y-90805000D01*
X125095000Y-85725000D02*
X125095000Y-90805000D01*
X125095000Y-97155000D02*
X137160000Y-97155000D01*
X125095000Y-94615000D02*
X125095000Y-97155000D01*
X137160000Y-94615000D02*
X125095000Y-94615000D01*
X137160000Y-97155000D02*
X137160000Y-94615000D01*
D12*
X125968095Y-93797381D02*
X125968095Y-92797381D01*
X126206190Y-92797381D01*
X126349048Y-92845000D01*
X126444286Y-92940238D01*
X126491905Y-93035476D01*
X126539524Y-93225952D01*
X126539524Y-93368810D01*
X126491905Y-93559286D01*
X126444286Y-93654524D01*
X126349048Y-93749762D01*
X126206190Y-93797381D01*
X125968095Y-93797381D01*
X126968095Y-93416429D02*
X127730000Y-93416429D01*
X128206190Y-93797381D02*
X128206190Y-92797381D01*
X128587143Y-92797381D01*
X128682381Y-92845000D01*
X128730000Y-92892619D01*
X128777619Y-92987857D01*
X128777619Y-93130714D01*
X128730000Y-93225952D01*
X128682381Y-93273571D01*
X128587143Y-93321190D01*
X128206190Y-93321190D01*
X129158571Y-93511667D02*
X129634762Y-93511667D01*
X129063333Y-93797381D02*
X129396666Y-92797381D01*
X129730000Y-93797381D01*
X130063333Y-93797381D02*
X130063333Y-92797381D01*
X130301428Y-92797381D01*
X130444286Y-92845000D01*
X130539524Y-92940238D01*
X130587143Y-93035476D01*
X130634762Y-93225952D01*
X130634762Y-93368810D01*
X130587143Y-93559286D01*
X130539524Y-93654524D01*
X130444286Y-93749762D01*
X130301428Y-93797381D01*
X130063333Y-93797381D01*
X131825238Y-92797381D02*
X131825238Y-93606905D01*
X131872857Y-93702143D01*
X131920476Y-93749762D01*
X132015714Y-93797381D01*
X132206191Y-93797381D01*
X132301429Y-93749762D01*
X132349048Y-93702143D01*
X132396667Y-93606905D01*
X132396667Y-92797381D01*
X132872857Y-93797381D02*
X132872857Y-92797381D01*
X133253810Y-92797381D01*
X133349048Y-92845000D01*
X133396667Y-92892619D01*
X133444286Y-92987857D01*
X133444286Y-93130714D01*
X133396667Y-93225952D01*
X133349048Y-93273571D01*
X133253810Y-93321190D01*
X132872857Y-93321190D01*
X131683095Y-95813571D02*
X132016429Y-95813571D01*
X132159286Y-96337381D02*
X131683095Y-96337381D01*
X131683095Y-95337381D01*
X132159286Y-95337381D01*
X132587857Y-95670714D02*
X132587857Y-96337381D01*
X132587857Y-95765952D02*
X132635476Y-95718333D01*
X132730714Y-95670714D01*
X132873572Y-95670714D01*
X132968810Y-95718333D01*
X133016429Y-95813571D01*
X133016429Y-96337381D01*
X133921191Y-96337381D02*
X133921191Y-95813571D01*
X133873572Y-95718333D01*
X133778334Y-95670714D01*
X133587857Y-95670714D01*
X133492619Y-95718333D01*
X133921191Y-96289762D02*
X133825953Y-96337381D01*
X133587857Y-96337381D01*
X133492619Y-96289762D01*
X133445000Y-96194524D01*
X133445000Y-96099286D01*
X133492619Y-96004048D01*
X133587857Y-95956429D01*
X133825953Y-95956429D01*
X133921191Y-95908810D01*
X134397381Y-96337381D02*
X134397381Y-95337381D01*
X134397381Y-95718333D02*
X134492619Y-95670714D01*
X134683096Y-95670714D01*
X134778334Y-95718333D01*
X134825953Y-95765952D01*
X134873572Y-95861190D01*
X134873572Y-96146905D01*
X134825953Y-96242143D01*
X134778334Y-96289762D01*
X134683096Y-96337381D01*
X134492619Y-96337381D01*
X134397381Y-96289762D01*
X135445000Y-96337381D02*
X135349762Y-96289762D01*
X135302143Y-96194524D01*
X135302143Y-95337381D01*
X136206906Y-96289762D02*
X136111668Y-96337381D01*
X135921191Y-96337381D01*
X135825953Y-96289762D01*
X135778334Y-96194524D01*
X135778334Y-95813571D01*
X135825953Y-95718333D01*
X135921191Y-95670714D01*
X136111668Y-95670714D01*
X136206906Y-95718333D01*
X136254525Y-95813571D01*
X136254525Y-95908810D01*
X135778334Y-96004048D01*
X132016429Y-89463571D02*
X131683095Y-89463571D01*
X131683095Y-89987381D02*
X131683095Y-88987381D01*
X132159286Y-88987381D01*
X132540238Y-89987381D02*
X132540238Y-88987381D01*
X133587857Y-89987381D02*
X133254523Y-89511190D01*
X133016428Y-89987381D02*
X133016428Y-88987381D01*
X133397381Y-88987381D01*
X133492619Y-89035000D01*
X133540238Y-89082619D01*
X133587857Y-89177857D01*
X133587857Y-89320714D01*
X133540238Y-89415952D01*
X133492619Y-89463571D01*
X133397381Y-89511190D01*
X133016428Y-89511190D01*
X134016428Y-89463571D02*
X134349762Y-89463571D01*
X134492619Y-89987381D02*
X134016428Y-89987381D01*
X134016428Y-88987381D01*
X134492619Y-88987381D01*
X131683095Y-86447381D02*
X131683095Y-87256905D01*
X131730714Y-87352143D01*
X131778333Y-87399762D01*
X131873571Y-87447381D01*
X132064048Y-87447381D01*
X132159286Y-87399762D01*
X132206905Y-87352143D01*
X132254524Y-87256905D01*
X132254524Y-86447381D01*
X132730714Y-87447381D02*
X132730714Y-86447381D01*
X133111667Y-86447381D01*
X133206905Y-86495000D01*
X133254524Y-86542619D01*
X133302143Y-86637857D01*
X133302143Y-86780714D01*
X133254524Y-86875952D01*
X133206905Y-86923571D01*
X133111667Y-86971190D01*
X132730714Y-86971190D01*
X132016429Y-80573571D02*
X131683095Y-80573571D01*
X131683095Y-81097381D02*
X131683095Y-80097381D01*
X132159286Y-80097381D01*
X132540238Y-81097381D02*
X132540238Y-80097381D01*
X133587857Y-81097381D02*
X133254523Y-80621190D01*
X133016428Y-81097381D02*
X133016428Y-80097381D01*
X133397381Y-80097381D01*
X133492619Y-80145000D01*
X133540238Y-80192619D01*
X133587857Y-80287857D01*
X133587857Y-80430714D01*
X133540238Y-80525952D01*
X133492619Y-80573571D01*
X133397381Y-80621190D01*
X133016428Y-80621190D01*
X134016428Y-80573571D02*
X134349762Y-80573571D01*
X134492619Y-81097381D02*
X134016428Y-81097381D01*
X134016428Y-80097381D01*
X134492619Y-80097381D01*
X131683095Y-77557381D02*
X131683095Y-78366905D01*
X131730714Y-78462143D01*
X131778333Y-78509762D01*
X131873571Y-78557381D01*
X132064048Y-78557381D01*
X132159286Y-78509762D01*
X132206905Y-78462143D01*
X132254524Y-78366905D01*
X132254524Y-77557381D01*
X132730714Y-78557381D02*
X132730714Y-77557381D01*
X133111667Y-77557381D01*
X133206905Y-77605000D01*
X133254524Y-77652619D01*
X133302143Y-77747857D01*
X133302143Y-77890714D01*
X133254524Y-77985952D01*
X133206905Y-78033571D01*
X133111667Y-78081190D01*
X132730714Y-78081190D01*
D11*
X135255000Y-112395000D02*
X137160000Y-112395000D01*
X137160000Y-112395000D02*
X137795000Y-112395000D01*
X137160000Y-111760000D02*
X137160000Y-112395000D01*
X135890000Y-111760000D02*
X137160000Y-111760000D01*
X135890000Y-112395000D02*
X135890000Y-111760000D01*
X135255000Y-104775000D02*
X137795000Y-104775000D01*
X137160000Y-104140000D02*
X137160000Y-104775000D01*
X135890000Y-104140000D02*
X137160000Y-104140000D01*
X135890000Y-104775000D02*
X135890000Y-104140000D01*
D12*
X122944858Y-39213714D02*
X122873429Y-39285143D01*
X122659143Y-39356571D01*
X122516286Y-39356571D01*
X122302001Y-39285143D01*
X122159143Y-39142286D01*
X122087715Y-38999429D01*
X122016286Y-38713714D01*
X122016286Y-38499429D01*
X122087715Y-38213714D01*
X122159143Y-38070857D01*
X122302001Y-37928000D01*
X122516286Y-37856571D01*
X122659143Y-37856571D01*
X122873429Y-37928000D01*
X122944858Y-37999429D01*
X123802001Y-39356571D02*
X123659143Y-39285143D01*
X123587715Y-39213714D01*
X123516286Y-39070857D01*
X123516286Y-38642286D01*
X123587715Y-38499429D01*
X123659143Y-38428000D01*
X123802001Y-38356571D01*
X124016286Y-38356571D01*
X124159143Y-38428000D01*
X124230572Y-38499429D01*
X124302001Y-38642286D01*
X124302001Y-39070857D01*
X124230572Y-39213714D01*
X124159143Y-39285143D01*
X124016286Y-39356571D01*
X123802001Y-39356571D01*
X124944858Y-39356571D02*
X124944858Y-38356571D01*
X124944858Y-38499429D02*
X125016286Y-38428000D01*
X125159144Y-38356571D01*
X125373429Y-38356571D01*
X125516286Y-38428000D01*
X125587715Y-38570857D01*
X125587715Y-39356571D01*
X125587715Y-38570857D02*
X125659144Y-38428000D01*
X125802001Y-38356571D01*
X126016286Y-38356571D01*
X126159144Y-38428000D01*
X126230572Y-38570857D01*
X126230572Y-39356571D01*
X126944858Y-39356571D02*
X126944858Y-38356571D01*
X126944858Y-38499429D02*
X127016286Y-38428000D01*
X127159144Y-38356571D01*
X127373429Y-38356571D01*
X127516286Y-38428000D01*
X127587715Y-38570857D01*
X127587715Y-39356571D01*
X127587715Y-38570857D02*
X127659144Y-38428000D01*
X127802001Y-38356571D01*
X128016286Y-38356571D01*
X128159144Y-38428000D01*
X128230572Y-38570857D01*
X128230572Y-39356571D01*
X129159144Y-39356571D02*
X129016286Y-39285143D01*
X128944858Y-39213714D01*
X128873429Y-39070857D01*
X128873429Y-38642286D01*
X128944858Y-38499429D01*
X129016286Y-38428000D01*
X129159144Y-38356571D01*
X129373429Y-38356571D01*
X129516286Y-38428000D01*
X129587715Y-38499429D01*
X129659144Y-38642286D01*
X129659144Y-39070857D01*
X129587715Y-39213714D01*
X129516286Y-39285143D01*
X129373429Y-39356571D01*
X129159144Y-39356571D01*
X130944858Y-39356571D02*
X130944858Y-37856571D01*
X130944858Y-39285143D02*
X130802001Y-39356571D01*
X130516287Y-39356571D01*
X130373429Y-39285143D01*
X130302001Y-39213714D01*
X130230572Y-39070857D01*
X130230572Y-38642286D01*
X130302001Y-38499429D01*
X130373429Y-38428000D01*
X130516287Y-38356571D01*
X130802001Y-38356571D01*
X130944858Y-38428000D01*
X131873430Y-39356571D02*
X131730572Y-39285143D01*
X131659144Y-39213714D01*
X131587715Y-39070857D01*
X131587715Y-38642286D01*
X131659144Y-38499429D01*
X131730572Y-38428000D01*
X131873430Y-38356571D01*
X132087715Y-38356571D01*
X132230572Y-38428000D01*
X132302001Y-38499429D01*
X132373430Y-38642286D01*
X132373430Y-39070857D01*
X132302001Y-39213714D01*
X132230572Y-39285143D01*
X132087715Y-39356571D01*
X131873430Y-39356571D01*
X133016287Y-39356571D02*
X133016287Y-38356571D01*
X133016287Y-38642286D02*
X133087715Y-38499429D01*
X133159144Y-38428000D01*
X133302001Y-38356571D01*
X133444858Y-38356571D01*
X134516286Y-39285143D02*
X134373429Y-39356571D01*
X134087715Y-39356571D01*
X133944858Y-39285143D01*
X133873429Y-39142286D01*
X133873429Y-38570857D01*
X133944858Y-38428000D01*
X134087715Y-38356571D01*
X134373429Y-38356571D01*
X134516286Y-38428000D01*
X134587715Y-38570857D01*
X134587715Y-38713714D01*
X133873429Y-38856571D01*
X137016286Y-37856571D02*
X136730572Y-37856571D01*
X136587715Y-37928000D01*
X136516286Y-37999429D01*
X136373429Y-38213714D01*
X136302000Y-38499429D01*
X136302000Y-39070857D01*
X136373429Y-39213714D01*
X136444857Y-39285143D01*
X136587715Y-39356571D01*
X136873429Y-39356571D01*
X137016286Y-39285143D01*
X137087715Y-39213714D01*
X137159143Y-39070857D01*
X137159143Y-38713714D01*
X137087715Y-38570857D01*
X137016286Y-38499429D01*
X136873429Y-38428000D01*
X136587715Y-38428000D01*
X136444857Y-38499429D01*
X136373429Y-38570857D01*
X136302000Y-38713714D01*
X138444857Y-38356571D02*
X138444857Y-39356571D01*
X138087714Y-37785143D02*
X137730571Y-38856571D01*
X138659143Y-38856571D01*
X122444858Y-41756571D02*
X122444858Y-40256571D01*
X122944858Y-41328000D01*
X123444858Y-40256571D01*
X123444858Y-41756571D01*
X124159144Y-40970857D02*
X124659144Y-40970857D01*
X124873430Y-41756571D02*
X124159144Y-41756571D01*
X124159144Y-40256571D01*
X124873430Y-40256571D01*
X126302001Y-40328000D02*
X126159144Y-40256571D01*
X125944858Y-40256571D01*
X125730573Y-40328000D01*
X125587715Y-40470857D01*
X125516287Y-40613714D01*
X125444858Y-40899429D01*
X125444858Y-41113714D01*
X125516287Y-41399429D01*
X125587715Y-41542286D01*
X125730573Y-41685143D01*
X125944858Y-41756571D01*
X126087715Y-41756571D01*
X126302001Y-41685143D01*
X126373430Y-41613714D01*
X126373430Y-41113714D01*
X126087715Y-41113714D01*
X126944858Y-41328000D02*
X127659144Y-41328000D01*
X126802001Y-41756571D02*
X127302001Y-40256571D01*
X127802001Y-41756571D01*
X129373429Y-41685143D02*
X129587715Y-41756571D01*
X129944858Y-41756571D01*
X130087715Y-41685143D01*
X130159144Y-41613714D01*
X130230572Y-41470857D01*
X130230572Y-41328000D01*
X130159144Y-41185143D01*
X130087715Y-41113714D01*
X129944858Y-41042286D01*
X129659144Y-40970857D01*
X129516286Y-40899429D01*
X129444858Y-40828000D01*
X129373429Y-40685143D01*
X129373429Y-40542286D01*
X129444858Y-40399429D01*
X129516286Y-40328000D01*
X129659144Y-40256571D01*
X130016286Y-40256571D01*
X130230572Y-40328000D01*
X130730572Y-40756571D02*
X131016286Y-41756571D01*
X131302000Y-41042286D01*
X131587715Y-41756571D01*
X131873429Y-40756571D01*
X132444858Y-41756571D02*
X132444858Y-40756571D01*
X132444858Y-40256571D02*
X132373429Y-40328000D01*
X132444858Y-40399429D01*
X132516286Y-40328000D01*
X132444858Y-40256571D01*
X132444858Y-40399429D01*
X132944858Y-40756571D02*
X133516287Y-40756571D01*
X133159144Y-40256571D02*
X133159144Y-41542286D01*
X133230572Y-41685143D01*
X133373430Y-41756571D01*
X133516287Y-41756571D01*
X134659144Y-41685143D02*
X134516287Y-41756571D01*
X134230573Y-41756571D01*
X134087715Y-41685143D01*
X134016287Y-41613714D01*
X133944858Y-41470857D01*
X133944858Y-41042286D01*
X134016287Y-40899429D01*
X134087715Y-40828000D01*
X134230573Y-40756571D01*
X134516287Y-40756571D01*
X134659144Y-40828000D01*
X135302001Y-41756571D02*
X135302001Y-40256571D01*
X135944858Y-41756571D02*
X135944858Y-40970857D01*
X135873429Y-40828000D01*
X135730572Y-40756571D01*
X135516287Y-40756571D01*
X135373429Y-40828000D01*
X135302001Y-40899429D01*
X137230572Y-41685143D02*
X137087715Y-41756571D01*
X136802001Y-41756571D01*
X136659144Y-41685143D01*
X136587715Y-41542286D01*
X136587715Y-40970857D01*
X136659144Y-40828000D01*
X136802001Y-40756571D01*
X137087715Y-40756571D01*
X137230572Y-40828000D01*
X137302001Y-40970857D01*
X137302001Y-41113714D01*
X136587715Y-41256571D01*
X137944858Y-41756571D02*
X137944858Y-40756571D01*
X137944858Y-41042286D02*
X138016286Y-40899429D01*
X138087715Y-40828000D01*
X138230572Y-40756571D01*
X138373429Y-40756571D01*
X134358333Y-103322381D02*
X134358333Y-102322381D01*
X134739286Y-102322381D01*
X134834524Y-102370000D01*
X134882143Y-102417619D01*
X134929762Y-102512857D01*
X134929762Y-102655714D01*
X134882143Y-102750952D01*
X134834524Y-102798571D01*
X134739286Y-102846190D01*
X134358333Y-102846190D01*
X135501190Y-103322381D02*
X135405952Y-103274762D01*
X135358333Y-103227143D01*
X135310714Y-103131905D01*
X135310714Y-102846190D01*
X135358333Y-102750952D01*
X135405952Y-102703333D01*
X135501190Y-102655714D01*
X135644048Y-102655714D01*
X135739286Y-102703333D01*
X135786905Y-102750952D01*
X135834524Y-102846190D01*
X135834524Y-103131905D01*
X135786905Y-103227143D01*
X135739286Y-103274762D01*
X135644048Y-103322381D01*
X135501190Y-103322381D01*
X136263095Y-103322381D02*
X136263095Y-102655714D01*
X136263095Y-102846190D02*
X136310714Y-102750952D01*
X136358333Y-102703333D01*
X136453571Y-102655714D01*
X136548810Y-102655714D01*
X136739286Y-102655714D02*
X137120238Y-102655714D01*
X136882143Y-102322381D02*
X136882143Y-103179524D01*
X136929762Y-103274762D01*
X137025000Y-103322381D01*
X137120238Y-103322381D01*
X138167858Y-102417619D02*
X138215477Y-102370000D01*
X138310715Y-102322381D01*
X138548811Y-102322381D01*
X138644049Y-102370000D01*
X138691668Y-102417619D01*
X138739287Y-102512857D01*
X138739287Y-102608095D01*
X138691668Y-102750952D01*
X138120239Y-103322381D01*
X138739287Y-103322381D01*
X134358333Y-110942381D02*
X134358333Y-109942381D01*
X134739286Y-109942381D01*
X134834524Y-109990000D01*
X134882143Y-110037619D01*
X134929762Y-110132857D01*
X134929762Y-110275714D01*
X134882143Y-110370952D01*
X134834524Y-110418571D01*
X134739286Y-110466190D01*
X134358333Y-110466190D01*
X135501190Y-110942381D02*
X135405952Y-110894762D01*
X135358333Y-110847143D01*
X135310714Y-110751905D01*
X135310714Y-110466190D01*
X135358333Y-110370952D01*
X135405952Y-110323333D01*
X135501190Y-110275714D01*
X135644048Y-110275714D01*
X135739286Y-110323333D01*
X135786905Y-110370952D01*
X135834524Y-110466190D01*
X135834524Y-110751905D01*
X135786905Y-110847143D01*
X135739286Y-110894762D01*
X135644048Y-110942381D01*
X135501190Y-110942381D01*
X136263095Y-110942381D02*
X136263095Y-110275714D01*
X136263095Y-110466190D02*
X136310714Y-110370952D01*
X136358333Y-110323333D01*
X136453571Y-110275714D01*
X136548810Y-110275714D01*
X136739286Y-110275714D02*
X137120238Y-110275714D01*
X136882143Y-109942381D02*
X136882143Y-110799524D01*
X136929762Y-110894762D01*
X137025000Y-110942381D01*
X137120238Y-110942381D01*
X138739287Y-110942381D02*
X138167858Y-110942381D01*
X138453572Y-110942381D02*
X138453572Y-109942381D01*
X138358334Y-110085238D01*
X138263096Y-110180476D01*
X138167858Y-110228095D01*
D13*
X113665462Y-37015000D02*
G75*
G03X112120170Y-42565000I-462J-2990000D01*
G01*
X113664538Y-37015000D02*
G75*
G02X115209830Y-42565000I462J-2990000D01*
G01*
X116165000Y-40005000D02*
G75*
G03X116165000Y-40005000I-2500000J0D01*
G01*
X112120000Y-42565000D02*
X115210000Y-42565000D01*
X113665462Y-68765000D02*
G75*
G03X112120170Y-74315000I-462J-2990000D01*
G01*
X113664538Y-68765000D02*
G75*
G02X115209830Y-74315000I462J-2990000D01*
G01*
X116165000Y-71755000D02*
G75*
G03X116165000Y-71755000I-2500000J0D01*
G01*
X112120000Y-74315000D02*
X115210000Y-74315000D01*
X95520000Y-66675000D02*
X107860000Y-66675000D01*
X107860000Y-66675000D02*
X107860000Y-97645000D01*
X107860000Y-97645000D02*
X95520000Y-97645000D01*
X95520000Y-35475000D02*
X107860000Y-35475000D01*
X107860000Y-35475000D02*
X107860000Y-66445000D01*
X107860000Y-66445000D02*
X95520000Y-66445000D01*
X100291000Y-116620000D02*
X100291000Y-104280000D01*
X100291000Y-104280000D02*
X131261000Y-104280000D01*
X131261000Y-104280000D02*
X131261000Y-116620000D01*
X125035000Y-90865000D02*
X130235000Y-90865000D01*
X125035000Y-88265000D02*
X125035000Y-90865000D01*
X130235000Y-85665000D02*
X130235000Y-90865000D01*
X125035000Y-88265000D02*
X127635000Y-88265000D01*
X127635000Y-88265000D02*
X127635000Y-85665000D01*
X127635000Y-85665000D02*
X130235000Y-85665000D01*
X125035000Y-86995000D02*
X125035000Y-85665000D01*
X125035000Y-85665000D02*
X126365000Y-85665000D01*
X125035000Y-81975000D02*
X130235000Y-81975000D01*
X125035000Y-79375000D02*
X125035000Y-81975000D01*
X130235000Y-76775000D02*
X130235000Y-81975000D01*
X125035000Y-79375000D02*
X127635000Y-79375000D01*
X127635000Y-79375000D02*
X127635000Y-76775000D01*
X127635000Y-76775000D02*
X130235000Y-76775000D01*
X125035000Y-78105000D02*
X125035000Y-76775000D01*
X125035000Y-76775000D02*
X126365000Y-76775000D01*
X130235000Y-97215000D02*
X130235000Y-94555000D01*
X127635000Y-97215000D02*
X130235000Y-97215000D01*
X127635000Y-94555000D02*
X130235000Y-94555000D01*
X127635000Y-97215000D02*
X127635000Y-94555000D01*
X126365000Y-97215000D02*
X125035000Y-97215000D01*
X125035000Y-97215000D02*
X125035000Y-95885000D01*
X127802000Y-60036000D02*
X125182000Y-60036000D01*
X125182000Y-60036000D02*
X125182000Y-66456000D01*
X125182000Y-66456000D02*
X127802000Y-66456000D01*
X127802000Y-66456000D02*
X127802000Y-60036000D01*
X126492000Y-59146000D02*
X126492000Y-60036000D01*
X126492000Y-67346000D02*
X126492000Y-66456000D01*
X131612000Y-60036000D02*
X128992000Y-60036000D01*
X128992000Y-60036000D02*
X128992000Y-66456000D01*
X128992000Y-66456000D02*
X131612000Y-66456000D01*
X131612000Y-66456000D02*
X131612000Y-60036000D01*
X130302000Y-59146000D02*
X130302000Y-60036000D01*
X130302000Y-67346000D02*
X130302000Y-66456000D01*
X135676000Y-60036000D02*
X133056000Y-60036000D01*
X133056000Y-60036000D02*
X133056000Y-66456000D01*
X133056000Y-66456000D02*
X135676000Y-66456000D01*
X135676000Y-66456000D02*
X135676000Y-60036000D01*
X134366000Y-59146000D02*
X134366000Y-60036000D01*
X134366000Y-67346000D02*
X134366000Y-66456000D01*
X139486000Y-60036000D02*
X136866000Y-60036000D01*
X136866000Y-60036000D02*
X136866000Y-66456000D01*
X136866000Y-66456000D02*
X139486000Y-66456000D01*
X139486000Y-66456000D02*
X139486000Y-60036000D01*
X138176000Y-59146000D02*
X138176000Y-60036000D01*
X138176000Y-67346000D02*
X138176000Y-66456000D01*
X116570000Y-45025000D02*
G75*
G02X114570000Y-45025000I-1000000J0D01*
G01*
X114570000Y-45025000D02*
X112920000Y-45025000D01*
X112920000Y-45025000D02*
X112920000Y-65465000D01*
X112920000Y-65465000D02*
X118220000Y-65465000D01*
X118220000Y-65465000D02*
X118220000Y-45025000D01*
X118220000Y-45025000D02*
X116570000Y-45025000D01*
X110430000Y-44965000D02*
X110430000Y-65525000D01*
X110430000Y-65525000D02*
X120710000Y-65525000D01*
X120710000Y-65525000D02*
X120710000Y-44965000D01*
X120710000Y-44965000D02*
X110430000Y-44965000D01*
X116570000Y-76775000D02*
G75*
G02X114570000Y-76775000I-1000000J0D01*
G01*
X114570000Y-76775000D02*
X112920000Y-76775000D01*
X112920000Y-76775000D02*
X112920000Y-97215000D01*
X112920000Y-97215000D02*
X118220000Y-97215000D01*
X118220000Y-97215000D02*
X118220000Y-76775000D01*
X118220000Y-76775000D02*
X116570000Y-76775000D01*
X110430000Y-76715000D02*
X110430000Y-97275000D01*
X110430000Y-97275000D02*
X120710000Y-97275000D01*
X120710000Y-97275000D02*
X120710000Y-76715000D01*
X120710000Y-76715000D02*
X110430000Y-76715000D01*
X131175000Y-45025000D02*
G75*
G02X129175000Y-45025000I-1000000J0D01*
G01*
X129175000Y-45025000D02*
X127525000Y-45025000D01*
X127525000Y-45025000D02*
X127525000Y-55305000D01*
X127525000Y-55305000D02*
X132825000Y-55305000D01*
X132825000Y-55305000D02*
X132825000Y-45025000D01*
X132825000Y-45025000D02*
X131175000Y-45025000D01*
X125035000Y-44965000D02*
X125035000Y-55365000D01*
X125035000Y-55365000D02*
X135315000Y-55365000D01*
X135315000Y-55365000D02*
X135315000Y-44965000D01*
X135315000Y-44965000D02*
X125035000Y-44965000D01*
X118070000Y-42455000D02*
X118070000Y-37635000D01*
X120690000Y-42455000D02*
X120690000Y-37635000D01*
X118070000Y-42455000D02*
X118384000Y-42455000D01*
X120376000Y-42455000D02*
X120690000Y-42455000D01*
X118070000Y-37635000D02*
X118384000Y-37635000D01*
X120376000Y-37635000D02*
X120690000Y-37635000D01*
X118070000Y-74205000D02*
X118070000Y-69385000D01*
X120690000Y-74205000D02*
X120690000Y-69385000D01*
X118070000Y-74205000D02*
X118384000Y-74205000D01*
X120376000Y-74205000D02*
X120690000Y-74205000D01*
X118070000Y-69385000D02*
X118384000Y-69385000D01*
X120376000Y-69385000D02*
X120690000Y-69385000D01*
X139105000Y-46445000D02*
X139105000Y-51265000D01*
X136485000Y-46445000D02*
X136485000Y-51265000D01*
X139105000Y-46445000D02*
X138791000Y-46445000D01*
X136799000Y-46445000D02*
X136485000Y-46445000D01*
X139105000Y-51265000D02*
X138791000Y-51265000D01*
X136799000Y-51265000D02*
X136485000Y-51265000D01*
X119380000Y-100968629D02*
X119380000Y-100795000D01*
X120360000Y-100838000D02*
X121249000Y-100838000D01*
X120804500Y-100838000D02*
X120360000Y-100245333D01*
X120360000Y-100245333D02*
X121249000Y-100245333D01*
X121249000Y-100245333D02*
X120804500Y-100838000D01*
X120646371Y-102235000D02*
G75*
G03X120646371Y-102235000I-1266371J0D01*
G01*
X115570000Y-100968629D02*
X115570000Y-100795000D01*
X116550000Y-100838000D02*
X117439000Y-100838000D01*
X116994500Y-100838000D02*
X116550000Y-100245333D01*
X116550000Y-100245333D02*
X117439000Y-100245333D01*
X117439000Y-100245333D02*
X116994500Y-100838000D01*
X116836371Y-102235000D02*
G75*
G03X116836371Y-102235000I-1266371J0D01*
G01*
X111760000Y-100968629D02*
X111760000Y-100795000D01*
X112740000Y-100838000D02*
X113629000Y-100838000D01*
X113184500Y-100838000D02*
X112740000Y-100245333D01*
X112740000Y-100245333D02*
X113629000Y-100245333D01*
X113629000Y-100245333D02*
X113184500Y-100838000D01*
X113026371Y-102235000D02*
G75*
G03X113026371Y-102235000I-1266371J0D01*
G01*
X129540000Y-100968629D02*
X129540000Y-100795000D01*
X130520000Y-100838000D02*
X131409000Y-100838000D01*
X130964500Y-100838000D02*
X130520000Y-100245333D01*
X130520000Y-100245333D02*
X131409000Y-100245333D01*
X131409000Y-100245333D02*
X130964500Y-100838000D01*
X130806371Y-102235000D02*
G75*
G03X130806371Y-102235000I-1266371J0D01*
G01*
X125730000Y-100968629D02*
X125730000Y-100795000D01*
X126710000Y-100838000D02*
X127599000Y-100838000D01*
X127154500Y-100838000D02*
X126710000Y-100245333D01*
X126710000Y-100245333D02*
X127599000Y-100245333D01*
X127599000Y-100245333D02*
X127154500Y-100838000D01*
X126996371Y-102235000D02*
G75*
G03X126996371Y-102235000I-1266371J0D01*
G01*
D12*
X109672381Y-84081667D02*
X108672381Y-84081667D01*
X108672381Y-83700714D01*
X108720000Y-83605476D01*
X108767619Y-83557857D01*
X108862857Y-83510238D01*
X109005714Y-83510238D01*
X109100952Y-83557857D01*
X109148571Y-83605476D01*
X109196190Y-83700714D01*
X109196190Y-84081667D01*
X109672381Y-82938810D02*
X109624762Y-83034048D01*
X109577143Y-83081667D01*
X109481905Y-83129286D01*
X109196190Y-83129286D01*
X109100952Y-83081667D01*
X109053333Y-83034048D01*
X109005714Y-82938810D01*
X109005714Y-82795952D01*
X109053333Y-82700714D01*
X109100952Y-82653095D01*
X109196190Y-82605476D01*
X109481905Y-82605476D01*
X109577143Y-82653095D01*
X109624762Y-82700714D01*
X109672381Y-82795952D01*
X109672381Y-82938810D01*
X109672381Y-82176905D02*
X109005714Y-82176905D01*
X109196190Y-82176905D02*
X109100952Y-82129286D01*
X109053333Y-82081667D01*
X109005714Y-81986429D01*
X109005714Y-81891190D01*
X109005714Y-81700714D02*
X109005714Y-81319762D01*
X108672381Y-81557857D02*
X109529524Y-81557857D01*
X109624762Y-81510238D01*
X109672381Y-81415000D01*
X109672381Y-81319762D01*
X109672381Y-79700713D02*
X109672381Y-80272142D01*
X109672381Y-79986428D02*
X108672381Y-79986428D01*
X108815238Y-80081666D01*
X108910476Y-80176904D01*
X108958095Y-80272142D01*
X109672381Y-52966667D02*
X108672381Y-52966667D01*
X108672381Y-52585714D01*
X108720000Y-52490476D01*
X108767619Y-52442857D01*
X108862857Y-52395238D01*
X109005714Y-52395238D01*
X109100952Y-52442857D01*
X109148571Y-52490476D01*
X109196190Y-52585714D01*
X109196190Y-52966667D01*
X109672381Y-51823810D02*
X109624762Y-51919048D01*
X109577143Y-51966667D01*
X109481905Y-52014286D01*
X109196190Y-52014286D01*
X109100952Y-51966667D01*
X109053333Y-51919048D01*
X109005714Y-51823810D01*
X109005714Y-51680952D01*
X109053333Y-51585714D01*
X109100952Y-51538095D01*
X109196190Y-51490476D01*
X109481905Y-51490476D01*
X109577143Y-51538095D01*
X109624762Y-51585714D01*
X109672381Y-51680952D01*
X109672381Y-51823810D01*
X109672381Y-51061905D02*
X109005714Y-51061905D01*
X109196190Y-51061905D02*
X109100952Y-51014286D01*
X109053333Y-50966667D01*
X109005714Y-50871429D01*
X109005714Y-50776190D01*
X109005714Y-50585714D02*
X109005714Y-50204762D01*
X108672381Y-50442857D02*
X109529524Y-50442857D01*
X109624762Y-50395238D01*
X109672381Y-50300000D01*
X109672381Y-50204762D01*
X108767619Y-49157142D02*
X108720000Y-49109523D01*
X108672381Y-49014285D01*
X108672381Y-48776189D01*
X108720000Y-48680951D01*
X108767619Y-48633332D01*
X108862857Y-48585713D01*
X108958095Y-48585713D01*
X109100952Y-48633332D01*
X109672381Y-49204761D01*
X109672381Y-48585713D01*
X126579334Y-61920381D02*
X126246000Y-61444190D01*
X126007905Y-61920381D02*
X126007905Y-60920381D01*
X126388858Y-60920381D01*
X126484096Y-60968000D01*
X126531715Y-61015619D01*
X126579334Y-61110857D01*
X126579334Y-61253714D01*
X126531715Y-61348952D01*
X126484096Y-61396571D01*
X126388858Y-61444190D01*
X126007905Y-61444190D01*
X127531715Y-61920381D02*
X126960286Y-61920381D01*
X127246000Y-61920381D02*
X127246000Y-60920381D01*
X127150762Y-61063238D01*
X127055524Y-61158476D01*
X126960286Y-61206095D01*
X126944381Y-65111238D02*
X126944381Y-65682667D01*
X126944381Y-65396953D02*
X125944381Y-65396953D01*
X126087238Y-65492191D01*
X126182476Y-65587429D01*
X126230095Y-65682667D01*
X125944381Y-64492191D02*
X125944381Y-64396952D01*
X125992000Y-64301714D01*
X126039619Y-64254095D01*
X126134857Y-64206476D01*
X126325333Y-64158857D01*
X126563429Y-64158857D01*
X126753905Y-64206476D01*
X126849143Y-64254095D01*
X126896762Y-64301714D01*
X126944381Y-64396952D01*
X126944381Y-64492191D01*
X126896762Y-64587429D01*
X126849143Y-64635048D01*
X126753905Y-64682667D01*
X126563429Y-64730286D01*
X126325333Y-64730286D01*
X126134857Y-64682667D01*
X126039619Y-64635048D01*
X125992000Y-64587429D01*
X125944381Y-64492191D01*
X126944381Y-63730286D02*
X125944381Y-63730286D01*
X126563429Y-63635048D02*
X126944381Y-63349333D01*
X126277714Y-63349333D02*
X126658667Y-63730286D01*
X130135334Y-61920381D02*
X129802000Y-61444190D01*
X129563905Y-61920381D02*
X129563905Y-60920381D01*
X129944858Y-60920381D01*
X130040096Y-60968000D01*
X130087715Y-61015619D01*
X130135334Y-61110857D01*
X130135334Y-61253714D01*
X130087715Y-61348952D01*
X130040096Y-61396571D01*
X129944858Y-61444190D01*
X129563905Y-61444190D01*
X130516286Y-61015619D02*
X130563905Y-60968000D01*
X130659143Y-60920381D01*
X130897239Y-60920381D01*
X130992477Y-60968000D01*
X131040096Y-61015619D01*
X131087715Y-61110857D01*
X131087715Y-61206095D01*
X131040096Y-61348952D01*
X130468667Y-61920381D01*
X131087715Y-61920381D01*
X130754381Y-65111238D02*
X130754381Y-65682667D01*
X130754381Y-65396953D02*
X129754381Y-65396953D01*
X129897238Y-65492191D01*
X129992476Y-65587429D01*
X130040095Y-65682667D01*
X129754381Y-64492191D02*
X129754381Y-64396952D01*
X129802000Y-64301714D01*
X129849619Y-64254095D01*
X129944857Y-64206476D01*
X130135333Y-64158857D01*
X130373429Y-64158857D01*
X130563905Y-64206476D01*
X130659143Y-64254095D01*
X130706762Y-64301714D01*
X130754381Y-64396952D01*
X130754381Y-64492191D01*
X130706762Y-64587429D01*
X130659143Y-64635048D01*
X130563905Y-64682667D01*
X130373429Y-64730286D01*
X130135333Y-64730286D01*
X129944857Y-64682667D01*
X129849619Y-64635048D01*
X129802000Y-64587429D01*
X129754381Y-64492191D01*
X130754381Y-63730286D02*
X129754381Y-63730286D01*
X130373429Y-63635048D02*
X130754381Y-63349333D01*
X130087714Y-63349333D02*
X130468667Y-63730286D01*
X134199334Y-61666381D02*
X133866000Y-61190190D01*
X133627905Y-61666381D02*
X133627905Y-60666381D01*
X134008858Y-60666381D01*
X134104096Y-60714000D01*
X134151715Y-60761619D01*
X134199334Y-60856857D01*
X134199334Y-60999714D01*
X134151715Y-61094952D01*
X134104096Y-61142571D01*
X134008858Y-61190190D01*
X133627905Y-61190190D01*
X134532667Y-60666381D02*
X135151715Y-60666381D01*
X134818381Y-61047333D01*
X134961239Y-61047333D01*
X135056477Y-61094952D01*
X135104096Y-61142571D01*
X135151715Y-61237810D01*
X135151715Y-61475905D01*
X135104096Y-61571143D01*
X135056477Y-61618762D01*
X134961239Y-61666381D01*
X134675524Y-61666381D01*
X134580286Y-61618762D01*
X134532667Y-61571143D01*
X133913619Y-65754095D02*
X133866000Y-65706476D01*
X133818381Y-65611238D01*
X133818381Y-65373142D01*
X133866000Y-65277904D01*
X133913619Y-65230285D01*
X134008857Y-65182666D01*
X134104095Y-65182666D01*
X134246952Y-65230285D01*
X134818381Y-65801714D01*
X134818381Y-65182666D01*
X133913619Y-64801714D02*
X133866000Y-64754095D01*
X133818381Y-64658857D01*
X133818381Y-64420761D01*
X133866000Y-64325523D01*
X133913619Y-64277904D01*
X134008857Y-64230285D01*
X134104095Y-64230285D01*
X134246952Y-64277904D01*
X134818381Y-64849333D01*
X134818381Y-64230285D01*
X133818381Y-63611238D02*
X133818381Y-63515999D01*
X133866000Y-63420761D01*
X133913619Y-63373142D01*
X134008857Y-63325523D01*
X134199333Y-63277904D01*
X134437429Y-63277904D01*
X134627905Y-63325523D01*
X134723143Y-63373142D01*
X134770762Y-63420761D01*
X134818381Y-63515999D01*
X134818381Y-63611238D01*
X134770762Y-63706476D01*
X134723143Y-63754095D01*
X134627905Y-63801714D01*
X134437429Y-63849333D01*
X134199333Y-63849333D01*
X134008857Y-63801714D01*
X133913619Y-63754095D01*
X133866000Y-63706476D01*
X133818381Y-63611238D01*
X138009334Y-61666381D02*
X137676000Y-61190190D01*
X137437905Y-61666381D02*
X137437905Y-60666381D01*
X137818858Y-60666381D01*
X137914096Y-60714000D01*
X137961715Y-60761619D01*
X138009334Y-60856857D01*
X138009334Y-60999714D01*
X137961715Y-61094952D01*
X137914096Y-61142571D01*
X137818858Y-61190190D01*
X137437905Y-61190190D01*
X138866477Y-60999714D02*
X138866477Y-61666381D01*
X138628381Y-60618762D02*
X138390286Y-61333048D01*
X139009334Y-61333048D01*
X137723619Y-65754095D02*
X137676000Y-65706476D01*
X137628381Y-65611238D01*
X137628381Y-65373142D01*
X137676000Y-65277904D01*
X137723619Y-65230285D01*
X137818857Y-65182666D01*
X137914095Y-65182666D01*
X138056952Y-65230285D01*
X138628381Y-65801714D01*
X138628381Y-65182666D01*
X137723619Y-64801714D02*
X137676000Y-64754095D01*
X137628381Y-64658857D01*
X137628381Y-64420761D01*
X137676000Y-64325523D01*
X137723619Y-64277904D01*
X137818857Y-64230285D01*
X137914095Y-64230285D01*
X138056952Y-64277904D01*
X138628381Y-64849333D01*
X138628381Y-64230285D01*
X137628381Y-63611238D02*
X137628381Y-63515999D01*
X137676000Y-63420761D01*
X137723619Y-63373142D01*
X137818857Y-63325523D01*
X138009333Y-63277904D01*
X138247429Y-63277904D01*
X138437905Y-63325523D01*
X138533143Y-63373142D01*
X138580762Y-63420761D01*
X138628381Y-63515999D01*
X138628381Y-63611238D01*
X138580762Y-63706476D01*
X138533143Y-63754095D01*
X138437905Y-63801714D01*
X138247429Y-63849333D01*
X138009333Y-63849333D01*
X137818857Y-63801714D01*
X137723619Y-63754095D01*
X137676000Y-63706476D01*
X137628381Y-63611238D01*
X114808095Y-48347381D02*
X114808095Y-49156905D01*
X114855714Y-49252143D01*
X114903333Y-49299762D01*
X114998571Y-49347381D01*
X115189048Y-49347381D01*
X115284286Y-49299762D01*
X115331905Y-49252143D01*
X115379524Y-49156905D01*
X115379524Y-48347381D01*
X116379524Y-49347381D02*
X115808095Y-49347381D01*
X116093809Y-49347381D02*
X116093809Y-48347381D01*
X115998571Y-48490238D01*
X115903333Y-48585476D01*
X115808095Y-48633095D01*
X115022381Y-59364048D02*
X115022381Y-58697381D01*
X116022381Y-59125953D01*
X115355714Y-57887857D02*
X116022381Y-57887857D01*
X114974762Y-58125953D02*
X115689048Y-58364048D01*
X115689048Y-57745000D01*
X116022381Y-57364048D02*
X115022381Y-57364048D01*
X115498571Y-57364048D02*
X115498571Y-56792619D01*
X116022381Y-56792619D02*
X115022381Y-56792619D01*
X115927143Y-55745000D02*
X115974762Y-55792619D01*
X116022381Y-55935476D01*
X116022381Y-56030714D01*
X115974762Y-56173572D01*
X115879524Y-56268810D01*
X115784286Y-56316429D01*
X115593810Y-56364048D01*
X115450952Y-56364048D01*
X115260476Y-56316429D01*
X115165238Y-56268810D01*
X115070000Y-56173572D01*
X115022381Y-56030714D01*
X115022381Y-55935476D01*
X115070000Y-55792619D01*
X115117619Y-55745000D01*
X115022381Y-55459286D02*
X115022381Y-54887857D01*
X116022381Y-55173572D02*
X115022381Y-55173572D01*
X115355714Y-54125952D02*
X116022381Y-54125952D01*
X114974762Y-54364048D02*
X115689048Y-54602143D01*
X115689048Y-53983095D01*
X115022381Y-53411667D02*
X115022381Y-53316428D01*
X115070000Y-53221190D01*
X115117619Y-53173571D01*
X115212857Y-53125952D01*
X115403333Y-53078333D01*
X115641429Y-53078333D01*
X115831905Y-53125952D01*
X115927143Y-53173571D01*
X115974762Y-53221190D01*
X116022381Y-53316428D01*
X116022381Y-53411667D01*
X115974762Y-53506905D01*
X115927143Y-53554524D01*
X115831905Y-53602143D01*
X115641429Y-53649762D01*
X115403333Y-53649762D01*
X115212857Y-53602143D01*
X115117619Y-53554524D01*
X115070000Y-53506905D01*
X115022381Y-53411667D01*
X115022381Y-52173571D02*
X115022381Y-52649762D01*
X115498571Y-52697381D01*
X115450952Y-52649762D01*
X115403333Y-52554524D01*
X115403333Y-52316428D01*
X115450952Y-52221190D01*
X115498571Y-52173571D01*
X115593810Y-52125952D01*
X115831905Y-52125952D01*
X115927143Y-52173571D01*
X115974762Y-52221190D01*
X116022381Y-52316428D01*
X116022381Y-52554524D01*
X115974762Y-52649762D01*
X115927143Y-52697381D01*
X115022381Y-51792619D02*
X115022381Y-51173571D01*
X115403333Y-51506905D01*
X115403333Y-51364047D01*
X115450952Y-51268809D01*
X115498571Y-51221190D01*
X115593810Y-51173571D01*
X115831905Y-51173571D01*
X115927143Y-51221190D01*
X115974762Y-51268809D01*
X116022381Y-51364047D01*
X116022381Y-51649762D01*
X115974762Y-51745000D01*
X115927143Y-51792619D01*
X114808095Y-80097381D02*
X114808095Y-80906905D01*
X114855714Y-81002143D01*
X114903333Y-81049762D01*
X114998571Y-81097381D01*
X115189048Y-81097381D01*
X115284286Y-81049762D01*
X115331905Y-81002143D01*
X115379524Y-80906905D01*
X115379524Y-80097381D01*
X115808095Y-80192619D02*
X115855714Y-80145000D01*
X115950952Y-80097381D01*
X116189048Y-80097381D01*
X116284286Y-80145000D01*
X116331905Y-80192619D01*
X116379524Y-80287857D01*
X116379524Y-80383095D01*
X116331905Y-80525952D01*
X115760476Y-81097381D01*
X116379524Y-81097381D01*
X115022381Y-91114048D02*
X115022381Y-90447381D01*
X116022381Y-90875953D01*
X115355714Y-89637857D02*
X116022381Y-89637857D01*
X114974762Y-89875953D02*
X115689048Y-90114048D01*
X115689048Y-89495000D01*
X116022381Y-89114048D02*
X115022381Y-89114048D01*
X115498571Y-89114048D02*
X115498571Y-88542619D01*
X116022381Y-88542619D02*
X115022381Y-88542619D01*
X115927143Y-87495000D02*
X115974762Y-87542619D01*
X116022381Y-87685476D01*
X116022381Y-87780714D01*
X115974762Y-87923572D01*
X115879524Y-88018810D01*
X115784286Y-88066429D01*
X115593810Y-88114048D01*
X115450952Y-88114048D01*
X115260476Y-88066429D01*
X115165238Y-88018810D01*
X115070000Y-87923572D01*
X115022381Y-87780714D01*
X115022381Y-87685476D01*
X115070000Y-87542619D01*
X115117619Y-87495000D01*
X115022381Y-87209286D02*
X115022381Y-86637857D01*
X116022381Y-86923572D02*
X115022381Y-86923572D01*
X115355714Y-85875952D02*
X116022381Y-85875952D01*
X114974762Y-86114048D02*
X115689048Y-86352143D01*
X115689048Y-85733095D01*
X115022381Y-85161667D02*
X115022381Y-85066428D01*
X115070000Y-84971190D01*
X115117619Y-84923571D01*
X115212857Y-84875952D01*
X115403333Y-84828333D01*
X115641429Y-84828333D01*
X115831905Y-84875952D01*
X115927143Y-84923571D01*
X115974762Y-84971190D01*
X116022381Y-85066428D01*
X116022381Y-85161667D01*
X115974762Y-85256905D01*
X115927143Y-85304524D01*
X115831905Y-85352143D01*
X115641429Y-85399762D01*
X115403333Y-85399762D01*
X115212857Y-85352143D01*
X115117619Y-85304524D01*
X115070000Y-85256905D01*
X115022381Y-85161667D01*
X115022381Y-83923571D02*
X115022381Y-84399762D01*
X115498571Y-84447381D01*
X115450952Y-84399762D01*
X115403333Y-84304524D01*
X115403333Y-84066428D01*
X115450952Y-83971190D01*
X115498571Y-83923571D01*
X115593810Y-83875952D01*
X115831905Y-83875952D01*
X115927143Y-83923571D01*
X115974762Y-83971190D01*
X116022381Y-84066428D01*
X116022381Y-84304524D01*
X115974762Y-84399762D01*
X115927143Y-84447381D01*
X115022381Y-83542619D02*
X115022381Y-82923571D01*
X115403333Y-83256905D01*
X115403333Y-83114047D01*
X115450952Y-83018809D01*
X115498571Y-82971190D01*
X115593810Y-82923571D01*
X115831905Y-82923571D01*
X115927143Y-82971190D01*
X115974762Y-83018809D01*
X116022381Y-83114047D01*
X116022381Y-83399762D01*
X115974762Y-83495000D01*
X115927143Y-83542619D01*
X129413095Y-48347381D02*
X129413095Y-49156905D01*
X129460714Y-49252143D01*
X129508333Y-49299762D01*
X129603571Y-49347381D01*
X129794048Y-49347381D01*
X129889286Y-49299762D01*
X129936905Y-49252143D01*
X129984524Y-49156905D01*
X129984524Y-48347381D01*
X130365476Y-48347381D02*
X130984524Y-48347381D01*
X130651190Y-48728333D01*
X130794048Y-48728333D01*
X130889286Y-48775952D01*
X130936905Y-48823571D01*
X130984524Y-48918810D01*
X130984524Y-49156905D01*
X130936905Y-49252143D01*
X130889286Y-49299762D01*
X130794048Y-49347381D01*
X130508333Y-49347381D01*
X130413095Y-49299762D01*
X130365476Y-49252143D01*
X128008333Y-51887381D02*
X128008333Y-50887381D01*
X128579762Y-51887381D01*
X128579762Y-50887381D01*
X129055952Y-51363571D02*
X129389286Y-51363571D01*
X129532143Y-51887381D02*
X129055952Y-51887381D01*
X129055952Y-50887381D01*
X129532143Y-50887381D01*
X130436905Y-50887381D02*
X129960714Y-50887381D01*
X129913095Y-51363571D01*
X129960714Y-51315952D01*
X130055952Y-51268333D01*
X130294048Y-51268333D01*
X130389286Y-51315952D01*
X130436905Y-51363571D01*
X130484524Y-51458810D01*
X130484524Y-51696905D01*
X130436905Y-51792143D01*
X130389286Y-51839762D01*
X130294048Y-51887381D01*
X130055952Y-51887381D01*
X129960714Y-51839762D01*
X129913095Y-51792143D01*
X131389286Y-50887381D02*
X130913095Y-50887381D01*
X130865476Y-51363571D01*
X130913095Y-51315952D01*
X131008333Y-51268333D01*
X131246429Y-51268333D01*
X131341667Y-51315952D01*
X131389286Y-51363571D01*
X131436905Y-51458810D01*
X131436905Y-51696905D01*
X131389286Y-51792143D01*
X131341667Y-51839762D01*
X131246429Y-51887381D01*
X131008333Y-51887381D01*
X130913095Y-51839762D01*
X130865476Y-51792143D01*
X132341667Y-50887381D02*
X131865476Y-50887381D01*
X131817857Y-51363571D01*
X131865476Y-51315952D01*
X131960714Y-51268333D01*
X132198810Y-51268333D01*
X132294048Y-51315952D01*
X132341667Y-51363571D01*
X132389286Y-51458810D01*
X132389286Y-51696905D01*
X132341667Y-51792143D01*
X132294048Y-51839762D01*
X132198810Y-51887381D01*
X131960714Y-51887381D01*
X131865476Y-51839762D01*
X131817857Y-51792143D01*
X119737143Y-40171666D02*
X119784762Y-40219285D01*
X119832381Y-40362142D01*
X119832381Y-40457380D01*
X119784762Y-40600238D01*
X119689524Y-40695476D01*
X119594286Y-40743095D01*
X119403810Y-40790714D01*
X119260952Y-40790714D01*
X119070476Y-40743095D01*
X118975238Y-40695476D01*
X118880000Y-40600238D01*
X118832381Y-40457380D01*
X118832381Y-40362142D01*
X118880000Y-40219285D01*
X118927619Y-40171666D01*
X119832381Y-39219285D02*
X119832381Y-39790714D01*
X119832381Y-39505000D02*
X118832381Y-39505000D01*
X118975238Y-39600238D01*
X119070476Y-39695476D01*
X119118095Y-39790714D01*
X119737143Y-71921666D02*
X119784762Y-71969285D01*
X119832381Y-72112142D01*
X119832381Y-72207380D01*
X119784762Y-72350238D01*
X119689524Y-72445476D01*
X119594286Y-72493095D01*
X119403810Y-72540714D01*
X119260952Y-72540714D01*
X119070476Y-72493095D01*
X118975238Y-72445476D01*
X118880000Y-72350238D01*
X118832381Y-72207380D01*
X118832381Y-72112142D01*
X118880000Y-71969285D01*
X118927619Y-71921666D01*
X118927619Y-71540714D02*
X118880000Y-71493095D01*
X118832381Y-71397857D01*
X118832381Y-71159761D01*
X118880000Y-71064523D01*
X118927619Y-71016904D01*
X119022857Y-70969285D01*
X119118095Y-70969285D01*
X119260952Y-71016904D01*
X119832381Y-71588333D01*
X119832381Y-70969285D01*
X138152143Y-49061666D02*
X138199762Y-49109285D01*
X138247381Y-49252142D01*
X138247381Y-49347380D01*
X138199762Y-49490238D01*
X138104524Y-49585476D01*
X138009286Y-49633095D01*
X137818810Y-49680714D01*
X137675952Y-49680714D01*
X137485476Y-49633095D01*
X137390238Y-49585476D01*
X137295000Y-49490238D01*
X137247381Y-49347380D01*
X137247381Y-49252142D01*
X137295000Y-49109285D01*
X137342619Y-49061666D01*
X137247381Y-48728333D02*
X137247381Y-48109285D01*
X137628333Y-48442619D01*
X137628333Y-48299761D01*
X137675952Y-48204523D01*
X137723571Y-48156904D01*
X137818810Y-48109285D01*
X138056905Y-48109285D01*
X138152143Y-48156904D01*
X138199762Y-48204523D01*
X138247381Y-48299761D01*
X138247381Y-48585476D01*
X138199762Y-48680714D01*
X138152143Y-48728333D01*
M02*
