G04 #@! TF.FileFunction,Soldermask,Bot*
%FSLAX46Y46*%
G04 Gerber Fmt 4.6, Leading zero omitted, Abs format (unit mm)*
G04 Created by KiCad (PCBNEW 4.0.7) date 09/26/19 16:06:38*
%MOMM*%
%LPD*%
G01*
G04 APERTURE LIST*
%ADD10C,0.100000*%
%ADD11R,2.200000X2.200000*%
%ADD12C,2.200000*%
%ADD13R,2.000000X2.000000*%
%ADD14C,2.000000*%
%ADD15C,4.400000*%
%ADD16R,2.100000X2.100000*%
%ADD17O,2.100000X2.100000*%
%ADD18O,2.000000X2.000000*%
%ADD19C,2.400000*%
%ADD20C,1.920000*%
%ADD21R,1.920000X1.920000*%
G04 APERTURE END LIST*
D10*
D11*
X112395000Y-40005000D03*
D12*
X112395000Y-37465000D03*
D11*
X112395000Y-71120000D03*
D12*
X112395000Y-68580000D03*
D13*
X106000000Y-87700000D03*
D14*
X106000000Y-84930000D03*
X106000000Y-82160000D03*
X106000000Y-79390000D03*
X106000000Y-76620000D03*
X103160000Y-86315000D03*
X103160000Y-83545000D03*
X103160000Y-80775000D03*
X103160000Y-78005000D03*
D15*
X104580000Y-69660000D03*
X104580000Y-94660000D03*
D13*
X106000000Y-56500000D03*
D14*
X106000000Y-53730000D03*
X106000000Y-50960000D03*
X106000000Y-48190000D03*
X106000000Y-45420000D03*
X103160000Y-55115000D03*
X103160000Y-52345000D03*
X103160000Y-49575000D03*
X103160000Y-46805000D03*
D15*
X104580000Y-38460000D03*
X104580000Y-63460000D03*
D13*
X110236000Y-106140000D03*
D14*
X113006000Y-106140000D03*
X115776000Y-106140000D03*
X118546000Y-106140000D03*
X121316000Y-106140000D03*
X111621000Y-108980000D03*
X114391000Y-108980000D03*
X117161000Y-108980000D03*
X119931000Y-108980000D03*
D15*
X103276000Y-107560000D03*
X128276000Y-107560000D03*
D16*
X130810000Y-95250000D03*
D17*
X133350000Y-95250000D03*
D14*
X133350000Y-78740000D03*
D18*
X143510000Y-78740000D03*
D14*
X133350000Y-82550000D03*
D18*
X143510000Y-82550000D03*
D14*
X118745000Y-78740000D03*
D18*
X128905000Y-78740000D03*
D14*
X118745000Y-82550000D03*
D18*
X128905000Y-82550000D03*
D19*
X137850000Y-115570000D03*
X133350000Y-115570000D03*
X137850000Y-109070000D03*
X133350000Y-109070000D03*
X145470000Y-115570000D03*
X140970000Y-115570000D03*
X145470000Y-109070000D03*
X140970000Y-109070000D03*
D13*
X120015000Y-41275000D03*
D18*
X127635000Y-59055000D03*
X120015000Y-43815000D03*
X127635000Y-56515000D03*
X120015000Y-46355000D03*
X127635000Y-53975000D03*
X120015000Y-48895000D03*
X127635000Y-51435000D03*
X120015000Y-51435000D03*
X127635000Y-48895000D03*
X120015000Y-53975000D03*
X127635000Y-46355000D03*
X120015000Y-56515000D03*
X127635000Y-43815000D03*
X120015000Y-59055000D03*
X127635000Y-41275000D03*
D13*
X134620000Y-41275000D03*
D18*
X142240000Y-59055000D03*
X134620000Y-43815000D03*
X142240000Y-56515000D03*
X134620000Y-46355000D03*
X142240000Y-53975000D03*
X134620000Y-48895000D03*
X142240000Y-51435000D03*
X134620000Y-51435000D03*
X142240000Y-48895000D03*
X134620000Y-53975000D03*
X142240000Y-46355000D03*
X134620000Y-56515000D03*
X142240000Y-43815000D03*
X134620000Y-59055000D03*
X142240000Y-41275000D03*
D13*
X134620000Y-67310000D03*
D18*
X142240000Y-74930000D03*
X134620000Y-69850000D03*
X142240000Y-72390000D03*
X134620000Y-72390000D03*
X142240000Y-69850000D03*
X134620000Y-74930000D03*
X142240000Y-67310000D03*
D14*
X126365000Y-37465000D03*
X121365000Y-37465000D03*
X140970000Y-37465000D03*
X135970000Y-37465000D03*
X140970000Y-63500000D03*
X135970000Y-63500000D03*
D13*
X113665000Y-43815000D03*
D18*
X111125000Y-43815000D03*
D13*
X113665000Y-74930000D03*
D18*
X111125000Y-74930000D03*
D13*
X113665000Y-46990000D03*
D18*
X111125000Y-46990000D03*
D13*
X113665000Y-78105000D03*
D18*
X111125000Y-78105000D03*
D13*
X113665000Y-50165000D03*
D18*
X111125000Y-50165000D03*
D13*
X113665000Y-81280000D03*
D18*
X111125000Y-81280000D03*
D13*
X113665000Y-53340000D03*
D18*
X111125000Y-53340000D03*
D13*
X113665000Y-84455000D03*
D18*
X111125000Y-84455000D03*
D13*
X113665000Y-56515000D03*
D18*
X111125000Y-56515000D03*
D13*
X113665000Y-87630000D03*
D18*
X111125000Y-87630000D03*
D20*
X112395000Y-62230000D03*
X112395000Y-59690000D03*
D21*
X112395000Y-64770000D03*
D14*
X118745000Y-67310000D03*
D18*
X128905000Y-67310000D03*
D14*
X118745000Y-71120000D03*
D18*
X128905000Y-71120000D03*
D14*
X118745000Y-74930000D03*
D18*
X128905000Y-74930000D03*
D16*
X122555000Y-95250000D03*
D17*
X125095000Y-95250000D03*
X122555000Y-97790000D03*
X125095000Y-97790000D03*
X122555000Y-100330000D03*
X125095000Y-100330000D03*
D16*
X114300000Y-95250000D03*
D17*
X116840000Y-95250000D03*
X114300000Y-97790000D03*
X116840000Y-97790000D03*
X114300000Y-100330000D03*
X116840000Y-100330000D03*
M02*
