G04 #@! TF.FileFunction,Legend,Bot*
%FSLAX46Y46*%
G04 Gerber Fmt 4.6, Leading zero omitted, Abs format (unit mm)*
G04 Created by KiCad (PCBNEW 4.0.7) date 06/26/19 20:01:54*
%MOMM*%
%LPD*%
G01*
G04 APERTURE LIST*
%ADD10C,0.100000*%
%ADD11C,0.150000*%
%ADD12C,0.120000*%
G04 APERTURE END LIST*
D10*
D11*
X137674999Y-39483571D02*
X138389285Y-39483571D01*
X138389285Y-37983571D01*
X137174999Y-39483571D02*
X137174999Y-38483571D01*
X137174999Y-37983571D02*
X137246428Y-38055000D01*
X137174999Y-38126429D01*
X137103571Y-38055000D01*
X137174999Y-37983571D01*
X137174999Y-38126429D01*
X135817856Y-39412143D02*
X135960713Y-39483571D01*
X136246427Y-39483571D01*
X136389285Y-39412143D01*
X136460713Y-39340714D01*
X136532142Y-39197857D01*
X136532142Y-38769286D01*
X136460713Y-38626429D01*
X136389285Y-38555000D01*
X136246427Y-38483571D01*
X135960713Y-38483571D01*
X135817856Y-38555000D01*
X134603571Y-39412143D02*
X134746428Y-39483571D01*
X135032142Y-39483571D01*
X135174999Y-39412143D01*
X135246428Y-39269286D01*
X135246428Y-38697857D01*
X135174999Y-38555000D01*
X135032142Y-38483571D01*
X134746428Y-38483571D01*
X134603571Y-38555000D01*
X134532142Y-38697857D01*
X134532142Y-38840714D01*
X135246428Y-38983571D01*
X133889285Y-38483571D02*
X133889285Y-39483571D01*
X133889285Y-38626429D02*
X133817857Y-38555000D01*
X133674999Y-38483571D01*
X133460714Y-38483571D01*
X133317857Y-38555000D01*
X133246428Y-38697857D01*
X133246428Y-39483571D01*
X132603571Y-39412143D02*
X132460714Y-39483571D01*
X132174999Y-39483571D01*
X132032142Y-39412143D01*
X131960714Y-39269286D01*
X131960714Y-39197857D01*
X132032142Y-39055000D01*
X132174999Y-38983571D01*
X132389285Y-38983571D01*
X132532142Y-38912143D01*
X132603571Y-38769286D01*
X132603571Y-38697857D01*
X132532142Y-38555000D01*
X132389285Y-38483571D01*
X132174999Y-38483571D01*
X132032142Y-38555000D01*
X130746428Y-39412143D02*
X130889285Y-39483571D01*
X131174999Y-39483571D01*
X131317856Y-39412143D01*
X131389285Y-39269286D01*
X131389285Y-38697857D01*
X131317856Y-38555000D01*
X131174999Y-38483571D01*
X130889285Y-38483571D01*
X130746428Y-38555000D01*
X130674999Y-38697857D01*
X130674999Y-38840714D01*
X131389285Y-38983571D01*
X129389285Y-39483571D02*
X129389285Y-37983571D01*
X129389285Y-39412143D02*
X129532142Y-39483571D01*
X129817856Y-39483571D01*
X129960714Y-39412143D01*
X130032142Y-39340714D01*
X130103571Y-39197857D01*
X130103571Y-38769286D01*
X130032142Y-38626429D01*
X129960714Y-38555000D01*
X129817856Y-38483571D01*
X129532142Y-38483571D01*
X129389285Y-38555000D01*
X126889285Y-38483571D02*
X126889285Y-39483571D01*
X127532142Y-38483571D02*
X127532142Y-39269286D01*
X127460714Y-39412143D01*
X127317856Y-39483571D01*
X127103571Y-39483571D01*
X126960714Y-39412143D01*
X126889285Y-39340714D01*
X126174999Y-38483571D02*
X126174999Y-39483571D01*
X126174999Y-38626429D02*
X126103571Y-38555000D01*
X125960713Y-38483571D01*
X125746428Y-38483571D01*
X125603571Y-38555000D01*
X125532142Y-38697857D01*
X125532142Y-39483571D01*
X124174999Y-39483571D02*
X124174999Y-37983571D01*
X124174999Y-39412143D02*
X124317856Y-39483571D01*
X124603570Y-39483571D01*
X124746428Y-39412143D01*
X124817856Y-39340714D01*
X124889285Y-39197857D01*
X124889285Y-38769286D01*
X124817856Y-38626429D01*
X124746428Y-38555000D01*
X124603570Y-38483571D01*
X124317856Y-38483571D01*
X124174999Y-38555000D01*
X122889285Y-39412143D02*
X123032142Y-39483571D01*
X123317856Y-39483571D01*
X123460713Y-39412143D01*
X123532142Y-39269286D01*
X123532142Y-38697857D01*
X123460713Y-38555000D01*
X123317856Y-38483571D01*
X123032142Y-38483571D01*
X122889285Y-38555000D01*
X122817856Y-38697857D01*
X122817856Y-38840714D01*
X123532142Y-38983571D01*
X122174999Y-39483571D02*
X122174999Y-38483571D01*
X122174999Y-38769286D02*
X122103571Y-38626429D01*
X122032142Y-38555000D01*
X121889285Y-38483571D01*
X121746428Y-38483571D01*
X137960714Y-41740714D02*
X138032143Y-41812143D01*
X138246429Y-41883571D01*
X138389286Y-41883571D01*
X138603571Y-41812143D01*
X138746429Y-41669286D01*
X138817857Y-41526429D01*
X138889286Y-41240714D01*
X138889286Y-41026429D01*
X138817857Y-40740714D01*
X138746429Y-40597857D01*
X138603571Y-40455000D01*
X138389286Y-40383571D01*
X138246429Y-40383571D01*
X138032143Y-40455000D01*
X137960714Y-40526429D01*
X137317857Y-41097857D02*
X136817857Y-41097857D01*
X136603571Y-41883571D02*
X137317857Y-41883571D01*
X137317857Y-40383571D01*
X136603571Y-40383571D01*
X135103571Y-41883571D02*
X135603571Y-41169286D01*
X135960714Y-41883571D02*
X135960714Y-40383571D01*
X135389286Y-40383571D01*
X135246428Y-40455000D01*
X135175000Y-40526429D01*
X135103571Y-40669286D01*
X135103571Y-40883571D01*
X135175000Y-41026429D01*
X135246428Y-41097857D01*
X135389286Y-41169286D01*
X135960714Y-41169286D01*
X134460714Y-41883571D02*
X134460714Y-40383571D01*
X133603571Y-41883571D01*
X133603571Y-40383571D01*
X131460714Y-40383571D02*
X131175000Y-40383571D01*
X131032142Y-40455000D01*
X130889285Y-40597857D01*
X130817857Y-40883571D01*
X130817857Y-41383571D01*
X130889285Y-41669286D01*
X131032142Y-41812143D01*
X131175000Y-41883571D01*
X131460714Y-41883571D01*
X131603571Y-41812143D01*
X131746428Y-41669286D01*
X131817857Y-41383571D01*
X131817857Y-40883571D01*
X131746428Y-40597857D01*
X131603571Y-40455000D01*
X131460714Y-40383571D01*
X130174999Y-41883571D02*
X130174999Y-40383571D01*
X130174999Y-41097857D02*
X129317856Y-41097857D01*
X129317856Y-41883571D02*
X129317856Y-40383571D01*
X127889284Y-41883571D02*
X128603570Y-41883571D01*
X128603570Y-40383571D01*
X126389284Y-40883571D02*
X126032141Y-41883571D01*
X125674999Y-40883571D01*
X125103570Y-41740714D02*
X125032142Y-41812143D01*
X125103570Y-41883571D01*
X125174999Y-41812143D01*
X125103570Y-41740714D01*
X125103570Y-41883571D01*
X123603570Y-41883571D02*
X124460713Y-41883571D01*
X124032141Y-41883571D02*
X124032141Y-40383571D01*
X124174998Y-40597857D01*
X124317856Y-40740714D01*
X124460713Y-40812143D01*
X122960713Y-41740714D02*
X122889285Y-41812143D01*
X122960713Y-41883571D01*
X123032142Y-41812143D01*
X122960713Y-41740714D01*
X122960713Y-41883571D01*
X122317856Y-40526429D02*
X122246427Y-40455000D01*
X122103570Y-40383571D01*
X121746427Y-40383571D01*
X121603570Y-40455000D01*
X121532141Y-40526429D01*
X121460713Y-40669286D01*
X121460713Y-40812143D01*
X121532141Y-41026429D01*
X122389284Y-41883571D01*
X121460713Y-41883571D01*
D12*
X134350000Y-107530000D02*
X138850000Y-107530000D01*
X133100000Y-111530000D02*
X133100000Y-110030000D01*
X138850000Y-114030000D02*
X134350000Y-114030000D01*
X140100000Y-110030000D02*
X140100000Y-111530000D01*
X134350000Y-99910000D02*
X138850000Y-99910000D01*
X133100000Y-103910000D02*
X133100000Y-102410000D01*
X138850000Y-106410000D02*
X134350000Y-106410000D01*
X140100000Y-102410000D02*
X140100000Y-103910000D01*
M02*
