M48
;DRILL file {KiCad 4.0.7} date 09/26/19 16:06:40
;FORMAT={2:4/ absolute / inch / suppress leading zeros}
FMAT,2
INCH,TZ
T1C0.016
T2C0.031
T3C0.035
T4C0.039
T5C0.043
T6C0.126
%
G90
G05
M72
T1
X40000Y-20250
X40000Y-21000
X42250Y-18500
X43000Y-19000
X43500Y-27500
X45250Y-23000
X45250Y-28250
X45500Y-16500
X45500Y-24500
X45500Y-25500
X45500Y-27250
X45750Y-16000
X45750Y-23000
X45750Y-27000
X46500Y-35750
X46750Y-36000
X47000Y-36250
X47250Y-33000
X47250Y-34250
X47250Y-35250
X47500Y-36500
X47750Y-36750
X49250Y-27250
X49500Y-22750
X49750Y-26000
X49750Y-27000
X50250Y-26000
X50500Y-25750
X50750Y-25500
X51000Y-17000
X51000Y-23000
X51250Y-18000
X51250Y-23750
X51500Y-24000
X51500Y-28500
X51750Y-18500
X51750Y-20000
X51750Y-26750
X51750Y-27250
X52000Y-26500
X52000Y-27500
X52250Y-26750
X52250Y-27250
X53000Y-35250
X53000Y-36750
X53250Y-21750
X53250Y-35000
X53500Y-24000
X53500Y-36750
X53750Y-24250
X54000Y-19500
X54000Y-27500
X54250Y-16500
X54250Y-27250
X54500Y-19000
X54500Y-27500
X54750Y-18500
X54750Y-27250
X55000Y-17000
X55000Y-17500
X55000Y-27500
X55500Y-18000
X57750Y-14500
X57750Y-26250
T2
X43750Y-17250
X43750Y-18500
X43750Y-19750
X43750Y-21000
X43750Y-22250
X43750Y-29500
X43750Y-30750
X43750Y-32000
X43750Y-33250
X43750Y-34500
X44250Y-23500
X44250Y-24500
X44250Y-25500
X44750Y-17250
X44750Y-18500
X44750Y-19750
X44750Y-21000
X44750Y-22250
X44750Y-29500
X44750Y-30750
X44750Y-32000
X44750Y-33250
X44750Y-34500
X46750Y-26500
X46750Y-28000
X46750Y-29500
X46750Y-31000
X46750Y-32500
X47250Y-16250
X47250Y-17250
X47250Y-18250
X47250Y-19250
X47250Y-20250
X47250Y-21250
X47250Y-22250
X47250Y-23250
X47781Y-14750
X49750Y-14750
X50250Y-16250
X50250Y-17250
X50250Y-18250
X50250Y-19250
X50250Y-20250
X50250Y-21250
X50250Y-22250
X50250Y-23250
X50750Y-26500
X50750Y-28000
X50750Y-29500
X50750Y-31000
X50750Y-32500
X52500Y-31000
X52500Y-32500
X53000Y-16250
X53000Y-17250
X53000Y-18250
X53000Y-19250
X53000Y-20250
X53000Y-21250
X53000Y-22250
X53000Y-23250
X53000Y-26500
X53000Y-27500
X53000Y-28500
X53000Y-29500
X53531Y-14750
X53531Y-25000
X55500Y-14750
X55500Y-25000
X56000Y-16250
X56000Y-17250
X56000Y-18250
X56000Y-19250
X56000Y-20250
X56000Y-21250
X56000Y-22250
X56000Y-23250
X56000Y-26500
X56000Y-27500
X56000Y-28500
X56000Y-29500
X56500Y-31000
X56500Y-32500
T3
X44250Y-14750
X44250Y-15750
X44250Y-27000
X44250Y-28000
T4
X40614Y-18427
X40614Y-19518
X40614Y-20608
X40614Y-21699
X40614Y-30711
X40614Y-31801
X40614Y-32892
X40614Y-33982
X41732Y-17882
X41732Y-18972
X41732Y-20063
X41732Y-21154
X41732Y-22244
X41732Y-30165
X41732Y-31256
X41732Y-32346
X41732Y-33437
X41732Y-34528
X43400Y-41787
X43945Y-42906
X44491Y-41787
X45000Y-37500
X45000Y-38500
X45000Y-39500
X45036Y-42906
X45581Y-41787
X46000Y-37500
X46000Y-38500
X46000Y-39500
X46126Y-42906
X46672Y-41787
X47217Y-42906
X47762Y-41787
X48250Y-37500
X48250Y-38500
X48250Y-39500
X49250Y-37500
X49250Y-38500
X49250Y-39500
X51500Y-37500
X52500Y-37500
T5
X52500Y-42941
X52500Y-45500
X54272Y-42941
X54272Y-45500
X55500Y-42941
X55500Y-45500
X57272Y-42941
X57272Y-45500
T6
X40660Y-42346
X41173Y-15142
X41173Y-24984
X41173Y-27425
X41173Y-37268
X50502Y-42346
T0
M30
